M48
; DRILL file {KiCad (5.1.5)-2} date 30/05/2020 20:26:43
; FORMAT={3:3/ absolute / metric / suppress leading zeros}
; #@! TF.CreationDate,2020-05-30T20:26:43+02:00
; #@! TF.GenerationSoftware,Kicad,Pcbnew,(5.1.5)-2
; #@! TF.FileFunction,Plated,1,2,PTH
FMAT,2
METRIC,TZ
T1C0.400
T2C0.800
T3C1.000
T4C1.100
T5C1.200
%
G90
G05
T1
X124683Y-68181
X124683Y-71737
X124937Y-142603
X125064Y-90279
X125191Y-104249
X126334Y-123172
X126985Y-130254
X127985Y-58275
X127985Y-60307
X129167Y-63706
X129167Y-67262
X129167Y-71072
X129509Y-140952
X130525Y-126728
X132557Y-58783
X132557Y-61323
X135097Y-58783
X135097Y-61323
X137637Y-58783
X137637Y-61323
X137637Y-63863
X140177Y-58783
X140177Y-61323
X140266Y-63452
X140431Y-53195
X140431Y-54719
X142225Y-63452
X143225Y-57259
X144495Y-58529
X145384Y-126601
X146273Y-140952
X146543Y-51641
X146797Y-59134
X150083Y-143619
X150591Y-123299
X151353Y-55608
X153528Y-57356
X153655Y-55578
X154147Y-61450
X154274Y-74531
X155941Y-52276
X158227Y-64214
X158227Y-70120
X160497Y-56243
X160497Y-61323
X162783Y-64117
X165577Y-51163
X165577Y-56243
X165577Y-61323
X170657Y-51163
X170657Y-56243
X170657Y-61323
X175737Y-51163
X175737Y-56243
X175737Y-61323
X179293Y-130919
X179293Y-143365
X180817Y-51163
X180817Y-56243
X180817Y-61323
X183627Y-63452
X183627Y-67262
X183627Y-71072
X184627Y-58275
X184627Y-61577
X186659Y-78595
X187675Y-131173
X187929Y-118219
X188437Y-80119
X188691Y-73007
T2
X152587Y-64219
X152587Y-66759
X152587Y-69299
X152587Y-71839
X160207Y-64219
X160207Y-66759
X160207Y-69299
X160207Y-71839
T3
X173721Y-77359
X163561Y-110378
X148321Y-110378
X128001Y-95139
X166101Y-79899
X130541Y-112918
X148321Y-77359
X163561Y-128159
X166101Y-107839
X148321Y-107839
X178801Y-117998
X171181Y-84979
X133081Y-77359
X153401Y-128159
X178801Y-84979
X158481Y-84979
X183881Y-105298
X178801Y-120539
X176261Y-130698
X181341Y-105298
X145781Y-112918
X168641Y-138319
X171181Y-140859
X181341Y-107839
X183881Y-123078
X163561Y-133239
X173721Y-125618
X178801Y-105298
X135621Y-90058
X166101Y-135779
X161021Y-123078
X173721Y-102759
X133081Y-82438
X168641Y-135779
X173721Y-140859
X178801Y-92599
X140701Y-87519
X178801Y-125618
X163561Y-100218
X173721Y-128159
X138161Y-102759
X178801Y-107839
X166101Y-102759
X133081Y-110378
X176261Y-115459
X158481Y-97679
X140701Y-115459
X143241Y-97679
X148321Y-120539
X158481Y-100218
X138161Y-107839
X145781Y-90058
X133081Y-120539
X155941Y-92599
X140701Y-105298
X148321Y-97679
X155941Y-117998
X155941Y-110378
X166101Y-110378
X140701Y-97679
X150861Y-95139
X128001Y-87519
X161021Y-110378
X166101Y-105298
X150861Y-92599
X181341Y-117998
X161021Y-115459
X176261Y-77359
X163561Y-107839
X150861Y-107839
X141463Y-49990
X144003Y-49990
X146543Y-49990
X128001Y-84979
X171181Y-82438
X171181Y-77359
X166101Y-115459
X155941Y-84979
X130541Y-87519
X171181Y-87519
X128001Y-120539
X176261Y-79899
X161021Y-87519
X128001Y-100218
X166101Y-90058
X150861Y-77359
X176261Y-128159
X173721Y-84979
X143241Y-95139
X183881Y-79899
X128001Y-110378
X171181Y-128159
X173721Y-115459
X158481Y-90058
X183881Y-95139
X166101Y-133239
X173721Y-107839
X183881Y-128159
X171181Y-138319
X153401Y-138319
X181341Y-110378
X140701Y-90058
X168641Y-133239
X166101Y-125618
X181341Y-100218
X135621Y-87519
X176261Y-135779
X158481Y-138319
X176261Y-90058
X138161Y-84979
X130541Y-107839
X183881Y-117998
X166101Y-95139
X176261Y-125618
X138161Y-97679
X178801Y-115459
X163561Y-102759
X140701Y-112918
X148321Y-117998
X153401Y-102759
X140701Y-102759
X148321Y-79899
X135621Y-120539
X155941Y-95139
X140701Y-107839
X148321Y-95139
X183881Y-82438
X133081Y-117998
X155941Y-105298
X145781Y-84979
X145781Y-87519
X183881Y-77359
X155941Y-120539
X153401Y-115459
X171181Y-112918
X133081Y-100218
X148321Y-92599
X130541Y-90058
X153401Y-105298
X163561Y-95139
X143241Y-92599
X130541Y-100218
X155941Y-115459
X181341Y-77359
X171181Y-110378
X150861Y-110378
X130541Y-92599
X153401Y-110378
X140701Y-77359
X155941Y-128159
X168641Y-107839
X155941Y-87519
X128001Y-90058
X168641Y-82438
X130541Y-115459
X155941Y-77359
X158481Y-128159
X181341Y-82438
X153401Y-84979
X128001Y-115459
X158481Y-105298
X158481Y-77359
X155941Y-130698
X176261Y-82438
X150861Y-112918
X183881Y-125618
X128001Y-97679
X153401Y-123078
X178801Y-102759
X148321Y-115459
X183881Y-100218
X176261Y-138319
X178801Y-95139
X150861Y-49990
X153401Y-49990
X155941Y-49990
X158481Y-49990
X161021Y-49990
X153401Y-135779
X163561Y-140859
X176261Y-100218
X181341Y-128159
X158481Y-140859
X181341Y-87519
X138161Y-87519
X171181Y-135779
X155941Y-123078
X176261Y-110378
X138161Y-82438
X183881Y-110378
X183881Y-120539
X178801Y-110378
X171181Y-100218
X173721Y-123078
X133081Y-97679
X150861Y-117998
X158481Y-87519
X150861Y-87519
X145781Y-97679
X138161Y-120539
X153401Y-95139
X133081Y-105298
X143241Y-87519
X140701Y-117998
X161021Y-95139
X138161Y-115459
X145781Y-102759
X158481Y-117998
X155941Y-100218
X140701Y-82438
X143241Y-90058
X163561Y-117998
X166101Y-87519
X171181Y-97679
X138161Y-95139
X143241Y-100218
X128001Y-105298
X158481Y-112918
X171181Y-107839
X145781Y-110378
X130541Y-79899
X168641Y-90058
X153401Y-77359
X168641Y-112918
X158481Y-79899
X176261Y-117998
X153401Y-79899
X145781Y-77359
X163561Y-130698
X168641Y-115459
X155941Y-82438
X128001Y-82438
X168641Y-79899
X138161Y-77359
X168641Y-130698
X178801Y-79899
X153401Y-90058
X130541Y-105298
X163561Y-90058
X128001Y-77359
X161021Y-130698
X176261Y-87519
X143241Y-110378
X183881Y-84979
X155941Y-125618
X181341Y-84979
X145781Y-105298
X183881Y-102759
X173721Y-138319
X163561Y-138319
X173721Y-92599
X163561Y-135779
X166101Y-138319
X181341Y-102759
X133081Y-79899
X176261Y-133239
X168641Y-125618
X181341Y-90058
X133081Y-84979
X181341Y-125618
X168641Y-102759
X168641Y-140859
X181341Y-92599
X138161Y-79899
X183881Y-87519
X143241Y-117998
X171181Y-95139
X135621Y-102759
X176261Y-112918
X161021Y-84979
X135621Y-110378
X143241Y-84979
X135621Y-117998
X161021Y-112918
X133081Y-92599
X148321Y-90058
X153401Y-117998
X153401Y-82438
X133081Y-112918
X145781Y-82438
X161021Y-120539
X158481Y-92599
X140701Y-79899
X150861Y-90058
X168641Y-117998
X163561Y-84979
X163561Y-92599
X138161Y-105298
X145781Y-100218
X166101Y-120539
X163561Y-82438
X171181Y-92599
X143241Y-112918
X130541Y-82438
X166101Y-84979
X163561Y-77359
X163561Y-105298
X148321Y-105298
X130541Y-97679
X155941Y-112918
X130541Y-120539
X153401Y-130698
X171181Y-115459
X143241Y-79899
X128001Y-92599
X166101Y-97679
X128001Y-117998
X171181Y-130698
X176261Y-97679
X150861Y-115459
X163561Y-120539
X130541Y-77359
X173721Y-90058
X155941Y-97679
X153401Y-133239
X158481Y-123078
X173721Y-100218
X158481Y-82438
X183881Y-97679
X155941Y-135779
X161021Y-140859
X178801Y-97679
X161021Y-135779
X163561Y-123078
X178801Y-82438
X133081Y-90058
X173721Y-135779
X171181Y-123078
X181341Y-95139
X140701Y-84979
X178801Y-128159
X166101Y-100218
X168641Y-123078
X173721Y-82438
X135621Y-92599
X183881Y-92599
X178801Y-112918
X168641Y-92599
X153401Y-125618
X135621Y-95139
X181341Y-115459
X161021Y-100218
X133081Y-115459
X148321Y-84979
X150861Y-120539
X158481Y-102759
X145781Y-79899
X143241Y-82438
X140701Y-120539
X161021Y-102759
X135621Y-107839
X143241Y-102759
X161021Y-117998
X153401Y-92599
X133081Y-95139
X148321Y-87519
X168641Y-120539
X161021Y-105298
X168641Y-105298
X135621Y-115459
X150861Y-102759
X166101Y-117998
X163561Y-87519
X168641Y-100218
X145781Y-115459
X173721Y-120539
X171181Y-90058
X178801Y-77359
X163561Y-79899
X153401Y-97679
X128001Y-102759
X158481Y-110378
X143241Y-77359
X166101Y-130698
X166101Y-112918
X150861Y-105298
X130541Y-84979
X163561Y-97679
X130541Y-117998
X168641Y-128159
X178801Y-90058
X155941Y-79899
X130541Y-102759
X158481Y-130698
X176261Y-92599
X155941Y-90058
X183881Y-90058
X161021Y-138319
X158481Y-125618
X181341Y-79899
X143241Y-107839
X128001Y-79899
X183881Y-115459
X161021Y-133239
X155941Y-140859
X181341Y-112918
X158481Y-135779
X163561Y-125618
X178801Y-87519
X135621Y-79899
X173721Y-133239
X173721Y-87519
X138161Y-90058
X178801Y-123078
X171181Y-79899
X176261Y-123078
X173721Y-95139
X140701Y-100218
X173721Y-79899
X168641Y-95139
X166101Y-123078
X133081Y-102759
X173721Y-105298
X161021Y-92599
X135621Y-100218
X148321Y-82438
X145781Y-117998
X161021Y-107839
X140701Y-92599
X145781Y-95139
X138161Y-117998
X161021Y-90058
X138161Y-110378
X150861Y-79899
X158481Y-120539
X153401Y-100218
X135621Y-97679
X145781Y-92599
X183881Y-112918
X171181Y-120539
X153401Y-107839
X163561Y-115459
X138161Y-100218
X148321Y-100218
X173721Y-117998
X168641Y-87519
X171181Y-105298
X145781Y-107839
X181341Y-120539
X158481Y-107839
X166101Y-77359
X176261Y-84979
X143241Y-115459
X130541Y-110378
X155941Y-107839
X161021Y-77359
X173721Y-130698
X168641Y-110378
X148321Y-112918
X153401Y-120539
X166101Y-82438
X135621Y-77359
X166101Y-128159
X173721Y-97679
X153401Y-87519
X128001Y-107839
X161021Y-128159
X178801Y-100218
X143241Y-105298
X183881Y-107839
X155941Y-133239
X155941Y-138319
X181341Y-97679
X158481Y-133239
X161021Y-125618
X173721Y-112918
X135621Y-84979
X176261Y-140859
X153401Y-140859
X176261Y-105298
X135621Y-82438
X171181Y-133239
X166101Y-140859
X176261Y-95139
X133081Y-87519
X181341Y-123078
X166101Y-92599
X176261Y-102759
X138161Y-92599
X173721Y-110378
X168641Y-97679
X171181Y-125618
X133081Y-107839
X176261Y-107839
X161021Y-79899
X135621Y-112918
X150861Y-82438
X145781Y-120539
X158481Y-95139
X135621Y-105298
X150861Y-84979
X143241Y-120539
X161021Y-97679
X138161Y-112918
X148321Y-102759
X171181Y-117998
X155941Y-102759
X140701Y-95139
X150861Y-100218
X176261Y-120539
X153401Y-112918
X171181Y-102759
X140701Y-110378
X150861Y-97679
X130541Y-95139
X158481Y-115459
X168641Y-77359
X163561Y-112918
X161021Y-82438
X128001Y-112918
X168641Y-84979
T4
X182849Y-133763
X182849Y-140263
X187349Y-133763
X187349Y-140263
T5
X144967Y-71839
X144967Y-69299
X187883Y-124683
X144967Y-66759
X125207Y-82438
X167827Y-66759
X125207Y-97679
X167827Y-71839
X167827Y-69299
T3
G00X126922Y-135064
M15
G01X126922Y-133064
M16
G05
G00X148892Y-135064
M15
G01X148892Y-133064
M16
G05
T0
M30
