G04 #@! TF.GenerationSoftware,KiCad,Pcbnew,(5.1.5)-2*
G04 #@! TF.CreationDate,2021-11-26T12:09:46+01:00*
G04 #@! TF.ProjectId,PIC12_BOARD_REV2,50494331-325f-4424-9f41-52445f524556,rev?*
G04 #@! TF.SameCoordinates,Original*
G04 #@! TF.FileFunction,Copper,L1,Top*
G04 #@! TF.FilePolarity,Positive*
%FSLAX46Y46*%
G04 Gerber Fmt 4.6, Leading zero omitted, Abs format (unit mm)*
G04 Created by KiCad (PCBNEW (5.1.5)-2) date 2021-11-26 12:09:46*
%MOMM*%
%LPD*%
G04 APERTURE LIST*
%ADD10O,2.000000X10.000000*%
%ADD11O,1.700000X1.700000*%
%ADD12R,1.700000X1.700000*%
%ADD13C,2.032000*%
%ADD14R,1.270000X5.080000*%
%ADD15C,17.800000*%
%ADD16R,1.500000X2.000000*%
%ADD17R,3.800000X2.000000*%
%ADD18R,2.000000X1.700000*%
%ADD19R,0.500000X2.000000*%
%ADD20C,0.100000*%
%ADD21O,1.600000X1.600000*%
%ADD22R,1.600000X1.600000*%
%ADD23C,2.000000*%
%ADD24O,10.000000X2.000000*%
%ADD25C,0.800000*%
%ADD26C,1.000000*%
%ADD27C,0.500000*%
%ADD28C,0.250000*%
%ADD29C,0.254000*%
G04 APERTURE END LIST*
D10*
X125207000Y-97678500D03*
X125207000Y-82438500D03*
D11*
X161021000Y-49990000D03*
X158481000Y-49990000D03*
X155941000Y-49990000D03*
X153401000Y-49990000D03*
D12*
X150861000Y-49990000D03*
D13*
X183881000Y-128158500D03*
X183881000Y-125618500D03*
X183881000Y-123078500D03*
X183881000Y-115458500D03*
X183881000Y-97678500D03*
X183881000Y-102758500D03*
X183881000Y-100218500D03*
X183881000Y-95138500D03*
X183881000Y-107838500D03*
X183881000Y-90058500D03*
X183881000Y-84978500D03*
X183881000Y-110378500D03*
X183881000Y-79898500D03*
X183881000Y-105298500D03*
X183881000Y-112918500D03*
X183881000Y-92598500D03*
X183881000Y-82438500D03*
X183881000Y-87518500D03*
X183881000Y-120538500D03*
X183881000Y-117998500D03*
X183881000Y-77358500D03*
X181341000Y-128158500D03*
X178801000Y-128158500D03*
X181341000Y-125618500D03*
X178801000Y-125618500D03*
X181341000Y-123078500D03*
X178801000Y-123078500D03*
X171181000Y-135778500D03*
X171181000Y-133238500D03*
X176261000Y-135778500D03*
X168641000Y-135778500D03*
X173721000Y-133238500D03*
X173721000Y-135778500D03*
X176261000Y-133238500D03*
X168641000Y-133238500D03*
X166101000Y-135778500D03*
X161021000Y-133238500D03*
X161021000Y-135778500D03*
X163561000Y-135778500D03*
X163561000Y-133238500D03*
X158481000Y-135778500D03*
X166101000Y-133238500D03*
X158481000Y-133238500D03*
X153401000Y-135778500D03*
X155941000Y-133238500D03*
X155941000Y-135778500D03*
X153401000Y-133238500D03*
X171181000Y-138318500D03*
X176261000Y-140858500D03*
X173721000Y-138318500D03*
X176261000Y-138318500D03*
X168641000Y-138318500D03*
X161021000Y-138318500D03*
X161021000Y-140858500D03*
X158481000Y-140858500D03*
X163561000Y-140858500D03*
X155941000Y-140858500D03*
X153401000Y-138318500D03*
X163561000Y-138318500D03*
X166101000Y-138318500D03*
X171181000Y-140858500D03*
X158481000Y-138318500D03*
X168641000Y-140858500D03*
X173721000Y-140858500D03*
X166101000Y-140858500D03*
X153401000Y-140858500D03*
X155941000Y-138318500D03*
X171181000Y-125618500D03*
X171181000Y-123078500D03*
X176261000Y-125618500D03*
X168641000Y-125618500D03*
X173721000Y-123078500D03*
X173721000Y-125618500D03*
X176261000Y-123078500D03*
X168641000Y-123078500D03*
X166101000Y-125618500D03*
X161021000Y-123078500D03*
X161021000Y-125618500D03*
X163561000Y-125618500D03*
X163561000Y-123078500D03*
X158481000Y-125618500D03*
X166101000Y-123078500D03*
X158481000Y-123078500D03*
X153401000Y-125618500D03*
X155941000Y-123078500D03*
X155941000Y-125618500D03*
X153401000Y-123078500D03*
X171181000Y-128158500D03*
X176261000Y-130698500D03*
X173721000Y-128158500D03*
X176261000Y-128158500D03*
X168641000Y-128158500D03*
X161021000Y-128158500D03*
X161021000Y-130698500D03*
X158481000Y-130698500D03*
X163561000Y-130698500D03*
X155941000Y-130698500D03*
X153401000Y-128158500D03*
X163561000Y-128158500D03*
X166101000Y-128158500D03*
X171181000Y-130698500D03*
X158481000Y-128158500D03*
X168641000Y-130698500D03*
X173721000Y-130698500D03*
X166101000Y-130698500D03*
X153401000Y-130698500D03*
X155941000Y-128158500D03*
X181341000Y-77358500D03*
X173721000Y-77358500D03*
X176261000Y-77358500D03*
X178801000Y-77358500D03*
X163561000Y-77358500D03*
X171181000Y-77358500D03*
X153401000Y-77358500D03*
X168641000Y-77358500D03*
X166101000Y-77358500D03*
X161021000Y-77358500D03*
X128001000Y-77358500D03*
X130541000Y-77358500D03*
X133081000Y-77358500D03*
X148321000Y-77358500D03*
X145781000Y-77358500D03*
X140701000Y-77358500D03*
X138161000Y-77358500D03*
X158481000Y-77358500D03*
X143241000Y-77358500D03*
X155941000Y-77358500D03*
X150861000Y-77358500D03*
X135621000Y-77358500D03*
X130541000Y-117998500D03*
X128001000Y-117998500D03*
X128001000Y-120538500D03*
X130541000Y-120538500D03*
X128001000Y-79898500D03*
X130541000Y-107838500D03*
X130541000Y-115458500D03*
X130541000Y-112918500D03*
X128001000Y-105298500D03*
X128001000Y-110378500D03*
X128001000Y-107838500D03*
X128001000Y-112918500D03*
X128001000Y-115458500D03*
X130541000Y-110378500D03*
X130541000Y-105298500D03*
X128001000Y-92598500D03*
X128001000Y-95138500D03*
X128001000Y-102758500D03*
X130541000Y-100218500D03*
X130541000Y-95138500D03*
X130541000Y-102758500D03*
X128001000Y-100218500D03*
X130541000Y-92598500D03*
X128001000Y-82438500D03*
X128001000Y-90058500D03*
X130541000Y-87518500D03*
X130541000Y-82438500D03*
X130541000Y-90058500D03*
X128001000Y-84978500D03*
X128001000Y-97678500D03*
X128001000Y-87518500D03*
X130541000Y-97678500D03*
X130541000Y-84978500D03*
X130541000Y-79898500D03*
X176261000Y-120538500D03*
X176261000Y-117998500D03*
X181341000Y-120538500D03*
X173721000Y-120538500D03*
X178801000Y-117998500D03*
X178801000Y-120538500D03*
X181341000Y-117998500D03*
X173721000Y-117998500D03*
X171181000Y-120538500D03*
X166101000Y-117998500D03*
X166101000Y-120538500D03*
X168641000Y-120538500D03*
X168641000Y-117998500D03*
X163561000Y-120538500D03*
X171181000Y-117998500D03*
X163561000Y-117998500D03*
X155941000Y-120538500D03*
X155941000Y-117998500D03*
X158481000Y-120538500D03*
X153401000Y-120538500D03*
X153401000Y-117998500D03*
X161021000Y-117998500D03*
X161021000Y-120538500D03*
X158481000Y-117998500D03*
X135621000Y-120538500D03*
X135621000Y-117998500D03*
X140701000Y-120538500D03*
X138161000Y-120538500D03*
X138161000Y-117998500D03*
X133081000Y-117998500D03*
X133081000Y-120538500D03*
X140701000Y-117998500D03*
X148321000Y-120538500D03*
X143241000Y-120538500D03*
X145781000Y-120538500D03*
X145781000Y-117998500D03*
X150861000Y-120538500D03*
X148321000Y-117998500D03*
X143241000Y-117998500D03*
X150861000Y-117998500D03*
X173721000Y-79898500D03*
X176261000Y-107838500D03*
X176261000Y-115458500D03*
X178801000Y-110378500D03*
X176261000Y-112918500D03*
X181341000Y-115458500D03*
X178801000Y-115458500D03*
X178801000Y-107838500D03*
X173721000Y-105298500D03*
X173721000Y-110378500D03*
X178801000Y-112918500D03*
X181341000Y-110378500D03*
X173721000Y-107838500D03*
X173721000Y-112918500D03*
X181341000Y-105298500D03*
X173721000Y-115458500D03*
X178801000Y-105298500D03*
X181341000Y-107838500D03*
X181341000Y-112918500D03*
X176261000Y-110378500D03*
X176261000Y-105298500D03*
X173721000Y-92598500D03*
X181341000Y-92598500D03*
X181341000Y-97678500D03*
X178801000Y-100218500D03*
X181341000Y-102758500D03*
X173721000Y-95138500D03*
X173721000Y-102758500D03*
X176261000Y-100218500D03*
X176261000Y-95138500D03*
X176261000Y-102758500D03*
X178801000Y-95138500D03*
X178801000Y-97678500D03*
X173721000Y-100218500D03*
X178801000Y-102758500D03*
X178801000Y-92598500D03*
X181341000Y-95138500D03*
X181341000Y-100218500D03*
X176261000Y-92598500D03*
X181341000Y-79898500D03*
X181341000Y-84978500D03*
X178801000Y-87518500D03*
X181341000Y-90058500D03*
X173721000Y-82438500D03*
X173721000Y-90058500D03*
X176261000Y-87518500D03*
X176261000Y-82438500D03*
X176261000Y-90058500D03*
X173721000Y-84978500D03*
X178801000Y-82438500D03*
X178801000Y-84978500D03*
X173721000Y-97678500D03*
X173721000Y-87518500D03*
X178801000Y-90058500D03*
X176261000Y-97678500D03*
X178801000Y-79898500D03*
X181341000Y-82438500D03*
X181341000Y-87518500D03*
X176261000Y-84978500D03*
X176261000Y-79898500D03*
X163561000Y-79898500D03*
X166101000Y-107838500D03*
X166101000Y-115458500D03*
X168641000Y-110378500D03*
X166101000Y-112918500D03*
X171181000Y-115458500D03*
X168641000Y-115458500D03*
X168641000Y-107838500D03*
X163561000Y-105298500D03*
X163561000Y-110378500D03*
X168641000Y-112918500D03*
X171181000Y-110378500D03*
X163561000Y-107838500D03*
X163561000Y-112918500D03*
X171181000Y-105298500D03*
X163561000Y-115458500D03*
X168641000Y-105298500D03*
X171181000Y-107838500D03*
X171181000Y-112918500D03*
X166101000Y-110378500D03*
X166101000Y-105298500D03*
X163561000Y-92598500D03*
X171181000Y-92598500D03*
X171181000Y-97678500D03*
X168641000Y-100218500D03*
X171181000Y-102758500D03*
X163561000Y-95138500D03*
X163561000Y-102758500D03*
X166101000Y-100218500D03*
X166101000Y-95138500D03*
X166101000Y-102758500D03*
X168641000Y-95138500D03*
X168641000Y-97678500D03*
X163561000Y-100218500D03*
X168641000Y-102758500D03*
X168641000Y-92598500D03*
X171181000Y-95138500D03*
X171181000Y-100218500D03*
X166101000Y-92598500D03*
X171181000Y-79898500D03*
X171181000Y-84978500D03*
X168641000Y-87518500D03*
X171181000Y-90058500D03*
X163561000Y-82438500D03*
X163561000Y-90058500D03*
X166101000Y-87518500D03*
X166101000Y-82438500D03*
X166101000Y-90058500D03*
X163561000Y-84978500D03*
X168641000Y-82438500D03*
X168641000Y-84978500D03*
X163561000Y-97678500D03*
X163561000Y-87518500D03*
X168641000Y-90058500D03*
X166101000Y-97678500D03*
X168641000Y-79898500D03*
X171181000Y-82438500D03*
X171181000Y-87518500D03*
X166101000Y-84978500D03*
X166101000Y-79898500D03*
X153401000Y-79898500D03*
X155941000Y-107838500D03*
X155941000Y-115458500D03*
X158481000Y-110378500D03*
X155941000Y-112918500D03*
X161021000Y-115458500D03*
X158481000Y-115458500D03*
X158481000Y-107838500D03*
X153401000Y-105298500D03*
X153401000Y-110378500D03*
X158481000Y-112918500D03*
X161021000Y-110378500D03*
X153401000Y-107838500D03*
X153401000Y-112918500D03*
X161021000Y-105298500D03*
X153401000Y-115458500D03*
X158481000Y-105298500D03*
X161021000Y-107838500D03*
X161021000Y-112918500D03*
X155941000Y-110378500D03*
X155941000Y-105298500D03*
X153401000Y-92598500D03*
X161021000Y-92598500D03*
X161021000Y-97678500D03*
X158481000Y-100218500D03*
X161021000Y-102758500D03*
X153401000Y-95138500D03*
X153401000Y-102758500D03*
X155941000Y-100218500D03*
X155941000Y-95138500D03*
X155941000Y-102758500D03*
X158481000Y-95138500D03*
X158481000Y-97678500D03*
X153401000Y-100218500D03*
X158481000Y-102758500D03*
X158481000Y-92598500D03*
X161021000Y-95138500D03*
X161021000Y-100218500D03*
X155941000Y-92598500D03*
X161021000Y-79898500D03*
X161021000Y-84978500D03*
X158481000Y-87518500D03*
X161021000Y-90058500D03*
X153401000Y-82438500D03*
X153401000Y-90058500D03*
X155941000Y-87518500D03*
X155941000Y-82438500D03*
X155941000Y-90058500D03*
X153401000Y-84978500D03*
X158481000Y-82438500D03*
X158481000Y-84978500D03*
X153401000Y-97678500D03*
X153401000Y-87518500D03*
X158481000Y-90058500D03*
X155941000Y-97678500D03*
X158481000Y-79898500D03*
X161021000Y-82438500D03*
X161021000Y-87518500D03*
X155941000Y-84978500D03*
X155941000Y-79898500D03*
X143241000Y-79898500D03*
X145781000Y-107838500D03*
X145781000Y-115458500D03*
X148321000Y-110378500D03*
X145781000Y-112918500D03*
X150861000Y-115458500D03*
X148321000Y-115458500D03*
X148321000Y-107838500D03*
X143241000Y-105298500D03*
X143241000Y-110378500D03*
X148321000Y-112918500D03*
X150861000Y-110378500D03*
X143241000Y-107838500D03*
X143241000Y-112918500D03*
X150861000Y-105298500D03*
X143241000Y-115458500D03*
X148321000Y-105298500D03*
X150861000Y-107838500D03*
X150861000Y-112918500D03*
X145781000Y-110378500D03*
X145781000Y-105298500D03*
X143241000Y-92598500D03*
X150861000Y-92598500D03*
X150861000Y-97678500D03*
X148321000Y-100218500D03*
X150861000Y-102758500D03*
X143241000Y-95138500D03*
X143241000Y-102758500D03*
X145781000Y-100218500D03*
X145781000Y-95138500D03*
X145781000Y-102758500D03*
X148321000Y-95138500D03*
X148321000Y-97678500D03*
X143241000Y-100218500D03*
X148321000Y-102758500D03*
X148321000Y-92598500D03*
X150861000Y-95138500D03*
X150861000Y-100218500D03*
X145781000Y-92598500D03*
X150861000Y-79898500D03*
X150861000Y-84978500D03*
X148321000Y-87518500D03*
X150861000Y-90058500D03*
X143241000Y-82438500D03*
X143241000Y-90058500D03*
X145781000Y-87518500D03*
X145781000Y-82438500D03*
X145781000Y-90058500D03*
X143241000Y-84978500D03*
X148321000Y-82438500D03*
X148321000Y-84978500D03*
X143241000Y-97678500D03*
X143241000Y-87518500D03*
X148321000Y-90058500D03*
X145781000Y-97678500D03*
X148321000Y-79898500D03*
X150861000Y-82438500D03*
X150861000Y-87518500D03*
X145781000Y-84978500D03*
X145781000Y-79898500D03*
X133081000Y-105298500D03*
X140701000Y-105298500D03*
X140701000Y-110378500D03*
X138161000Y-112918500D03*
X140701000Y-115458500D03*
X133081000Y-107838500D03*
X133081000Y-115458500D03*
X135621000Y-112918500D03*
X135621000Y-107838500D03*
X135621000Y-115458500D03*
X133081000Y-110378500D03*
X138161000Y-107838500D03*
X138161000Y-110378500D03*
X133081000Y-112918500D03*
X138161000Y-115458500D03*
X138161000Y-105298500D03*
X140701000Y-107838500D03*
X140701000Y-112918500D03*
X135621000Y-110378500D03*
X135621000Y-105298500D03*
X133081000Y-92598500D03*
X140701000Y-92598500D03*
X140701000Y-97678500D03*
X138161000Y-100218500D03*
X140701000Y-102758500D03*
X133081000Y-95138500D03*
X133081000Y-102758500D03*
X135621000Y-100218500D03*
X135621000Y-95138500D03*
X135621000Y-102758500D03*
X133081000Y-97678500D03*
X138161000Y-95138500D03*
X138161000Y-97678500D03*
X133081000Y-100218500D03*
X138161000Y-102758500D03*
X138161000Y-92598500D03*
X140701000Y-95138500D03*
X140701000Y-100218500D03*
X135621000Y-97678500D03*
X135621000Y-92598500D03*
X138161000Y-79898500D03*
X140701000Y-79898500D03*
X138161000Y-82438500D03*
X140701000Y-82438500D03*
X138161000Y-84978500D03*
X140701000Y-84978500D03*
X138161000Y-87518500D03*
X140701000Y-87518500D03*
X138161000Y-90058500D03*
X140701000Y-90058500D03*
X133081000Y-90058500D03*
X135621000Y-90058500D03*
X133081000Y-87518500D03*
X135621000Y-87518500D03*
X133081000Y-84978500D03*
X135621000Y-84978500D03*
X133081000Y-82438500D03*
X135621000Y-82438500D03*
X135621000Y-79898500D03*
X133081000Y-79898500D03*
D14*
X148892000Y-134064000D03*
X126922000Y-134064000D03*
D15*
X137907000Y-134064000D03*
D11*
X141463000Y-49990000D03*
X144003000Y-49990000D03*
D12*
X146543000Y-49990000D03*
D16*
X142211000Y-61014000D03*
X146811000Y-61014000D03*
X144511000Y-61014000D03*
D17*
X144511000Y-54714000D03*
D18*
X128377000Y-49229000D03*
X128377000Y-54679000D03*
X137277000Y-49229000D03*
X137277000Y-54679000D03*
D19*
X131227000Y-54779000D03*
X132027000Y-54779000D03*
X132827000Y-54779000D03*
X133627000Y-54779000D03*
X134427000Y-54779000D03*
D10*
X187883000Y-124683000D03*
G04 #@! TA.AperFunction,SMDPad,CuDef*
D20*
G36*
X130541505Y-64785204D02*
G01*
X130565773Y-64788804D01*
X130589572Y-64794765D01*
X130612671Y-64803030D01*
X130634850Y-64813520D01*
X130655893Y-64826132D01*
X130675599Y-64840747D01*
X130693777Y-64857223D01*
X130710253Y-64875401D01*
X130724868Y-64895107D01*
X130737480Y-64916150D01*
X130747970Y-64938329D01*
X130756235Y-64961428D01*
X130762196Y-64985227D01*
X130765796Y-65009495D01*
X130767000Y-65033999D01*
X130767000Y-65934001D01*
X130765796Y-65958505D01*
X130762196Y-65982773D01*
X130756235Y-66006572D01*
X130747970Y-66029671D01*
X130737480Y-66051850D01*
X130724868Y-66072893D01*
X130710253Y-66092599D01*
X130693777Y-66110777D01*
X130675599Y-66127253D01*
X130655893Y-66141868D01*
X130634850Y-66154480D01*
X130612671Y-66164970D01*
X130589572Y-66173235D01*
X130565773Y-66179196D01*
X130541505Y-66182796D01*
X130517001Y-66184000D01*
X129866999Y-66184000D01*
X129842495Y-66182796D01*
X129818227Y-66179196D01*
X129794428Y-66173235D01*
X129771329Y-66164970D01*
X129749150Y-66154480D01*
X129728107Y-66141868D01*
X129708401Y-66127253D01*
X129690223Y-66110777D01*
X129673747Y-66092599D01*
X129659132Y-66072893D01*
X129646520Y-66051850D01*
X129636030Y-66029671D01*
X129627765Y-66006572D01*
X129621804Y-65982773D01*
X129618204Y-65958505D01*
X129617000Y-65934001D01*
X129617000Y-65033999D01*
X129618204Y-65009495D01*
X129621804Y-64985227D01*
X129627765Y-64961428D01*
X129636030Y-64938329D01*
X129646520Y-64916150D01*
X129659132Y-64895107D01*
X129673747Y-64875401D01*
X129690223Y-64857223D01*
X129708401Y-64840747D01*
X129728107Y-64826132D01*
X129749150Y-64813520D01*
X129771329Y-64803030D01*
X129794428Y-64794765D01*
X129818227Y-64788804D01*
X129842495Y-64785204D01*
X129866999Y-64784000D01*
X130517001Y-64784000D01*
X130541505Y-64785204D01*
G37*
G04 #@! TD.AperFunction*
G04 #@! TA.AperFunction,SMDPad,CuDef*
G36*
X128491505Y-64785204D02*
G01*
X128515773Y-64788804D01*
X128539572Y-64794765D01*
X128562671Y-64803030D01*
X128584850Y-64813520D01*
X128605893Y-64826132D01*
X128625599Y-64840747D01*
X128643777Y-64857223D01*
X128660253Y-64875401D01*
X128674868Y-64895107D01*
X128687480Y-64916150D01*
X128697970Y-64938329D01*
X128706235Y-64961428D01*
X128712196Y-64985227D01*
X128715796Y-65009495D01*
X128717000Y-65033999D01*
X128717000Y-65934001D01*
X128715796Y-65958505D01*
X128712196Y-65982773D01*
X128706235Y-66006572D01*
X128697970Y-66029671D01*
X128687480Y-66051850D01*
X128674868Y-66072893D01*
X128660253Y-66092599D01*
X128643777Y-66110777D01*
X128625599Y-66127253D01*
X128605893Y-66141868D01*
X128584850Y-66154480D01*
X128562671Y-66164970D01*
X128539572Y-66173235D01*
X128515773Y-66179196D01*
X128491505Y-66182796D01*
X128467001Y-66184000D01*
X127816999Y-66184000D01*
X127792495Y-66182796D01*
X127768227Y-66179196D01*
X127744428Y-66173235D01*
X127721329Y-66164970D01*
X127699150Y-66154480D01*
X127678107Y-66141868D01*
X127658401Y-66127253D01*
X127640223Y-66110777D01*
X127623747Y-66092599D01*
X127609132Y-66072893D01*
X127596520Y-66051850D01*
X127586030Y-66029671D01*
X127577765Y-66006572D01*
X127571804Y-65982773D01*
X127568204Y-65958505D01*
X127567000Y-65934001D01*
X127567000Y-65033999D01*
X127568204Y-65009495D01*
X127571804Y-64985227D01*
X127577765Y-64961428D01*
X127586030Y-64938329D01*
X127596520Y-64916150D01*
X127609132Y-64895107D01*
X127623747Y-64875401D01*
X127640223Y-64857223D01*
X127658401Y-64840747D01*
X127678107Y-64826132D01*
X127699150Y-64813520D01*
X127721329Y-64803030D01*
X127744428Y-64794765D01*
X127768227Y-64788804D01*
X127792495Y-64785204D01*
X127816999Y-64784000D01*
X128467001Y-64784000D01*
X128491505Y-64785204D01*
G37*
G04 #@! TD.AperFunction*
G04 #@! TA.AperFunction,SMDPad,CuDef*
G36*
X130541505Y-68600204D02*
G01*
X130565773Y-68603804D01*
X130589572Y-68609765D01*
X130612671Y-68618030D01*
X130634850Y-68628520D01*
X130655893Y-68641132D01*
X130675599Y-68655747D01*
X130693777Y-68672223D01*
X130710253Y-68690401D01*
X130724868Y-68710107D01*
X130737480Y-68731150D01*
X130747970Y-68753329D01*
X130756235Y-68776428D01*
X130762196Y-68800227D01*
X130765796Y-68824495D01*
X130767000Y-68848999D01*
X130767000Y-69749001D01*
X130765796Y-69773505D01*
X130762196Y-69797773D01*
X130756235Y-69821572D01*
X130747970Y-69844671D01*
X130737480Y-69866850D01*
X130724868Y-69887893D01*
X130710253Y-69907599D01*
X130693777Y-69925777D01*
X130675599Y-69942253D01*
X130655893Y-69956868D01*
X130634850Y-69969480D01*
X130612671Y-69979970D01*
X130589572Y-69988235D01*
X130565773Y-69994196D01*
X130541505Y-69997796D01*
X130517001Y-69999000D01*
X129866999Y-69999000D01*
X129842495Y-69997796D01*
X129818227Y-69994196D01*
X129794428Y-69988235D01*
X129771329Y-69979970D01*
X129749150Y-69969480D01*
X129728107Y-69956868D01*
X129708401Y-69942253D01*
X129690223Y-69925777D01*
X129673747Y-69907599D01*
X129659132Y-69887893D01*
X129646520Y-69866850D01*
X129636030Y-69844671D01*
X129627765Y-69821572D01*
X129621804Y-69797773D01*
X129618204Y-69773505D01*
X129617000Y-69749001D01*
X129617000Y-68848999D01*
X129618204Y-68824495D01*
X129621804Y-68800227D01*
X129627765Y-68776428D01*
X129636030Y-68753329D01*
X129646520Y-68731150D01*
X129659132Y-68710107D01*
X129673747Y-68690401D01*
X129690223Y-68672223D01*
X129708401Y-68655747D01*
X129728107Y-68641132D01*
X129749150Y-68628520D01*
X129771329Y-68618030D01*
X129794428Y-68609765D01*
X129818227Y-68603804D01*
X129842495Y-68600204D01*
X129866999Y-68599000D01*
X130517001Y-68599000D01*
X130541505Y-68600204D01*
G37*
G04 #@! TD.AperFunction*
G04 #@! TA.AperFunction,SMDPad,CuDef*
G36*
X128491505Y-68600204D02*
G01*
X128515773Y-68603804D01*
X128539572Y-68609765D01*
X128562671Y-68618030D01*
X128584850Y-68628520D01*
X128605893Y-68641132D01*
X128625599Y-68655747D01*
X128643777Y-68672223D01*
X128660253Y-68690401D01*
X128674868Y-68710107D01*
X128687480Y-68731150D01*
X128697970Y-68753329D01*
X128706235Y-68776428D01*
X128712196Y-68800227D01*
X128715796Y-68824495D01*
X128717000Y-68848999D01*
X128717000Y-69749001D01*
X128715796Y-69773505D01*
X128712196Y-69797773D01*
X128706235Y-69821572D01*
X128697970Y-69844671D01*
X128687480Y-69866850D01*
X128674868Y-69887893D01*
X128660253Y-69907599D01*
X128643777Y-69925777D01*
X128625599Y-69942253D01*
X128605893Y-69956868D01*
X128584850Y-69969480D01*
X128562671Y-69979970D01*
X128539572Y-69988235D01*
X128515773Y-69994196D01*
X128491505Y-69997796D01*
X128467001Y-69999000D01*
X127816999Y-69999000D01*
X127792495Y-69997796D01*
X127768227Y-69994196D01*
X127744428Y-69988235D01*
X127721329Y-69979970D01*
X127699150Y-69969480D01*
X127678107Y-69956868D01*
X127658401Y-69942253D01*
X127640223Y-69925777D01*
X127623747Y-69907599D01*
X127609132Y-69887893D01*
X127596520Y-69866850D01*
X127586030Y-69844671D01*
X127577765Y-69821572D01*
X127571804Y-69797773D01*
X127568204Y-69773505D01*
X127567000Y-69749001D01*
X127567000Y-68848999D01*
X127568204Y-68824495D01*
X127571804Y-68800227D01*
X127577765Y-68776428D01*
X127586030Y-68753329D01*
X127596520Y-68731150D01*
X127609132Y-68710107D01*
X127623747Y-68690401D01*
X127640223Y-68672223D01*
X127658401Y-68655747D01*
X127678107Y-68641132D01*
X127699150Y-68628520D01*
X127721329Y-68618030D01*
X127744428Y-68609765D01*
X127768227Y-68603804D01*
X127792495Y-68600204D01*
X127816999Y-68599000D01*
X128467001Y-68599000D01*
X128491505Y-68600204D01*
G37*
G04 #@! TD.AperFunction*
G04 #@! TA.AperFunction,SMDPad,CuDef*
G36*
X130541505Y-72405204D02*
G01*
X130565773Y-72408804D01*
X130589572Y-72414765D01*
X130612671Y-72423030D01*
X130634850Y-72433520D01*
X130655893Y-72446132D01*
X130675599Y-72460747D01*
X130693777Y-72477223D01*
X130710253Y-72495401D01*
X130724868Y-72515107D01*
X130737480Y-72536150D01*
X130747970Y-72558329D01*
X130756235Y-72581428D01*
X130762196Y-72605227D01*
X130765796Y-72629495D01*
X130767000Y-72653999D01*
X130767000Y-73554001D01*
X130765796Y-73578505D01*
X130762196Y-73602773D01*
X130756235Y-73626572D01*
X130747970Y-73649671D01*
X130737480Y-73671850D01*
X130724868Y-73692893D01*
X130710253Y-73712599D01*
X130693777Y-73730777D01*
X130675599Y-73747253D01*
X130655893Y-73761868D01*
X130634850Y-73774480D01*
X130612671Y-73784970D01*
X130589572Y-73793235D01*
X130565773Y-73799196D01*
X130541505Y-73802796D01*
X130517001Y-73804000D01*
X129866999Y-73804000D01*
X129842495Y-73802796D01*
X129818227Y-73799196D01*
X129794428Y-73793235D01*
X129771329Y-73784970D01*
X129749150Y-73774480D01*
X129728107Y-73761868D01*
X129708401Y-73747253D01*
X129690223Y-73730777D01*
X129673747Y-73712599D01*
X129659132Y-73692893D01*
X129646520Y-73671850D01*
X129636030Y-73649671D01*
X129627765Y-73626572D01*
X129621804Y-73602773D01*
X129618204Y-73578505D01*
X129617000Y-73554001D01*
X129617000Y-72653999D01*
X129618204Y-72629495D01*
X129621804Y-72605227D01*
X129627765Y-72581428D01*
X129636030Y-72558329D01*
X129646520Y-72536150D01*
X129659132Y-72515107D01*
X129673747Y-72495401D01*
X129690223Y-72477223D01*
X129708401Y-72460747D01*
X129728107Y-72446132D01*
X129749150Y-72433520D01*
X129771329Y-72423030D01*
X129794428Y-72414765D01*
X129818227Y-72408804D01*
X129842495Y-72405204D01*
X129866999Y-72404000D01*
X130517001Y-72404000D01*
X130541505Y-72405204D01*
G37*
G04 #@! TD.AperFunction*
G04 #@! TA.AperFunction,SMDPad,CuDef*
G36*
X128491505Y-72405204D02*
G01*
X128515773Y-72408804D01*
X128539572Y-72414765D01*
X128562671Y-72423030D01*
X128584850Y-72433520D01*
X128605893Y-72446132D01*
X128625599Y-72460747D01*
X128643777Y-72477223D01*
X128660253Y-72495401D01*
X128674868Y-72515107D01*
X128687480Y-72536150D01*
X128697970Y-72558329D01*
X128706235Y-72581428D01*
X128712196Y-72605227D01*
X128715796Y-72629495D01*
X128717000Y-72653999D01*
X128717000Y-73554001D01*
X128715796Y-73578505D01*
X128712196Y-73602773D01*
X128706235Y-73626572D01*
X128697970Y-73649671D01*
X128687480Y-73671850D01*
X128674868Y-73692893D01*
X128660253Y-73712599D01*
X128643777Y-73730777D01*
X128625599Y-73747253D01*
X128605893Y-73761868D01*
X128584850Y-73774480D01*
X128562671Y-73784970D01*
X128539572Y-73793235D01*
X128515773Y-73799196D01*
X128491505Y-73802796D01*
X128467001Y-73804000D01*
X127816999Y-73804000D01*
X127792495Y-73802796D01*
X127768227Y-73799196D01*
X127744428Y-73793235D01*
X127721329Y-73784970D01*
X127699150Y-73774480D01*
X127678107Y-73761868D01*
X127658401Y-73747253D01*
X127640223Y-73730777D01*
X127623747Y-73712599D01*
X127609132Y-73692893D01*
X127596520Y-73671850D01*
X127586030Y-73649671D01*
X127577765Y-73626572D01*
X127571804Y-73602773D01*
X127568204Y-73578505D01*
X127567000Y-73554001D01*
X127567000Y-72653999D01*
X127568204Y-72629495D01*
X127571804Y-72605227D01*
X127577765Y-72581428D01*
X127586030Y-72558329D01*
X127596520Y-72536150D01*
X127609132Y-72515107D01*
X127623747Y-72495401D01*
X127640223Y-72477223D01*
X127658401Y-72460747D01*
X127678107Y-72446132D01*
X127699150Y-72433520D01*
X127721329Y-72423030D01*
X127744428Y-72414765D01*
X127768227Y-72408804D01*
X127792495Y-72405204D01*
X127816999Y-72404000D01*
X128467001Y-72404000D01*
X128491505Y-72405204D01*
G37*
G04 #@! TD.AperFunction*
G04 #@! TA.AperFunction,SMDPad,CuDef*
G36*
X182951505Y-72405204D02*
G01*
X182975773Y-72408804D01*
X182999572Y-72414765D01*
X183022671Y-72423030D01*
X183044850Y-72433520D01*
X183065893Y-72446132D01*
X183085599Y-72460747D01*
X183103777Y-72477223D01*
X183120253Y-72495401D01*
X183134868Y-72515107D01*
X183147480Y-72536150D01*
X183157970Y-72558329D01*
X183166235Y-72581428D01*
X183172196Y-72605227D01*
X183175796Y-72629495D01*
X183177000Y-72653999D01*
X183177000Y-73554001D01*
X183175796Y-73578505D01*
X183172196Y-73602773D01*
X183166235Y-73626572D01*
X183157970Y-73649671D01*
X183147480Y-73671850D01*
X183134868Y-73692893D01*
X183120253Y-73712599D01*
X183103777Y-73730777D01*
X183085599Y-73747253D01*
X183065893Y-73761868D01*
X183044850Y-73774480D01*
X183022671Y-73784970D01*
X182999572Y-73793235D01*
X182975773Y-73799196D01*
X182951505Y-73802796D01*
X182927001Y-73804000D01*
X182276999Y-73804000D01*
X182252495Y-73802796D01*
X182228227Y-73799196D01*
X182204428Y-73793235D01*
X182181329Y-73784970D01*
X182159150Y-73774480D01*
X182138107Y-73761868D01*
X182118401Y-73747253D01*
X182100223Y-73730777D01*
X182083747Y-73712599D01*
X182069132Y-73692893D01*
X182056520Y-73671850D01*
X182046030Y-73649671D01*
X182037765Y-73626572D01*
X182031804Y-73602773D01*
X182028204Y-73578505D01*
X182027000Y-73554001D01*
X182027000Y-72653999D01*
X182028204Y-72629495D01*
X182031804Y-72605227D01*
X182037765Y-72581428D01*
X182046030Y-72558329D01*
X182056520Y-72536150D01*
X182069132Y-72515107D01*
X182083747Y-72495401D01*
X182100223Y-72477223D01*
X182118401Y-72460747D01*
X182138107Y-72446132D01*
X182159150Y-72433520D01*
X182181329Y-72423030D01*
X182204428Y-72414765D01*
X182228227Y-72408804D01*
X182252495Y-72405204D01*
X182276999Y-72404000D01*
X182927001Y-72404000D01*
X182951505Y-72405204D01*
G37*
G04 #@! TD.AperFunction*
G04 #@! TA.AperFunction,SMDPad,CuDef*
G36*
X185001505Y-72405204D02*
G01*
X185025773Y-72408804D01*
X185049572Y-72414765D01*
X185072671Y-72423030D01*
X185094850Y-72433520D01*
X185115893Y-72446132D01*
X185135599Y-72460747D01*
X185153777Y-72477223D01*
X185170253Y-72495401D01*
X185184868Y-72515107D01*
X185197480Y-72536150D01*
X185207970Y-72558329D01*
X185216235Y-72581428D01*
X185222196Y-72605227D01*
X185225796Y-72629495D01*
X185227000Y-72653999D01*
X185227000Y-73554001D01*
X185225796Y-73578505D01*
X185222196Y-73602773D01*
X185216235Y-73626572D01*
X185207970Y-73649671D01*
X185197480Y-73671850D01*
X185184868Y-73692893D01*
X185170253Y-73712599D01*
X185153777Y-73730777D01*
X185135599Y-73747253D01*
X185115893Y-73761868D01*
X185094850Y-73774480D01*
X185072671Y-73784970D01*
X185049572Y-73793235D01*
X185025773Y-73799196D01*
X185001505Y-73802796D01*
X184977001Y-73804000D01*
X184326999Y-73804000D01*
X184302495Y-73802796D01*
X184278227Y-73799196D01*
X184254428Y-73793235D01*
X184231329Y-73784970D01*
X184209150Y-73774480D01*
X184188107Y-73761868D01*
X184168401Y-73747253D01*
X184150223Y-73730777D01*
X184133747Y-73712599D01*
X184119132Y-73692893D01*
X184106520Y-73671850D01*
X184096030Y-73649671D01*
X184087765Y-73626572D01*
X184081804Y-73602773D01*
X184078204Y-73578505D01*
X184077000Y-73554001D01*
X184077000Y-72653999D01*
X184078204Y-72629495D01*
X184081804Y-72605227D01*
X184087765Y-72581428D01*
X184096030Y-72558329D01*
X184106520Y-72536150D01*
X184119132Y-72515107D01*
X184133747Y-72495401D01*
X184150223Y-72477223D01*
X184168401Y-72460747D01*
X184188107Y-72446132D01*
X184209150Y-72433520D01*
X184231329Y-72423030D01*
X184254428Y-72414765D01*
X184278227Y-72408804D01*
X184302495Y-72405204D01*
X184326999Y-72404000D01*
X184977001Y-72404000D01*
X185001505Y-72405204D01*
G37*
G04 #@! TD.AperFunction*
G04 #@! TA.AperFunction,SMDPad,CuDef*
G36*
X182951505Y-68595204D02*
G01*
X182975773Y-68598804D01*
X182999572Y-68604765D01*
X183022671Y-68613030D01*
X183044850Y-68623520D01*
X183065893Y-68636132D01*
X183085599Y-68650747D01*
X183103777Y-68667223D01*
X183120253Y-68685401D01*
X183134868Y-68705107D01*
X183147480Y-68726150D01*
X183157970Y-68748329D01*
X183166235Y-68771428D01*
X183172196Y-68795227D01*
X183175796Y-68819495D01*
X183177000Y-68843999D01*
X183177000Y-69744001D01*
X183175796Y-69768505D01*
X183172196Y-69792773D01*
X183166235Y-69816572D01*
X183157970Y-69839671D01*
X183147480Y-69861850D01*
X183134868Y-69882893D01*
X183120253Y-69902599D01*
X183103777Y-69920777D01*
X183085599Y-69937253D01*
X183065893Y-69951868D01*
X183044850Y-69964480D01*
X183022671Y-69974970D01*
X182999572Y-69983235D01*
X182975773Y-69989196D01*
X182951505Y-69992796D01*
X182927001Y-69994000D01*
X182276999Y-69994000D01*
X182252495Y-69992796D01*
X182228227Y-69989196D01*
X182204428Y-69983235D01*
X182181329Y-69974970D01*
X182159150Y-69964480D01*
X182138107Y-69951868D01*
X182118401Y-69937253D01*
X182100223Y-69920777D01*
X182083747Y-69902599D01*
X182069132Y-69882893D01*
X182056520Y-69861850D01*
X182046030Y-69839671D01*
X182037765Y-69816572D01*
X182031804Y-69792773D01*
X182028204Y-69768505D01*
X182027000Y-69744001D01*
X182027000Y-68843999D01*
X182028204Y-68819495D01*
X182031804Y-68795227D01*
X182037765Y-68771428D01*
X182046030Y-68748329D01*
X182056520Y-68726150D01*
X182069132Y-68705107D01*
X182083747Y-68685401D01*
X182100223Y-68667223D01*
X182118401Y-68650747D01*
X182138107Y-68636132D01*
X182159150Y-68623520D01*
X182181329Y-68613030D01*
X182204428Y-68604765D01*
X182228227Y-68598804D01*
X182252495Y-68595204D01*
X182276999Y-68594000D01*
X182927001Y-68594000D01*
X182951505Y-68595204D01*
G37*
G04 #@! TD.AperFunction*
G04 #@! TA.AperFunction,SMDPad,CuDef*
G36*
X185001505Y-68595204D02*
G01*
X185025773Y-68598804D01*
X185049572Y-68604765D01*
X185072671Y-68613030D01*
X185094850Y-68623520D01*
X185115893Y-68636132D01*
X185135599Y-68650747D01*
X185153777Y-68667223D01*
X185170253Y-68685401D01*
X185184868Y-68705107D01*
X185197480Y-68726150D01*
X185207970Y-68748329D01*
X185216235Y-68771428D01*
X185222196Y-68795227D01*
X185225796Y-68819495D01*
X185227000Y-68843999D01*
X185227000Y-69744001D01*
X185225796Y-69768505D01*
X185222196Y-69792773D01*
X185216235Y-69816572D01*
X185207970Y-69839671D01*
X185197480Y-69861850D01*
X185184868Y-69882893D01*
X185170253Y-69902599D01*
X185153777Y-69920777D01*
X185135599Y-69937253D01*
X185115893Y-69951868D01*
X185094850Y-69964480D01*
X185072671Y-69974970D01*
X185049572Y-69983235D01*
X185025773Y-69989196D01*
X185001505Y-69992796D01*
X184977001Y-69994000D01*
X184326999Y-69994000D01*
X184302495Y-69992796D01*
X184278227Y-69989196D01*
X184254428Y-69983235D01*
X184231329Y-69974970D01*
X184209150Y-69964480D01*
X184188107Y-69951868D01*
X184168401Y-69937253D01*
X184150223Y-69920777D01*
X184133747Y-69902599D01*
X184119132Y-69882893D01*
X184106520Y-69861850D01*
X184096030Y-69839671D01*
X184087765Y-69816572D01*
X184081804Y-69792773D01*
X184078204Y-69768505D01*
X184077000Y-69744001D01*
X184077000Y-68843999D01*
X184078204Y-68819495D01*
X184081804Y-68795227D01*
X184087765Y-68771428D01*
X184096030Y-68748329D01*
X184106520Y-68726150D01*
X184119132Y-68705107D01*
X184133747Y-68685401D01*
X184150223Y-68667223D01*
X184168401Y-68650747D01*
X184188107Y-68636132D01*
X184209150Y-68623520D01*
X184231329Y-68613030D01*
X184254428Y-68604765D01*
X184278227Y-68598804D01*
X184302495Y-68595204D01*
X184326999Y-68594000D01*
X184977001Y-68594000D01*
X185001505Y-68595204D01*
G37*
G04 #@! TD.AperFunction*
G04 #@! TA.AperFunction,SMDPad,CuDef*
G36*
X182951505Y-64785204D02*
G01*
X182975773Y-64788804D01*
X182999572Y-64794765D01*
X183022671Y-64803030D01*
X183044850Y-64813520D01*
X183065893Y-64826132D01*
X183085599Y-64840747D01*
X183103777Y-64857223D01*
X183120253Y-64875401D01*
X183134868Y-64895107D01*
X183147480Y-64916150D01*
X183157970Y-64938329D01*
X183166235Y-64961428D01*
X183172196Y-64985227D01*
X183175796Y-65009495D01*
X183177000Y-65033999D01*
X183177000Y-65934001D01*
X183175796Y-65958505D01*
X183172196Y-65982773D01*
X183166235Y-66006572D01*
X183157970Y-66029671D01*
X183147480Y-66051850D01*
X183134868Y-66072893D01*
X183120253Y-66092599D01*
X183103777Y-66110777D01*
X183085599Y-66127253D01*
X183065893Y-66141868D01*
X183044850Y-66154480D01*
X183022671Y-66164970D01*
X182999572Y-66173235D01*
X182975773Y-66179196D01*
X182951505Y-66182796D01*
X182927001Y-66184000D01*
X182276999Y-66184000D01*
X182252495Y-66182796D01*
X182228227Y-66179196D01*
X182204428Y-66173235D01*
X182181329Y-66164970D01*
X182159150Y-66154480D01*
X182138107Y-66141868D01*
X182118401Y-66127253D01*
X182100223Y-66110777D01*
X182083747Y-66092599D01*
X182069132Y-66072893D01*
X182056520Y-66051850D01*
X182046030Y-66029671D01*
X182037765Y-66006572D01*
X182031804Y-65982773D01*
X182028204Y-65958505D01*
X182027000Y-65934001D01*
X182027000Y-65033999D01*
X182028204Y-65009495D01*
X182031804Y-64985227D01*
X182037765Y-64961428D01*
X182046030Y-64938329D01*
X182056520Y-64916150D01*
X182069132Y-64895107D01*
X182083747Y-64875401D01*
X182100223Y-64857223D01*
X182118401Y-64840747D01*
X182138107Y-64826132D01*
X182159150Y-64813520D01*
X182181329Y-64803030D01*
X182204428Y-64794765D01*
X182228227Y-64788804D01*
X182252495Y-64785204D01*
X182276999Y-64784000D01*
X182927001Y-64784000D01*
X182951505Y-64785204D01*
G37*
G04 #@! TD.AperFunction*
G04 #@! TA.AperFunction,SMDPad,CuDef*
G36*
X185001505Y-64785204D02*
G01*
X185025773Y-64788804D01*
X185049572Y-64794765D01*
X185072671Y-64803030D01*
X185094850Y-64813520D01*
X185115893Y-64826132D01*
X185135599Y-64840747D01*
X185153777Y-64857223D01*
X185170253Y-64875401D01*
X185184868Y-64895107D01*
X185197480Y-64916150D01*
X185207970Y-64938329D01*
X185216235Y-64961428D01*
X185222196Y-64985227D01*
X185225796Y-65009495D01*
X185227000Y-65033999D01*
X185227000Y-65934001D01*
X185225796Y-65958505D01*
X185222196Y-65982773D01*
X185216235Y-66006572D01*
X185207970Y-66029671D01*
X185197480Y-66051850D01*
X185184868Y-66072893D01*
X185170253Y-66092599D01*
X185153777Y-66110777D01*
X185135599Y-66127253D01*
X185115893Y-66141868D01*
X185094850Y-66154480D01*
X185072671Y-66164970D01*
X185049572Y-66173235D01*
X185025773Y-66179196D01*
X185001505Y-66182796D01*
X184977001Y-66184000D01*
X184326999Y-66184000D01*
X184302495Y-66182796D01*
X184278227Y-66179196D01*
X184254428Y-66173235D01*
X184231329Y-66164970D01*
X184209150Y-66154480D01*
X184188107Y-66141868D01*
X184168401Y-66127253D01*
X184150223Y-66110777D01*
X184133747Y-66092599D01*
X184119132Y-66072893D01*
X184106520Y-66051850D01*
X184096030Y-66029671D01*
X184087765Y-66006572D01*
X184081804Y-65982773D01*
X184078204Y-65958505D01*
X184077000Y-65934001D01*
X184077000Y-65033999D01*
X184078204Y-65009495D01*
X184081804Y-64985227D01*
X184087765Y-64961428D01*
X184096030Y-64938329D01*
X184106520Y-64916150D01*
X184119132Y-64895107D01*
X184133747Y-64875401D01*
X184150223Y-64857223D01*
X184168401Y-64840747D01*
X184188107Y-64826132D01*
X184209150Y-64813520D01*
X184231329Y-64803030D01*
X184254428Y-64794765D01*
X184278227Y-64788804D01*
X184302495Y-64785204D01*
X184326999Y-64784000D01*
X184977001Y-64784000D01*
X185001505Y-64785204D01*
G37*
G04 #@! TD.AperFunction*
G04 #@! TA.AperFunction,SMDPad,CuDef*
G36*
X134911505Y-64785204D02*
G01*
X134935773Y-64788804D01*
X134959572Y-64794765D01*
X134982671Y-64803030D01*
X135004850Y-64813520D01*
X135025893Y-64826132D01*
X135045599Y-64840747D01*
X135063777Y-64857223D01*
X135080253Y-64875401D01*
X135094868Y-64895107D01*
X135107480Y-64916150D01*
X135117970Y-64938329D01*
X135126235Y-64961428D01*
X135132196Y-64985227D01*
X135135796Y-65009495D01*
X135137000Y-65033999D01*
X135137000Y-65934001D01*
X135135796Y-65958505D01*
X135132196Y-65982773D01*
X135126235Y-66006572D01*
X135117970Y-66029671D01*
X135107480Y-66051850D01*
X135094868Y-66072893D01*
X135080253Y-66092599D01*
X135063777Y-66110777D01*
X135045599Y-66127253D01*
X135025893Y-66141868D01*
X135004850Y-66154480D01*
X134982671Y-66164970D01*
X134959572Y-66173235D01*
X134935773Y-66179196D01*
X134911505Y-66182796D01*
X134887001Y-66184000D01*
X134236999Y-66184000D01*
X134212495Y-66182796D01*
X134188227Y-66179196D01*
X134164428Y-66173235D01*
X134141329Y-66164970D01*
X134119150Y-66154480D01*
X134098107Y-66141868D01*
X134078401Y-66127253D01*
X134060223Y-66110777D01*
X134043747Y-66092599D01*
X134029132Y-66072893D01*
X134016520Y-66051850D01*
X134006030Y-66029671D01*
X133997765Y-66006572D01*
X133991804Y-65982773D01*
X133988204Y-65958505D01*
X133987000Y-65934001D01*
X133987000Y-65033999D01*
X133988204Y-65009495D01*
X133991804Y-64985227D01*
X133997765Y-64961428D01*
X134006030Y-64938329D01*
X134016520Y-64916150D01*
X134029132Y-64895107D01*
X134043747Y-64875401D01*
X134060223Y-64857223D01*
X134078401Y-64840747D01*
X134098107Y-64826132D01*
X134119150Y-64813520D01*
X134141329Y-64803030D01*
X134164428Y-64794765D01*
X134188227Y-64788804D01*
X134212495Y-64785204D01*
X134236999Y-64784000D01*
X134887001Y-64784000D01*
X134911505Y-64785204D01*
G37*
G04 #@! TD.AperFunction*
G04 #@! TA.AperFunction,SMDPad,CuDef*
G36*
X132861505Y-64785204D02*
G01*
X132885773Y-64788804D01*
X132909572Y-64794765D01*
X132932671Y-64803030D01*
X132954850Y-64813520D01*
X132975893Y-64826132D01*
X132995599Y-64840747D01*
X133013777Y-64857223D01*
X133030253Y-64875401D01*
X133044868Y-64895107D01*
X133057480Y-64916150D01*
X133067970Y-64938329D01*
X133076235Y-64961428D01*
X133082196Y-64985227D01*
X133085796Y-65009495D01*
X133087000Y-65033999D01*
X133087000Y-65934001D01*
X133085796Y-65958505D01*
X133082196Y-65982773D01*
X133076235Y-66006572D01*
X133067970Y-66029671D01*
X133057480Y-66051850D01*
X133044868Y-66072893D01*
X133030253Y-66092599D01*
X133013777Y-66110777D01*
X132995599Y-66127253D01*
X132975893Y-66141868D01*
X132954850Y-66154480D01*
X132932671Y-66164970D01*
X132909572Y-66173235D01*
X132885773Y-66179196D01*
X132861505Y-66182796D01*
X132837001Y-66184000D01*
X132186999Y-66184000D01*
X132162495Y-66182796D01*
X132138227Y-66179196D01*
X132114428Y-66173235D01*
X132091329Y-66164970D01*
X132069150Y-66154480D01*
X132048107Y-66141868D01*
X132028401Y-66127253D01*
X132010223Y-66110777D01*
X131993747Y-66092599D01*
X131979132Y-66072893D01*
X131966520Y-66051850D01*
X131956030Y-66029671D01*
X131947765Y-66006572D01*
X131941804Y-65982773D01*
X131938204Y-65958505D01*
X131937000Y-65934001D01*
X131937000Y-65033999D01*
X131938204Y-65009495D01*
X131941804Y-64985227D01*
X131947765Y-64961428D01*
X131956030Y-64938329D01*
X131966520Y-64916150D01*
X131979132Y-64895107D01*
X131993747Y-64875401D01*
X132010223Y-64857223D01*
X132028401Y-64840747D01*
X132048107Y-64826132D01*
X132069150Y-64813520D01*
X132091329Y-64803030D01*
X132114428Y-64794765D01*
X132138227Y-64788804D01*
X132162495Y-64785204D01*
X132186999Y-64784000D01*
X132837001Y-64784000D01*
X132861505Y-64785204D01*
G37*
G04 #@! TD.AperFunction*
G04 #@! TA.AperFunction,SMDPad,CuDef*
G36*
X134911505Y-68600204D02*
G01*
X134935773Y-68603804D01*
X134959572Y-68609765D01*
X134982671Y-68618030D01*
X135004850Y-68628520D01*
X135025893Y-68641132D01*
X135045599Y-68655747D01*
X135063777Y-68672223D01*
X135080253Y-68690401D01*
X135094868Y-68710107D01*
X135107480Y-68731150D01*
X135117970Y-68753329D01*
X135126235Y-68776428D01*
X135132196Y-68800227D01*
X135135796Y-68824495D01*
X135137000Y-68848999D01*
X135137000Y-69749001D01*
X135135796Y-69773505D01*
X135132196Y-69797773D01*
X135126235Y-69821572D01*
X135117970Y-69844671D01*
X135107480Y-69866850D01*
X135094868Y-69887893D01*
X135080253Y-69907599D01*
X135063777Y-69925777D01*
X135045599Y-69942253D01*
X135025893Y-69956868D01*
X135004850Y-69969480D01*
X134982671Y-69979970D01*
X134959572Y-69988235D01*
X134935773Y-69994196D01*
X134911505Y-69997796D01*
X134887001Y-69999000D01*
X134236999Y-69999000D01*
X134212495Y-69997796D01*
X134188227Y-69994196D01*
X134164428Y-69988235D01*
X134141329Y-69979970D01*
X134119150Y-69969480D01*
X134098107Y-69956868D01*
X134078401Y-69942253D01*
X134060223Y-69925777D01*
X134043747Y-69907599D01*
X134029132Y-69887893D01*
X134016520Y-69866850D01*
X134006030Y-69844671D01*
X133997765Y-69821572D01*
X133991804Y-69797773D01*
X133988204Y-69773505D01*
X133987000Y-69749001D01*
X133987000Y-68848999D01*
X133988204Y-68824495D01*
X133991804Y-68800227D01*
X133997765Y-68776428D01*
X134006030Y-68753329D01*
X134016520Y-68731150D01*
X134029132Y-68710107D01*
X134043747Y-68690401D01*
X134060223Y-68672223D01*
X134078401Y-68655747D01*
X134098107Y-68641132D01*
X134119150Y-68628520D01*
X134141329Y-68618030D01*
X134164428Y-68609765D01*
X134188227Y-68603804D01*
X134212495Y-68600204D01*
X134236999Y-68599000D01*
X134887001Y-68599000D01*
X134911505Y-68600204D01*
G37*
G04 #@! TD.AperFunction*
G04 #@! TA.AperFunction,SMDPad,CuDef*
G36*
X132861505Y-68600204D02*
G01*
X132885773Y-68603804D01*
X132909572Y-68609765D01*
X132932671Y-68618030D01*
X132954850Y-68628520D01*
X132975893Y-68641132D01*
X132995599Y-68655747D01*
X133013777Y-68672223D01*
X133030253Y-68690401D01*
X133044868Y-68710107D01*
X133057480Y-68731150D01*
X133067970Y-68753329D01*
X133076235Y-68776428D01*
X133082196Y-68800227D01*
X133085796Y-68824495D01*
X133087000Y-68848999D01*
X133087000Y-69749001D01*
X133085796Y-69773505D01*
X133082196Y-69797773D01*
X133076235Y-69821572D01*
X133067970Y-69844671D01*
X133057480Y-69866850D01*
X133044868Y-69887893D01*
X133030253Y-69907599D01*
X133013777Y-69925777D01*
X132995599Y-69942253D01*
X132975893Y-69956868D01*
X132954850Y-69969480D01*
X132932671Y-69979970D01*
X132909572Y-69988235D01*
X132885773Y-69994196D01*
X132861505Y-69997796D01*
X132837001Y-69999000D01*
X132186999Y-69999000D01*
X132162495Y-69997796D01*
X132138227Y-69994196D01*
X132114428Y-69988235D01*
X132091329Y-69979970D01*
X132069150Y-69969480D01*
X132048107Y-69956868D01*
X132028401Y-69942253D01*
X132010223Y-69925777D01*
X131993747Y-69907599D01*
X131979132Y-69887893D01*
X131966520Y-69866850D01*
X131956030Y-69844671D01*
X131947765Y-69821572D01*
X131941804Y-69797773D01*
X131938204Y-69773505D01*
X131937000Y-69749001D01*
X131937000Y-68848999D01*
X131938204Y-68824495D01*
X131941804Y-68800227D01*
X131947765Y-68776428D01*
X131956030Y-68753329D01*
X131966520Y-68731150D01*
X131979132Y-68710107D01*
X131993747Y-68690401D01*
X132010223Y-68672223D01*
X132028401Y-68655747D01*
X132048107Y-68641132D01*
X132069150Y-68628520D01*
X132091329Y-68618030D01*
X132114428Y-68609765D01*
X132138227Y-68603804D01*
X132162495Y-68600204D01*
X132186999Y-68599000D01*
X132837001Y-68599000D01*
X132861505Y-68600204D01*
G37*
G04 #@! TD.AperFunction*
G04 #@! TA.AperFunction,SMDPad,CuDef*
G36*
X134911505Y-72405204D02*
G01*
X134935773Y-72408804D01*
X134959572Y-72414765D01*
X134982671Y-72423030D01*
X135004850Y-72433520D01*
X135025893Y-72446132D01*
X135045599Y-72460747D01*
X135063777Y-72477223D01*
X135080253Y-72495401D01*
X135094868Y-72515107D01*
X135107480Y-72536150D01*
X135117970Y-72558329D01*
X135126235Y-72581428D01*
X135132196Y-72605227D01*
X135135796Y-72629495D01*
X135137000Y-72653999D01*
X135137000Y-73554001D01*
X135135796Y-73578505D01*
X135132196Y-73602773D01*
X135126235Y-73626572D01*
X135117970Y-73649671D01*
X135107480Y-73671850D01*
X135094868Y-73692893D01*
X135080253Y-73712599D01*
X135063777Y-73730777D01*
X135045599Y-73747253D01*
X135025893Y-73761868D01*
X135004850Y-73774480D01*
X134982671Y-73784970D01*
X134959572Y-73793235D01*
X134935773Y-73799196D01*
X134911505Y-73802796D01*
X134887001Y-73804000D01*
X134236999Y-73804000D01*
X134212495Y-73802796D01*
X134188227Y-73799196D01*
X134164428Y-73793235D01*
X134141329Y-73784970D01*
X134119150Y-73774480D01*
X134098107Y-73761868D01*
X134078401Y-73747253D01*
X134060223Y-73730777D01*
X134043747Y-73712599D01*
X134029132Y-73692893D01*
X134016520Y-73671850D01*
X134006030Y-73649671D01*
X133997765Y-73626572D01*
X133991804Y-73602773D01*
X133988204Y-73578505D01*
X133987000Y-73554001D01*
X133987000Y-72653999D01*
X133988204Y-72629495D01*
X133991804Y-72605227D01*
X133997765Y-72581428D01*
X134006030Y-72558329D01*
X134016520Y-72536150D01*
X134029132Y-72515107D01*
X134043747Y-72495401D01*
X134060223Y-72477223D01*
X134078401Y-72460747D01*
X134098107Y-72446132D01*
X134119150Y-72433520D01*
X134141329Y-72423030D01*
X134164428Y-72414765D01*
X134188227Y-72408804D01*
X134212495Y-72405204D01*
X134236999Y-72404000D01*
X134887001Y-72404000D01*
X134911505Y-72405204D01*
G37*
G04 #@! TD.AperFunction*
G04 #@! TA.AperFunction,SMDPad,CuDef*
G36*
X132861505Y-72405204D02*
G01*
X132885773Y-72408804D01*
X132909572Y-72414765D01*
X132932671Y-72423030D01*
X132954850Y-72433520D01*
X132975893Y-72446132D01*
X132995599Y-72460747D01*
X133013777Y-72477223D01*
X133030253Y-72495401D01*
X133044868Y-72515107D01*
X133057480Y-72536150D01*
X133067970Y-72558329D01*
X133076235Y-72581428D01*
X133082196Y-72605227D01*
X133085796Y-72629495D01*
X133087000Y-72653999D01*
X133087000Y-73554001D01*
X133085796Y-73578505D01*
X133082196Y-73602773D01*
X133076235Y-73626572D01*
X133067970Y-73649671D01*
X133057480Y-73671850D01*
X133044868Y-73692893D01*
X133030253Y-73712599D01*
X133013777Y-73730777D01*
X132995599Y-73747253D01*
X132975893Y-73761868D01*
X132954850Y-73774480D01*
X132932671Y-73784970D01*
X132909572Y-73793235D01*
X132885773Y-73799196D01*
X132861505Y-73802796D01*
X132837001Y-73804000D01*
X132186999Y-73804000D01*
X132162495Y-73802796D01*
X132138227Y-73799196D01*
X132114428Y-73793235D01*
X132091329Y-73784970D01*
X132069150Y-73774480D01*
X132048107Y-73761868D01*
X132028401Y-73747253D01*
X132010223Y-73730777D01*
X131993747Y-73712599D01*
X131979132Y-73692893D01*
X131966520Y-73671850D01*
X131956030Y-73649671D01*
X131947765Y-73626572D01*
X131941804Y-73602773D01*
X131938204Y-73578505D01*
X131937000Y-73554001D01*
X131937000Y-72653999D01*
X131938204Y-72629495D01*
X131941804Y-72605227D01*
X131947765Y-72581428D01*
X131956030Y-72558329D01*
X131966520Y-72536150D01*
X131979132Y-72515107D01*
X131993747Y-72495401D01*
X132010223Y-72477223D01*
X132028401Y-72460747D01*
X132048107Y-72446132D01*
X132069150Y-72433520D01*
X132091329Y-72423030D01*
X132114428Y-72414765D01*
X132138227Y-72408804D01*
X132162495Y-72405204D01*
X132186999Y-72404000D01*
X132837001Y-72404000D01*
X132861505Y-72405204D01*
G37*
G04 #@! TD.AperFunction*
G04 #@! TA.AperFunction,SMDPad,CuDef*
G36*
X178581505Y-72405204D02*
G01*
X178605773Y-72408804D01*
X178629572Y-72414765D01*
X178652671Y-72423030D01*
X178674850Y-72433520D01*
X178695893Y-72446132D01*
X178715599Y-72460747D01*
X178733777Y-72477223D01*
X178750253Y-72495401D01*
X178764868Y-72515107D01*
X178777480Y-72536150D01*
X178787970Y-72558329D01*
X178796235Y-72581428D01*
X178802196Y-72605227D01*
X178805796Y-72629495D01*
X178807000Y-72653999D01*
X178807000Y-73554001D01*
X178805796Y-73578505D01*
X178802196Y-73602773D01*
X178796235Y-73626572D01*
X178787970Y-73649671D01*
X178777480Y-73671850D01*
X178764868Y-73692893D01*
X178750253Y-73712599D01*
X178733777Y-73730777D01*
X178715599Y-73747253D01*
X178695893Y-73761868D01*
X178674850Y-73774480D01*
X178652671Y-73784970D01*
X178629572Y-73793235D01*
X178605773Y-73799196D01*
X178581505Y-73802796D01*
X178557001Y-73804000D01*
X177906999Y-73804000D01*
X177882495Y-73802796D01*
X177858227Y-73799196D01*
X177834428Y-73793235D01*
X177811329Y-73784970D01*
X177789150Y-73774480D01*
X177768107Y-73761868D01*
X177748401Y-73747253D01*
X177730223Y-73730777D01*
X177713747Y-73712599D01*
X177699132Y-73692893D01*
X177686520Y-73671850D01*
X177676030Y-73649671D01*
X177667765Y-73626572D01*
X177661804Y-73602773D01*
X177658204Y-73578505D01*
X177657000Y-73554001D01*
X177657000Y-72653999D01*
X177658204Y-72629495D01*
X177661804Y-72605227D01*
X177667765Y-72581428D01*
X177676030Y-72558329D01*
X177686520Y-72536150D01*
X177699132Y-72515107D01*
X177713747Y-72495401D01*
X177730223Y-72477223D01*
X177748401Y-72460747D01*
X177768107Y-72446132D01*
X177789150Y-72433520D01*
X177811329Y-72423030D01*
X177834428Y-72414765D01*
X177858227Y-72408804D01*
X177882495Y-72405204D01*
X177906999Y-72404000D01*
X178557001Y-72404000D01*
X178581505Y-72405204D01*
G37*
G04 #@! TD.AperFunction*
G04 #@! TA.AperFunction,SMDPad,CuDef*
G36*
X180631505Y-72405204D02*
G01*
X180655773Y-72408804D01*
X180679572Y-72414765D01*
X180702671Y-72423030D01*
X180724850Y-72433520D01*
X180745893Y-72446132D01*
X180765599Y-72460747D01*
X180783777Y-72477223D01*
X180800253Y-72495401D01*
X180814868Y-72515107D01*
X180827480Y-72536150D01*
X180837970Y-72558329D01*
X180846235Y-72581428D01*
X180852196Y-72605227D01*
X180855796Y-72629495D01*
X180857000Y-72653999D01*
X180857000Y-73554001D01*
X180855796Y-73578505D01*
X180852196Y-73602773D01*
X180846235Y-73626572D01*
X180837970Y-73649671D01*
X180827480Y-73671850D01*
X180814868Y-73692893D01*
X180800253Y-73712599D01*
X180783777Y-73730777D01*
X180765599Y-73747253D01*
X180745893Y-73761868D01*
X180724850Y-73774480D01*
X180702671Y-73784970D01*
X180679572Y-73793235D01*
X180655773Y-73799196D01*
X180631505Y-73802796D01*
X180607001Y-73804000D01*
X179956999Y-73804000D01*
X179932495Y-73802796D01*
X179908227Y-73799196D01*
X179884428Y-73793235D01*
X179861329Y-73784970D01*
X179839150Y-73774480D01*
X179818107Y-73761868D01*
X179798401Y-73747253D01*
X179780223Y-73730777D01*
X179763747Y-73712599D01*
X179749132Y-73692893D01*
X179736520Y-73671850D01*
X179726030Y-73649671D01*
X179717765Y-73626572D01*
X179711804Y-73602773D01*
X179708204Y-73578505D01*
X179707000Y-73554001D01*
X179707000Y-72653999D01*
X179708204Y-72629495D01*
X179711804Y-72605227D01*
X179717765Y-72581428D01*
X179726030Y-72558329D01*
X179736520Y-72536150D01*
X179749132Y-72515107D01*
X179763747Y-72495401D01*
X179780223Y-72477223D01*
X179798401Y-72460747D01*
X179818107Y-72446132D01*
X179839150Y-72433520D01*
X179861329Y-72423030D01*
X179884428Y-72414765D01*
X179908227Y-72408804D01*
X179932495Y-72405204D01*
X179956999Y-72404000D01*
X180607001Y-72404000D01*
X180631505Y-72405204D01*
G37*
G04 #@! TD.AperFunction*
G04 #@! TA.AperFunction,SMDPad,CuDef*
G36*
X178581505Y-68595204D02*
G01*
X178605773Y-68598804D01*
X178629572Y-68604765D01*
X178652671Y-68613030D01*
X178674850Y-68623520D01*
X178695893Y-68636132D01*
X178715599Y-68650747D01*
X178733777Y-68667223D01*
X178750253Y-68685401D01*
X178764868Y-68705107D01*
X178777480Y-68726150D01*
X178787970Y-68748329D01*
X178796235Y-68771428D01*
X178802196Y-68795227D01*
X178805796Y-68819495D01*
X178807000Y-68843999D01*
X178807000Y-69744001D01*
X178805796Y-69768505D01*
X178802196Y-69792773D01*
X178796235Y-69816572D01*
X178787970Y-69839671D01*
X178777480Y-69861850D01*
X178764868Y-69882893D01*
X178750253Y-69902599D01*
X178733777Y-69920777D01*
X178715599Y-69937253D01*
X178695893Y-69951868D01*
X178674850Y-69964480D01*
X178652671Y-69974970D01*
X178629572Y-69983235D01*
X178605773Y-69989196D01*
X178581505Y-69992796D01*
X178557001Y-69994000D01*
X177906999Y-69994000D01*
X177882495Y-69992796D01*
X177858227Y-69989196D01*
X177834428Y-69983235D01*
X177811329Y-69974970D01*
X177789150Y-69964480D01*
X177768107Y-69951868D01*
X177748401Y-69937253D01*
X177730223Y-69920777D01*
X177713747Y-69902599D01*
X177699132Y-69882893D01*
X177686520Y-69861850D01*
X177676030Y-69839671D01*
X177667765Y-69816572D01*
X177661804Y-69792773D01*
X177658204Y-69768505D01*
X177657000Y-69744001D01*
X177657000Y-68843999D01*
X177658204Y-68819495D01*
X177661804Y-68795227D01*
X177667765Y-68771428D01*
X177676030Y-68748329D01*
X177686520Y-68726150D01*
X177699132Y-68705107D01*
X177713747Y-68685401D01*
X177730223Y-68667223D01*
X177748401Y-68650747D01*
X177768107Y-68636132D01*
X177789150Y-68623520D01*
X177811329Y-68613030D01*
X177834428Y-68604765D01*
X177858227Y-68598804D01*
X177882495Y-68595204D01*
X177906999Y-68594000D01*
X178557001Y-68594000D01*
X178581505Y-68595204D01*
G37*
G04 #@! TD.AperFunction*
G04 #@! TA.AperFunction,SMDPad,CuDef*
G36*
X180631505Y-68595204D02*
G01*
X180655773Y-68598804D01*
X180679572Y-68604765D01*
X180702671Y-68613030D01*
X180724850Y-68623520D01*
X180745893Y-68636132D01*
X180765599Y-68650747D01*
X180783777Y-68667223D01*
X180800253Y-68685401D01*
X180814868Y-68705107D01*
X180827480Y-68726150D01*
X180837970Y-68748329D01*
X180846235Y-68771428D01*
X180852196Y-68795227D01*
X180855796Y-68819495D01*
X180857000Y-68843999D01*
X180857000Y-69744001D01*
X180855796Y-69768505D01*
X180852196Y-69792773D01*
X180846235Y-69816572D01*
X180837970Y-69839671D01*
X180827480Y-69861850D01*
X180814868Y-69882893D01*
X180800253Y-69902599D01*
X180783777Y-69920777D01*
X180765599Y-69937253D01*
X180745893Y-69951868D01*
X180724850Y-69964480D01*
X180702671Y-69974970D01*
X180679572Y-69983235D01*
X180655773Y-69989196D01*
X180631505Y-69992796D01*
X180607001Y-69994000D01*
X179956999Y-69994000D01*
X179932495Y-69992796D01*
X179908227Y-69989196D01*
X179884428Y-69983235D01*
X179861329Y-69974970D01*
X179839150Y-69964480D01*
X179818107Y-69951868D01*
X179798401Y-69937253D01*
X179780223Y-69920777D01*
X179763747Y-69902599D01*
X179749132Y-69882893D01*
X179736520Y-69861850D01*
X179726030Y-69839671D01*
X179717765Y-69816572D01*
X179711804Y-69792773D01*
X179708204Y-69768505D01*
X179707000Y-69744001D01*
X179707000Y-68843999D01*
X179708204Y-68819495D01*
X179711804Y-68795227D01*
X179717765Y-68771428D01*
X179726030Y-68748329D01*
X179736520Y-68726150D01*
X179749132Y-68705107D01*
X179763747Y-68685401D01*
X179780223Y-68667223D01*
X179798401Y-68650747D01*
X179818107Y-68636132D01*
X179839150Y-68623520D01*
X179861329Y-68613030D01*
X179884428Y-68604765D01*
X179908227Y-68598804D01*
X179932495Y-68595204D01*
X179956999Y-68594000D01*
X180607001Y-68594000D01*
X180631505Y-68595204D01*
G37*
G04 #@! TD.AperFunction*
G04 #@! TA.AperFunction,SMDPad,CuDef*
G36*
X178581505Y-64785204D02*
G01*
X178605773Y-64788804D01*
X178629572Y-64794765D01*
X178652671Y-64803030D01*
X178674850Y-64813520D01*
X178695893Y-64826132D01*
X178715599Y-64840747D01*
X178733777Y-64857223D01*
X178750253Y-64875401D01*
X178764868Y-64895107D01*
X178777480Y-64916150D01*
X178787970Y-64938329D01*
X178796235Y-64961428D01*
X178802196Y-64985227D01*
X178805796Y-65009495D01*
X178807000Y-65033999D01*
X178807000Y-65934001D01*
X178805796Y-65958505D01*
X178802196Y-65982773D01*
X178796235Y-66006572D01*
X178787970Y-66029671D01*
X178777480Y-66051850D01*
X178764868Y-66072893D01*
X178750253Y-66092599D01*
X178733777Y-66110777D01*
X178715599Y-66127253D01*
X178695893Y-66141868D01*
X178674850Y-66154480D01*
X178652671Y-66164970D01*
X178629572Y-66173235D01*
X178605773Y-66179196D01*
X178581505Y-66182796D01*
X178557001Y-66184000D01*
X177906999Y-66184000D01*
X177882495Y-66182796D01*
X177858227Y-66179196D01*
X177834428Y-66173235D01*
X177811329Y-66164970D01*
X177789150Y-66154480D01*
X177768107Y-66141868D01*
X177748401Y-66127253D01*
X177730223Y-66110777D01*
X177713747Y-66092599D01*
X177699132Y-66072893D01*
X177686520Y-66051850D01*
X177676030Y-66029671D01*
X177667765Y-66006572D01*
X177661804Y-65982773D01*
X177658204Y-65958505D01*
X177657000Y-65934001D01*
X177657000Y-65033999D01*
X177658204Y-65009495D01*
X177661804Y-64985227D01*
X177667765Y-64961428D01*
X177676030Y-64938329D01*
X177686520Y-64916150D01*
X177699132Y-64895107D01*
X177713747Y-64875401D01*
X177730223Y-64857223D01*
X177748401Y-64840747D01*
X177768107Y-64826132D01*
X177789150Y-64813520D01*
X177811329Y-64803030D01*
X177834428Y-64794765D01*
X177858227Y-64788804D01*
X177882495Y-64785204D01*
X177906999Y-64784000D01*
X178557001Y-64784000D01*
X178581505Y-64785204D01*
G37*
G04 #@! TD.AperFunction*
G04 #@! TA.AperFunction,SMDPad,CuDef*
G36*
X180631505Y-64785204D02*
G01*
X180655773Y-64788804D01*
X180679572Y-64794765D01*
X180702671Y-64803030D01*
X180724850Y-64813520D01*
X180745893Y-64826132D01*
X180765599Y-64840747D01*
X180783777Y-64857223D01*
X180800253Y-64875401D01*
X180814868Y-64895107D01*
X180827480Y-64916150D01*
X180837970Y-64938329D01*
X180846235Y-64961428D01*
X180852196Y-64985227D01*
X180855796Y-65009495D01*
X180857000Y-65033999D01*
X180857000Y-65934001D01*
X180855796Y-65958505D01*
X180852196Y-65982773D01*
X180846235Y-66006572D01*
X180837970Y-66029671D01*
X180827480Y-66051850D01*
X180814868Y-66072893D01*
X180800253Y-66092599D01*
X180783777Y-66110777D01*
X180765599Y-66127253D01*
X180745893Y-66141868D01*
X180724850Y-66154480D01*
X180702671Y-66164970D01*
X180679572Y-66173235D01*
X180655773Y-66179196D01*
X180631505Y-66182796D01*
X180607001Y-66184000D01*
X179956999Y-66184000D01*
X179932495Y-66182796D01*
X179908227Y-66179196D01*
X179884428Y-66173235D01*
X179861329Y-66164970D01*
X179839150Y-66154480D01*
X179818107Y-66141868D01*
X179798401Y-66127253D01*
X179780223Y-66110777D01*
X179763747Y-66092599D01*
X179749132Y-66072893D01*
X179736520Y-66051850D01*
X179726030Y-66029671D01*
X179717765Y-66006572D01*
X179711804Y-65982773D01*
X179708204Y-65958505D01*
X179707000Y-65934001D01*
X179707000Y-65033999D01*
X179708204Y-65009495D01*
X179711804Y-64985227D01*
X179717765Y-64961428D01*
X179726030Y-64938329D01*
X179736520Y-64916150D01*
X179749132Y-64895107D01*
X179763747Y-64875401D01*
X179780223Y-64857223D01*
X179798401Y-64840747D01*
X179818107Y-64826132D01*
X179839150Y-64813520D01*
X179861329Y-64803030D01*
X179884428Y-64794765D01*
X179908227Y-64788804D01*
X179932495Y-64785204D01*
X179956999Y-64784000D01*
X180607001Y-64784000D01*
X180631505Y-64785204D01*
G37*
G04 #@! TD.AperFunction*
G04 #@! TA.AperFunction,SMDPad,CuDef*
G36*
X155519505Y-56657204D02*
G01*
X155543773Y-56660804D01*
X155567572Y-56666765D01*
X155590671Y-56675030D01*
X155612850Y-56685520D01*
X155633893Y-56698132D01*
X155653599Y-56712747D01*
X155671777Y-56729223D01*
X155688253Y-56747401D01*
X155702868Y-56767107D01*
X155715480Y-56788150D01*
X155725970Y-56810329D01*
X155734235Y-56833428D01*
X155740196Y-56857227D01*
X155743796Y-56881495D01*
X155745000Y-56905999D01*
X155745000Y-57806001D01*
X155743796Y-57830505D01*
X155740196Y-57854773D01*
X155734235Y-57878572D01*
X155725970Y-57901671D01*
X155715480Y-57923850D01*
X155702868Y-57944893D01*
X155688253Y-57964599D01*
X155671777Y-57982777D01*
X155653599Y-57999253D01*
X155633893Y-58013868D01*
X155612850Y-58026480D01*
X155590671Y-58036970D01*
X155567572Y-58045235D01*
X155543773Y-58051196D01*
X155519505Y-58054796D01*
X155495001Y-58056000D01*
X154844999Y-58056000D01*
X154820495Y-58054796D01*
X154796227Y-58051196D01*
X154772428Y-58045235D01*
X154749329Y-58036970D01*
X154727150Y-58026480D01*
X154706107Y-58013868D01*
X154686401Y-57999253D01*
X154668223Y-57982777D01*
X154651747Y-57964599D01*
X154637132Y-57944893D01*
X154624520Y-57923850D01*
X154614030Y-57901671D01*
X154605765Y-57878572D01*
X154599804Y-57854773D01*
X154596204Y-57830505D01*
X154595000Y-57806001D01*
X154595000Y-56905999D01*
X154596204Y-56881495D01*
X154599804Y-56857227D01*
X154605765Y-56833428D01*
X154614030Y-56810329D01*
X154624520Y-56788150D01*
X154637132Y-56767107D01*
X154651747Y-56747401D01*
X154668223Y-56729223D01*
X154686401Y-56712747D01*
X154706107Y-56698132D01*
X154727150Y-56685520D01*
X154749329Y-56675030D01*
X154772428Y-56666765D01*
X154796227Y-56660804D01*
X154820495Y-56657204D01*
X154844999Y-56656000D01*
X155495001Y-56656000D01*
X155519505Y-56657204D01*
G37*
G04 #@! TD.AperFunction*
G04 #@! TA.AperFunction,SMDPad,CuDef*
G36*
X157569505Y-56657204D02*
G01*
X157593773Y-56660804D01*
X157617572Y-56666765D01*
X157640671Y-56675030D01*
X157662850Y-56685520D01*
X157683893Y-56698132D01*
X157703599Y-56712747D01*
X157721777Y-56729223D01*
X157738253Y-56747401D01*
X157752868Y-56767107D01*
X157765480Y-56788150D01*
X157775970Y-56810329D01*
X157784235Y-56833428D01*
X157790196Y-56857227D01*
X157793796Y-56881495D01*
X157795000Y-56905999D01*
X157795000Y-57806001D01*
X157793796Y-57830505D01*
X157790196Y-57854773D01*
X157784235Y-57878572D01*
X157775970Y-57901671D01*
X157765480Y-57923850D01*
X157752868Y-57944893D01*
X157738253Y-57964599D01*
X157721777Y-57982777D01*
X157703599Y-57999253D01*
X157683893Y-58013868D01*
X157662850Y-58026480D01*
X157640671Y-58036970D01*
X157617572Y-58045235D01*
X157593773Y-58051196D01*
X157569505Y-58054796D01*
X157545001Y-58056000D01*
X156894999Y-58056000D01*
X156870495Y-58054796D01*
X156846227Y-58051196D01*
X156822428Y-58045235D01*
X156799329Y-58036970D01*
X156777150Y-58026480D01*
X156756107Y-58013868D01*
X156736401Y-57999253D01*
X156718223Y-57982777D01*
X156701747Y-57964599D01*
X156687132Y-57944893D01*
X156674520Y-57923850D01*
X156664030Y-57901671D01*
X156655765Y-57878572D01*
X156649804Y-57854773D01*
X156646204Y-57830505D01*
X156645000Y-57806001D01*
X156645000Y-56905999D01*
X156646204Y-56881495D01*
X156649804Y-56857227D01*
X156655765Y-56833428D01*
X156664030Y-56810329D01*
X156674520Y-56788150D01*
X156687132Y-56767107D01*
X156701747Y-56747401D01*
X156718223Y-56729223D01*
X156736401Y-56712747D01*
X156756107Y-56698132D01*
X156777150Y-56685520D01*
X156799329Y-56675030D01*
X156822428Y-56666765D01*
X156846227Y-56660804D01*
X156870495Y-56657204D01*
X156894999Y-56656000D01*
X157545001Y-56656000D01*
X157569505Y-56657204D01*
G37*
G04 #@! TD.AperFunction*
D21*
X160207000Y-64219000D03*
X152587000Y-71839000D03*
X160207000Y-66759000D03*
X152587000Y-69299000D03*
X160207000Y-69299000D03*
X152587000Y-66759000D03*
X160207000Y-71839000D03*
D22*
X152587000Y-64219000D03*
D23*
X187349000Y-140263000D03*
X182849000Y-140263000D03*
X187349000Y-133763000D03*
X182849000Y-133763000D03*
D24*
X144967000Y-66759000D03*
X144967000Y-69299000D03*
X144967000Y-71839000D03*
X167827000Y-71839000D03*
X167827000Y-69299000D03*
X167827000Y-66759000D03*
D25*
X127985000Y-58275000D03*
X127985000Y-60307000D03*
X184627000Y-58275000D03*
X184627000Y-61577000D03*
X125191000Y-104249000D03*
X125064000Y-90279000D03*
X187675000Y-131173000D03*
X187929000Y-118219000D03*
X165577000Y-51163000D03*
X170657000Y-51163000D03*
X175737000Y-51163000D03*
X180817000Y-51163000D03*
X180817000Y-56243000D03*
X175737000Y-56243000D03*
X170657000Y-56243000D03*
X165577000Y-56243000D03*
X165577000Y-61323000D03*
X170657000Y-61323000D03*
X175737000Y-61323000D03*
X180817000Y-61323000D03*
X160497000Y-61323000D03*
X160497000Y-56243000D03*
X132557000Y-58783000D03*
X132557000Y-61323000D03*
X135097000Y-61323000D03*
X135097000Y-58783000D03*
X137637000Y-58783000D03*
X137637000Y-61323000D03*
X140177000Y-61323000D03*
X140177000Y-58783000D03*
X137637000Y-63863000D03*
X143225000Y-57259000D03*
X144495000Y-58529000D03*
X140431000Y-54719000D03*
X140431000Y-53195000D03*
X124683000Y-71737000D03*
X124683000Y-68181000D03*
X188691000Y-73007000D03*
X186659000Y-78595000D03*
X188437000Y-80119000D03*
X162783000Y-64117000D03*
X179293000Y-130919000D03*
X179293000Y-143365000D03*
X150591000Y-123299000D03*
X126334000Y-123172000D03*
X124937000Y-142603000D03*
X150083000Y-143619000D03*
X151353000Y-55608000D03*
X154147000Y-61450000D03*
X154274000Y-74531000D03*
X130525000Y-126728000D03*
X145384000Y-126601000D03*
X146273000Y-140952000D03*
X129509000Y-140952000D03*
X183627000Y-63452000D03*
X183627000Y-67262000D03*
X183627000Y-71072000D03*
X155941000Y-52276000D03*
X153655000Y-55578000D03*
X129167000Y-71072000D03*
X129167000Y-67262000D03*
X129167000Y-63706000D03*
X153528000Y-57356000D03*
X126985000Y-130254000D03*
X146543000Y-51641000D03*
X146797000Y-59134000D03*
X158227000Y-70119500D03*
X158227000Y-64214000D03*
X142225000Y-63452000D03*
X140265500Y-63452000D03*
D26*
X160207000Y-66759000D02*
X167827000Y-66759000D01*
D27*
X176957000Y-66759000D02*
X178232000Y-65484000D01*
X167827000Y-66759000D02*
X176957000Y-66759000D01*
D28*
X178232000Y-65484000D02*
X178232000Y-64784000D01*
X183061315Y-63452000D02*
X183627000Y-63452000D01*
X179564000Y-63452000D02*
X183061315Y-63452000D01*
X178232000Y-64784000D02*
X179564000Y-63452000D01*
D27*
X182602000Y-65484000D02*
X180282000Y-65484000D01*
D26*
X160207000Y-69299000D02*
X167827000Y-69299000D01*
D27*
X167832000Y-69294000D02*
X167827000Y-69299000D01*
X178232000Y-69294000D02*
X167832000Y-69294000D01*
D28*
X179564000Y-67262000D02*
X183061315Y-67262000D01*
X178232000Y-69294000D02*
X178232000Y-68594000D01*
X183061315Y-67262000D02*
X183627000Y-67262000D01*
X178232000Y-68594000D02*
X179564000Y-67262000D01*
D27*
X182602000Y-69294000D02*
X180282000Y-69294000D01*
D26*
X160207000Y-71839000D02*
X167827000Y-71839000D01*
D27*
X176967000Y-71839000D02*
X167827000Y-71839000D01*
X178232000Y-73104000D02*
X176967000Y-71839000D01*
D28*
X183061315Y-71072000D02*
X183627000Y-71072000D01*
X179564000Y-71072000D02*
X183061315Y-71072000D01*
X178232000Y-73104000D02*
X178232000Y-72404000D01*
X178232000Y-72404000D02*
X179564000Y-71072000D01*
D27*
X182602000Y-73104000D02*
X180282000Y-73104000D01*
D26*
X152587000Y-71839000D02*
X144967000Y-71839000D01*
D27*
X135827000Y-71839000D02*
X144967000Y-71839000D01*
X134562000Y-73104000D02*
X135827000Y-71839000D01*
D28*
X129732685Y-71072000D02*
X129167000Y-71072000D01*
X133230000Y-71072000D02*
X129732685Y-71072000D01*
X134562000Y-73104000D02*
X134562000Y-72404000D01*
X134562000Y-72404000D02*
X133230000Y-71072000D01*
X153655000Y-54562000D02*
X153655000Y-55578000D01*
X155941000Y-52276000D02*
X153655000Y-54562000D01*
D27*
X130192000Y-73104000D02*
X132512000Y-73104000D01*
D26*
X152587000Y-69299000D02*
X144967000Y-69299000D01*
D27*
X134562000Y-69299000D02*
X144967000Y-69299000D01*
D28*
X129732685Y-67262000D02*
X129167000Y-67262000D01*
X133225000Y-67262000D02*
X129732685Y-67262000D01*
X134562000Y-69299000D02*
X134562000Y-68599000D01*
X134562000Y-68599000D02*
X133225000Y-67262000D01*
D27*
X130192000Y-69299000D02*
X132512000Y-69299000D01*
D26*
X152587000Y-66759000D02*
X144967000Y-66759000D01*
D28*
X140967000Y-66759000D02*
X144967000Y-66759000D01*
D27*
X134562000Y-65484000D02*
X135837000Y-66759000D01*
X135837000Y-66759000D02*
X144967000Y-66759000D01*
D28*
X129732685Y-63706000D02*
X129167000Y-63706000D01*
X133484000Y-63706000D02*
X129732685Y-63706000D01*
X134562000Y-65484000D02*
X134562000Y-64784000D01*
X134562000Y-64784000D02*
X133484000Y-63706000D01*
D27*
X130192000Y-65484000D02*
X132512000Y-65484000D01*
D28*
X155170000Y-57356000D02*
X155170000Y-57873000D01*
X155170000Y-57356000D02*
X153528000Y-57356000D01*
D27*
X126985000Y-134001000D02*
X126922000Y-134064000D01*
X126985000Y-130254000D02*
X126985000Y-134001000D01*
X146797000Y-61000000D02*
X146811000Y-61014000D01*
X146797000Y-59134000D02*
X146797000Y-61000000D01*
X146543000Y-49990000D02*
X146543000Y-51641000D01*
X158222000Y-64219000D02*
X158227000Y-64214000D01*
X152587000Y-64219000D02*
X158222000Y-64219000D01*
X144003000Y-52022000D02*
X144003000Y-49990000D01*
X151287000Y-64219000D02*
X148575000Y-61507000D01*
X148575000Y-61507000D02*
X148575000Y-53292000D01*
X144511000Y-52530000D02*
X144003000Y-52022000D01*
X148575000Y-53292000D02*
X147813000Y-52530000D01*
X152587000Y-64219000D02*
X151287000Y-64219000D01*
X147813000Y-52530000D02*
X144511000Y-52530000D01*
D28*
X153637000Y-64219000D02*
X152587000Y-64219000D01*
X158227000Y-64214000D02*
X158227000Y-70119500D01*
D27*
X153887000Y-64219000D02*
X154163000Y-64495000D01*
X152587000Y-64219000D02*
X153887000Y-64219000D01*
X154163000Y-64495000D02*
X154163000Y-72786500D01*
X154163000Y-72786500D02*
X152385000Y-74564500D01*
X152385000Y-74564500D02*
X126731000Y-74564500D01*
X125207000Y-76088500D02*
X125207000Y-82438500D01*
X126731000Y-74564500D02*
X125207000Y-76088500D01*
X134427000Y-56279000D02*
X135758000Y-57610000D01*
X134427000Y-54779000D02*
X134427000Y-56279000D01*
X135758000Y-57610000D02*
X140701000Y-57610000D01*
X142211000Y-59120000D02*
X142211000Y-61014000D01*
X140701000Y-57610000D02*
X142211000Y-59120000D01*
X142211000Y-63438000D02*
X142225000Y-63452000D01*
X142211000Y-61014000D02*
X142211000Y-63438000D01*
D29*
G36*
X187202065Y-46588647D02*
G01*
X187981678Y-46801925D01*
X188711201Y-47149889D01*
X189367584Y-47621548D01*
X189930065Y-48201983D01*
X190380868Y-48872851D01*
X190705749Y-49612949D01*
X190895269Y-50402355D01*
X190945000Y-51079572D01*
X190945001Y-121040786D01*
X190945000Y-121040796D01*
X190945001Y-141042854D01*
X190871353Y-141868066D01*
X190658075Y-142647678D01*
X190310108Y-143377205D01*
X189838452Y-144033584D01*
X189258017Y-144596065D01*
X188587149Y-145046869D01*
X187847054Y-145371748D01*
X187057647Y-145561269D01*
X186380429Y-145611000D01*
X126417135Y-145611000D01*
X125591934Y-145537353D01*
X124812322Y-145324075D01*
X124082795Y-144976108D01*
X123426416Y-144504452D01*
X122863935Y-143924017D01*
X122413131Y-143253149D01*
X122088252Y-142513054D01*
X121898731Y-141723647D01*
X121849000Y-141046429D01*
X121849000Y-140815830D01*
X131334775Y-140815830D01*
X132378590Y-141889270D01*
X134011451Y-142817449D01*
X135794016Y-143409238D01*
X137657782Y-143641894D01*
X139531125Y-143506478D01*
X141342054Y-143008192D01*
X143020976Y-142166186D01*
X143435410Y-141889270D01*
X144479225Y-140815830D01*
X137907000Y-134243605D01*
X131334775Y-140815830D01*
X121849000Y-140815830D01*
X121849000Y-131524000D01*
X125857934Y-131524000D01*
X125857934Y-136604000D01*
X125866178Y-136687707D01*
X125890595Y-136768196D01*
X125930245Y-136842376D01*
X125983605Y-136907395D01*
X126048624Y-136960755D01*
X126122804Y-137000405D01*
X126203293Y-137024822D01*
X126287000Y-137033066D01*
X127557000Y-137033066D01*
X127640707Y-137024822D01*
X127721196Y-137000405D01*
X127795376Y-136960755D01*
X127860395Y-136907395D01*
X127913755Y-136842376D01*
X127953405Y-136768196D01*
X127977822Y-136687707D01*
X127986066Y-136604000D01*
X127986066Y-133814782D01*
X128329106Y-133814782D01*
X128464522Y-135688125D01*
X128962808Y-137499054D01*
X129804814Y-139177976D01*
X130081730Y-139592410D01*
X131155170Y-140636225D01*
X137727395Y-134064000D01*
X138086605Y-134064000D01*
X144658830Y-140636225D01*
X145732270Y-139592410D01*
X146660449Y-137959549D01*
X147252238Y-136176984D01*
X147484894Y-134313218D01*
X147349478Y-132439875D01*
X147097471Y-131524000D01*
X147827934Y-131524000D01*
X147827934Y-136604000D01*
X147836178Y-136687707D01*
X147860595Y-136768196D01*
X147900245Y-136842376D01*
X147953605Y-136907395D01*
X148018624Y-136960755D01*
X148092804Y-137000405D01*
X148173293Y-137024822D01*
X148257000Y-137033066D01*
X149527000Y-137033066D01*
X149610707Y-137024822D01*
X149691196Y-137000405D01*
X149765376Y-136960755D01*
X149830395Y-136907395D01*
X149883755Y-136842376D01*
X149923405Y-136768196D01*
X149947822Y-136687707D01*
X149956066Y-136604000D01*
X149956066Y-131524000D01*
X149947822Y-131440293D01*
X149923405Y-131359804D01*
X149883755Y-131285624D01*
X149830395Y-131220605D01*
X149765376Y-131167245D01*
X149691196Y-131127595D01*
X149610707Y-131103178D01*
X149527000Y-131094934D01*
X148257000Y-131094934D01*
X148173293Y-131103178D01*
X148092804Y-131127595D01*
X148018624Y-131167245D01*
X147953605Y-131220605D01*
X147900245Y-131285624D01*
X147860595Y-131359804D01*
X147836178Y-131440293D01*
X147827934Y-131524000D01*
X147097471Y-131524000D01*
X146851192Y-130628946D01*
X146009186Y-128950024D01*
X145732270Y-128535590D01*
X144658830Y-127491775D01*
X138086605Y-134064000D01*
X137727395Y-134064000D01*
X131155170Y-127491775D01*
X130081730Y-128535590D01*
X129153551Y-130168451D01*
X128561762Y-131951016D01*
X128329106Y-133814782D01*
X127986066Y-133814782D01*
X127986066Y-131524000D01*
X127977822Y-131440293D01*
X127953405Y-131359804D01*
X127913755Y-131285624D01*
X127860395Y-131220605D01*
X127795376Y-131167245D01*
X127721196Y-131127595D01*
X127662000Y-131109637D01*
X127662000Y-130729357D01*
X127717877Y-130645731D01*
X127780218Y-130495227D01*
X127812000Y-130335452D01*
X127812000Y-130172548D01*
X127780218Y-130012773D01*
X127717877Y-129862269D01*
X127627372Y-129726819D01*
X127512181Y-129611628D01*
X127376731Y-129521123D01*
X127226227Y-129458782D01*
X127066452Y-129427000D01*
X126903548Y-129427000D01*
X126743773Y-129458782D01*
X126593269Y-129521123D01*
X126457819Y-129611628D01*
X126342628Y-129726819D01*
X126252123Y-129862269D01*
X126189782Y-130012773D01*
X126158000Y-130172548D01*
X126158000Y-130335452D01*
X126189782Y-130495227D01*
X126252123Y-130645731D01*
X126308000Y-130729357D01*
X126308000Y-131094934D01*
X126287000Y-131094934D01*
X126203293Y-131103178D01*
X126122804Y-131127595D01*
X126048624Y-131167245D01*
X125983605Y-131220605D01*
X125930245Y-131285624D01*
X125890595Y-131359804D01*
X125866178Y-131440293D01*
X125857934Y-131524000D01*
X121849000Y-131524000D01*
X121849000Y-127312170D01*
X131334775Y-127312170D01*
X137907000Y-133884395D01*
X144479225Y-127312170D01*
X143435410Y-126238730D01*
X141802549Y-125310551D01*
X140019984Y-124718762D01*
X138156218Y-124486106D01*
X136282875Y-124621522D01*
X134471946Y-125119808D01*
X132793024Y-125961814D01*
X132378590Y-126238730D01*
X131334775Y-127312170D01*
X121849000Y-127312170D01*
X121849000Y-97805500D01*
X123572000Y-97805500D01*
X123572000Y-101805500D01*
X123628193Y-102122032D01*
X123745058Y-102421520D01*
X123918105Y-102692454D01*
X124140683Y-102924422D01*
X124404239Y-103108510D01*
X124698645Y-103237644D01*
X124826566Y-103268624D01*
X125080000Y-103149277D01*
X125080000Y-97805500D01*
X123572000Y-97805500D01*
X121849000Y-97805500D01*
X121849000Y-93551500D01*
X123572000Y-93551500D01*
X123572000Y-97551500D01*
X125080000Y-97551500D01*
X125080000Y-92207723D01*
X124826566Y-92088376D01*
X124698645Y-92119356D01*
X124404239Y-92248490D01*
X124140683Y-92432578D01*
X123918105Y-92664546D01*
X123745058Y-92935480D01*
X123628193Y-93234968D01*
X123572000Y-93551500D01*
X121849000Y-93551500D01*
X121849000Y-78368403D01*
X123780000Y-78368403D01*
X123780001Y-86508598D01*
X123800649Y-86718241D01*
X123882246Y-86987231D01*
X124014753Y-87235134D01*
X124193078Y-87452423D01*
X124410367Y-87630748D01*
X124658270Y-87763255D01*
X124927260Y-87844852D01*
X125207000Y-87872404D01*
X125486741Y-87844852D01*
X125755731Y-87763255D01*
X126003634Y-87630748D01*
X126080000Y-87568076D01*
X126080000Y-92297550D01*
X126009761Y-92248490D01*
X125715355Y-92119356D01*
X125587434Y-92088376D01*
X125334000Y-92207723D01*
X125334000Y-97551500D01*
X125354000Y-97551500D01*
X125354000Y-97805500D01*
X125334000Y-97805500D01*
X125334000Y-103149277D01*
X125587434Y-103268624D01*
X125715355Y-103237644D01*
X126009761Y-103108510D01*
X126080000Y-103059450D01*
X126080000Y-122283000D01*
X126082440Y-122307776D01*
X126089667Y-122331601D01*
X126101403Y-122353557D01*
X126117197Y-122372803D01*
X126136443Y-122388597D01*
X126158399Y-122400333D01*
X126182224Y-122407560D01*
X126207000Y-122410000D01*
X151480000Y-122410000D01*
X151480000Y-142603000D01*
X151482440Y-142627776D01*
X151489667Y-142651601D01*
X151501403Y-142673557D01*
X151517197Y-142692803D01*
X151536443Y-142708597D01*
X151558399Y-142720333D01*
X151582224Y-142727560D01*
X151607000Y-142730000D01*
X178277000Y-142730000D01*
X178301776Y-142727560D01*
X178325601Y-142720333D01*
X178347557Y-142708597D01*
X178366803Y-142692803D01*
X178382597Y-142673557D01*
X178394333Y-142651601D01*
X178401560Y-142627776D01*
X178404000Y-142603000D01*
X178404000Y-141398413D01*
X181893192Y-141398413D01*
X181988956Y-141662814D01*
X182278571Y-141803704D01*
X182590108Y-141885384D01*
X182911595Y-141904718D01*
X183230675Y-141860961D01*
X183535088Y-141755795D01*
X183709044Y-141662814D01*
X183804808Y-141398413D01*
X182849000Y-140442605D01*
X181893192Y-141398413D01*
X178404000Y-141398413D01*
X178404000Y-140325595D01*
X181207282Y-140325595D01*
X181251039Y-140644675D01*
X181356205Y-140949088D01*
X181449186Y-141123044D01*
X181713587Y-141218808D01*
X182669395Y-140263000D01*
X183028605Y-140263000D01*
X183984413Y-141218808D01*
X184248814Y-141123044D01*
X184389704Y-140833429D01*
X184471384Y-140521892D01*
X184490718Y-140200405D01*
X184480029Y-140122453D01*
X185922000Y-140122453D01*
X185922000Y-140403547D01*
X185976838Y-140679241D01*
X186084409Y-140938938D01*
X186240576Y-141172660D01*
X186439340Y-141371424D01*
X186673062Y-141527591D01*
X186932759Y-141635162D01*
X187208453Y-141690000D01*
X187489547Y-141690000D01*
X187765241Y-141635162D01*
X188024938Y-141527591D01*
X188258660Y-141371424D01*
X188457424Y-141172660D01*
X188613591Y-140938938D01*
X188721162Y-140679241D01*
X188776000Y-140403547D01*
X188776000Y-140122453D01*
X188721162Y-139846759D01*
X188613591Y-139587062D01*
X188457424Y-139353340D01*
X188258660Y-139154576D01*
X188024938Y-138998409D01*
X187765241Y-138890838D01*
X187489547Y-138836000D01*
X187208453Y-138836000D01*
X186932759Y-138890838D01*
X186673062Y-138998409D01*
X186439340Y-139154576D01*
X186240576Y-139353340D01*
X186084409Y-139587062D01*
X185976838Y-139846759D01*
X185922000Y-140122453D01*
X184480029Y-140122453D01*
X184446961Y-139881325D01*
X184341795Y-139576912D01*
X184248814Y-139402956D01*
X183984413Y-139307192D01*
X183028605Y-140263000D01*
X182669395Y-140263000D01*
X181713587Y-139307192D01*
X181449186Y-139402956D01*
X181308296Y-139692571D01*
X181226616Y-140004108D01*
X181207282Y-140325595D01*
X178404000Y-140325595D01*
X178404000Y-139127587D01*
X181893192Y-139127587D01*
X182849000Y-140083395D01*
X183804808Y-139127587D01*
X183709044Y-138863186D01*
X183419429Y-138722296D01*
X183107892Y-138640616D01*
X182786405Y-138621282D01*
X182467325Y-138665039D01*
X182162912Y-138770205D01*
X181988956Y-138863186D01*
X181893192Y-139127587D01*
X178404000Y-139127587D01*
X178404000Y-134898413D01*
X181893192Y-134898413D01*
X181988956Y-135162814D01*
X182278571Y-135303704D01*
X182590108Y-135385384D01*
X182911595Y-135404718D01*
X183230675Y-135360961D01*
X183535088Y-135255795D01*
X183709044Y-135162814D01*
X183804808Y-134898413D01*
X182849000Y-133942605D01*
X181893192Y-134898413D01*
X178404000Y-134898413D01*
X178404000Y-133825595D01*
X181207282Y-133825595D01*
X181251039Y-134144675D01*
X181356205Y-134449088D01*
X181449186Y-134623044D01*
X181713587Y-134718808D01*
X182669395Y-133763000D01*
X183028605Y-133763000D01*
X183984413Y-134718808D01*
X184248814Y-134623044D01*
X184389704Y-134333429D01*
X184471384Y-134021892D01*
X184490718Y-133700405D01*
X184480029Y-133622453D01*
X185922000Y-133622453D01*
X185922000Y-133903547D01*
X185976838Y-134179241D01*
X186084409Y-134438938D01*
X186240576Y-134672660D01*
X186439340Y-134871424D01*
X186673062Y-135027591D01*
X186932759Y-135135162D01*
X187208453Y-135190000D01*
X187489547Y-135190000D01*
X187765241Y-135135162D01*
X188024938Y-135027591D01*
X188258660Y-134871424D01*
X188457424Y-134672660D01*
X188613591Y-134438938D01*
X188721162Y-134179241D01*
X188776000Y-133903547D01*
X188776000Y-133622453D01*
X188721162Y-133346759D01*
X188613591Y-133087062D01*
X188457424Y-132853340D01*
X188258660Y-132654576D01*
X188024938Y-132498409D01*
X187765241Y-132390838D01*
X187489547Y-132336000D01*
X187208453Y-132336000D01*
X186932759Y-132390838D01*
X186673062Y-132498409D01*
X186439340Y-132654576D01*
X186240576Y-132853340D01*
X186084409Y-133087062D01*
X185976838Y-133346759D01*
X185922000Y-133622453D01*
X184480029Y-133622453D01*
X184446961Y-133381325D01*
X184341795Y-133076912D01*
X184248814Y-132902956D01*
X183984413Y-132807192D01*
X183028605Y-133763000D01*
X182669395Y-133763000D01*
X181713587Y-132807192D01*
X181449186Y-132902956D01*
X181308296Y-133192571D01*
X181226616Y-133504108D01*
X181207282Y-133825595D01*
X178404000Y-133825595D01*
X178404000Y-132627587D01*
X181893192Y-132627587D01*
X182849000Y-133583395D01*
X183804808Y-132627587D01*
X183709044Y-132363186D01*
X183419429Y-132222296D01*
X183107892Y-132140616D01*
X182786405Y-132121282D01*
X182467325Y-132165039D01*
X182162912Y-132270205D01*
X181988956Y-132363186D01*
X181893192Y-132627587D01*
X178404000Y-132627587D01*
X178404000Y-130030000D01*
X185897000Y-130030000D01*
X185921776Y-130027560D01*
X185945601Y-130020333D01*
X185967557Y-130008597D01*
X185986803Y-129992803D01*
X186002597Y-129973557D01*
X186014333Y-129951601D01*
X186021560Y-129927776D01*
X186024000Y-129903000D01*
X186024000Y-124810000D01*
X186248000Y-124810000D01*
X186248000Y-128810000D01*
X186304193Y-129126532D01*
X186421058Y-129426020D01*
X186594105Y-129696954D01*
X186816683Y-129928922D01*
X187080239Y-130113010D01*
X187374645Y-130242144D01*
X187502566Y-130273124D01*
X187756000Y-130153777D01*
X187756000Y-124810000D01*
X188010000Y-124810000D01*
X188010000Y-130153777D01*
X188263434Y-130273124D01*
X188391355Y-130242144D01*
X188685761Y-130113010D01*
X188949317Y-129928922D01*
X189171895Y-129696954D01*
X189344942Y-129426020D01*
X189461807Y-129126532D01*
X189518000Y-128810000D01*
X189518000Y-124810000D01*
X188010000Y-124810000D01*
X187756000Y-124810000D01*
X186248000Y-124810000D01*
X186024000Y-124810000D01*
X186024000Y-120556000D01*
X186248000Y-120556000D01*
X186248000Y-124556000D01*
X187756000Y-124556000D01*
X187756000Y-119212223D01*
X188010000Y-119212223D01*
X188010000Y-124556000D01*
X189518000Y-124556000D01*
X189518000Y-120556000D01*
X189461807Y-120239468D01*
X189344942Y-119939980D01*
X189171895Y-119669046D01*
X188949317Y-119437078D01*
X188685761Y-119252990D01*
X188391355Y-119123856D01*
X188263434Y-119092876D01*
X188010000Y-119212223D01*
X187756000Y-119212223D01*
X187502566Y-119092876D01*
X187374645Y-119123856D01*
X187080239Y-119252990D01*
X186816683Y-119437078D01*
X186594105Y-119669046D01*
X186421058Y-119939980D01*
X186304193Y-120239468D01*
X186248000Y-120556000D01*
X186024000Y-120556000D01*
X186024000Y-75293000D01*
X186021560Y-75268224D01*
X186014333Y-75244399D01*
X186002597Y-75222443D01*
X185986803Y-75203197D01*
X185967557Y-75187403D01*
X185945601Y-75175667D01*
X185921776Y-75168440D01*
X185897000Y-75166000D01*
X152695829Y-75166000D01*
X152762941Y-75130128D01*
X152866027Y-75045527D01*
X152887226Y-75019696D01*
X154618201Y-73288722D01*
X154644027Y-73267527D01*
X154728628Y-73164441D01*
X154791492Y-73046830D01*
X154830204Y-72919215D01*
X154840000Y-72819752D01*
X154843275Y-72786500D01*
X154840000Y-72753248D01*
X154840000Y-64896000D01*
X157675000Y-64896000D01*
X157675001Y-69501946D01*
X157584628Y-69592319D01*
X157494123Y-69727769D01*
X157431782Y-69878273D01*
X157400000Y-70038048D01*
X157400000Y-70200952D01*
X157431782Y-70360727D01*
X157494123Y-70511231D01*
X157584628Y-70646681D01*
X157699819Y-70761872D01*
X157835269Y-70852377D01*
X157985773Y-70914718D01*
X158145548Y-70946500D01*
X158308452Y-70946500D01*
X158468227Y-70914718D01*
X158618731Y-70852377D01*
X158754181Y-70761872D01*
X158869372Y-70646681D01*
X158959877Y-70511231D01*
X159022218Y-70360727D01*
X159054000Y-70200952D01*
X159054000Y-70038048D01*
X159022218Y-69878273D01*
X158959877Y-69727769D01*
X158869372Y-69592319D01*
X158779000Y-69501947D01*
X158779000Y-64831553D01*
X158869372Y-64741181D01*
X158872218Y-64736921D01*
X158975963Y-64956420D01*
X159143481Y-65182414D01*
X159351869Y-65371385D01*
X159593119Y-65516070D01*
X159812088Y-65594483D01*
X159625798Y-65671647D01*
X159424833Y-65805927D01*
X159253927Y-65976833D01*
X159119647Y-66177798D01*
X159027153Y-66401097D01*
X158980000Y-66638151D01*
X158980000Y-66879849D01*
X159027153Y-67116903D01*
X159119647Y-67340202D01*
X159253927Y-67541167D01*
X159424833Y-67712073D01*
X159625798Y-67846353D01*
X159849097Y-67938847D01*
X160086151Y-67986000D01*
X160327849Y-67986000D01*
X160564903Y-67938847D01*
X160788202Y-67846353D01*
X160989167Y-67712073D01*
X161015240Y-67686000D01*
X162741741Y-67686000D01*
X162813077Y-67772923D01*
X163030366Y-67951248D01*
X163175830Y-68029000D01*
X163030366Y-68106752D01*
X162813077Y-68285077D01*
X162741741Y-68372000D01*
X161015240Y-68372000D01*
X160989167Y-68345927D01*
X160788202Y-68211647D01*
X160564903Y-68119153D01*
X160327849Y-68072000D01*
X160086151Y-68072000D01*
X159849097Y-68119153D01*
X159625798Y-68211647D01*
X159424833Y-68345927D01*
X159253927Y-68516833D01*
X159119647Y-68717798D01*
X159027153Y-68941097D01*
X158980000Y-69178151D01*
X158980000Y-69419849D01*
X159027153Y-69656903D01*
X159119647Y-69880202D01*
X159253927Y-70081167D01*
X159424833Y-70252073D01*
X159625798Y-70386353D01*
X159849097Y-70478847D01*
X160086151Y-70526000D01*
X160327849Y-70526000D01*
X160564903Y-70478847D01*
X160788202Y-70386353D01*
X160989167Y-70252073D01*
X161015240Y-70226000D01*
X162741741Y-70226000D01*
X162813077Y-70312923D01*
X163030366Y-70491248D01*
X163175830Y-70569000D01*
X163030366Y-70646752D01*
X162813077Y-70825077D01*
X162741741Y-70912000D01*
X161015240Y-70912000D01*
X160989167Y-70885927D01*
X160788202Y-70751647D01*
X160564903Y-70659153D01*
X160327849Y-70612000D01*
X160086151Y-70612000D01*
X159849097Y-70659153D01*
X159625798Y-70751647D01*
X159424833Y-70885927D01*
X159253927Y-71056833D01*
X159119647Y-71257798D01*
X159027153Y-71481097D01*
X158980000Y-71718151D01*
X158980000Y-71959849D01*
X159027153Y-72196903D01*
X159119647Y-72420202D01*
X159253927Y-72621167D01*
X159424833Y-72792073D01*
X159625798Y-72926353D01*
X159849097Y-73018847D01*
X160086151Y-73066000D01*
X160327849Y-73066000D01*
X160564903Y-73018847D01*
X160788202Y-72926353D01*
X160989167Y-72792073D01*
X161015240Y-72766000D01*
X162741741Y-72766000D01*
X162813077Y-72852923D01*
X163030366Y-73031248D01*
X163278269Y-73163755D01*
X163547259Y-73245352D01*
X163756902Y-73266000D01*
X171897098Y-73266000D01*
X172106741Y-73245352D01*
X172375731Y-73163755D01*
X172623634Y-73031248D01*
X172840923Y-72852923D01*
X173019248Y-72635634D01*
X173083194Y-72516000D01*
X176686578Y-72516000D01*
X177227934Y-73057356D01*
X177227934Y-73554001D01*
X177240982Y-73686480D01*
X177279625Y-73813868D01*
X177342377Y-73931269D01*
X177426828Y-74034172D01*
X177529731Y-74118623D01*
X177647132Y-74181375D01*
X177774520Y-74220018D01*
X177906999Y-74233066D01*
X178557001Y-74233066D01*
X178689480Y-74220018D01*
X178816868Y-74181375D01*
X178934269Y-74118623D01*
X179037172Y-74034172D01*
X179121623Y-73931269D01*
X179184375Y-73813868D01*
X179223018Y-73686480D01*
X179236066Y-73554001D01*
X179236066Y-72653999D01*
X179223018Y-72521520D01*
X179184375Y-72394132D01*
X179127994Y-72288651D01*
X179792646Y-71624000D01*
X183009447Y-71624000D01*
X183099819Y-71714372D01*
X183235269Y-71804877D01*
X183385773Y-71867218D01*
X183545548Y-71899000D01*
X183691389Y-71899000D01*
X183625815Y-71952815D01*
X183546463Y-72049506D01*
X183487498Y-72159820D01*
X183462718Y-72241510D01*
X183407172Y-72173828D01*
X183304269Y-72089377D01*
X183186868Y-72026625D01*
X183059480Y-71987982D01*
X182927001Y-71974934D01*
X182276999Y-71974934D01*
X182144520Y-71987982D01*
X182017132Y-72026625D01*
X181899731Y-72089377D01*
X181796828Y-72173828D01*
X181712377Y-72276731D01*
X181649625Y-72394132D01*
X181639655Y-72427000D01*
X181244345Y-72427000D01*
X181234375Y-72394132D01*
X181171623Y-72276731D01*
X181087172Y-72173828D01*
X180984269Y-72089377D01*
X180866868Y-72026625D01*
X180739480Y-71987982D01*
X180607001Y-71974934D01*
X179956999Y-71974934D01*
X179824520Y-71987982D01*
X179697132Y-72026625D01*
X179579731Y-72089377D01*
X179476828Y-72173828D01*
X179392377Y-72276731D01*
X179329625Y-72394132D01*
X179290982Y-72521520D01*
X179277934Y-72653999D01*
X179277934Y-73554001D01*
X179290982Y-73686480D01*
X179329625Y-73813868D01*
X179392377Y-73931269D01*
X179476828Y-74034172D01*
X179579731Y-74118623D01*
X179697132Y-74181375D01*
X179824520Y-74220018D01*
X179956999Y-74233066D01*
X180607001Y-74233066D01*
X180739480Y-74220018D01*
X180866868Y-74181375D01*
X180984269Y-74118623D01*
X181087172Y-74034172D01*
X181171623Y-73931269D01*
X181234375Y-73813868D01*
X181244345Y-73781000D01*
X181639655Y-73781000D01*
X181649625Y-73813868D01*
X181712377Y-73931269D01*
X181796828Y-74034172D01*
X181899731Y-74118623D01*
X182017132Y-74181375D01*
X182144520Y-74220018D01*
X182276999Y-74233066D01*
X182927001Y-74233066D01*
X183059480Y-74220018D01*
X183186868Y-74181375D01*
X183304269Y-74118623D01*
X183407172Y-74034172D01*
X183462718Y-73966490D01*
X183487498Y-74048180D01*
X183546463Y-74158494D01*
X183625815Y-74255185D01*
X183722506Y-74334537D01*
X183832820Y-74393502D01*
X183952518Y-74429812D01*
X184077000Y-74442072D01*
X184366250Y-74439000D01*
X184525000Y-74280250D01*
X184525000Y-73231000D01*
X184779000Y-73231000D01*
X184779000Y-74280250D01*
X184937750Y-74439000D01*
X185227000Y-74442072D01*
X185351482Y-74429812D01*
X185471180Y-74393502D01*
X185581494Y-74334537D01*
X185678185Y-74255185D01*
X185757537Y-74158494D01*
X185816502Y-74048180D01*
X185852812Y-73928482D01*
X185865072Y-73804000D01*
X185862000Y-73389750D01*
X185703250Y-73231000D01*
X184779000Y-73231000D01*
X184525000Y-73231000D01*
X184505000Y-73231000D01*
X184505000Y-72977000D01*
X184525000Y-72977000D01*
X184525000Y-71927750D01*
X184779000Y-71927750D01*
X184779000Y-72977000D01*
X185703250Y-72977000D01*
X185862000Y-72818250D01*
X185865072Y-72404000D01*
X185852812Y-72279518D01*
X185816502Y-72159820D01*
X185757537Y-72049506D01*
X185678185Y-71952815D01*
X185581494Y-71873463D01*
X185471180Y-71814498D01*
X185351482Y-71778188D01*
X185227000Y-71765928D01*
X184937750Y-71769000D01*
X184779000Y-71927750D01*
X184525000Y-71927750D01*
X184366250Y-71769000D01*
X184077022Y-71765928D01*
X184154181Y-71714372D01*
X184269372Y-71599181D01*
X184359877Y-71463731D01*
X184422218Y-71313227D01*
X184454000Y-71153452D01*
X184454000Y-70990548D01*
X184422218Y-70830773D01*
X184359877Y-70680269D01*
X184325906Y-70629428D01*
X184366250Y-70629000D01*
X184525000Y-70470250D01*
X184525000Y-69421000D01*
X184779000Y-69421000D01*
X184779000Y-70470250D01*
X184937750Y-70629000D01*
X185227000Y-70632072D01*
X185351482Y-70619812D01*
X185471180Y-70583502D01*
X185581494Y-70524537D01*
X185678185Y-70445185D01*
X185757537Y-70348494D01*
X185816502Y-70238180D01*
X185852812Y-70118482D01*
X185865072Y-69994000D01*
X185862000Y-69579750D01*
X185703250Y-69421000D01*
X184779000Y-69421000D01*
X184525000Y-69421000D01*
X184505000Y-69421000D01*
X184505000Y-69167000D01*
X184525000Y-69167000D01*
X184525000Y-68117750D01*
X184779000Y-68117750D01*
X184779000Y-69167000D01*
X185703250Y-69167000D01*
X185862000Y-69008250D01*
X185865072Y-68594000D01*
X185852812Y-68469518D01*
X185816502Y-68349820D01*
X185757537Y-68239506D01*
X185678185Y-68142815D01*
X185581494Y-68063463D01*
X185471180Y-68004498D01*
X185351482Y-67968188D01*
X185227000Y-67955928D01*
X184937750Y-67959000D01*
X184779000Y-68117750D01*
X184525000Y-68117750D01*
X184366250Y-67959000D01*
X184077022Y-67955928D01*
X184154181Y-67904372D01*
X184269372Y-67789181D01*
X184359877Y-67653731D01*
X184422218Y-67503227D01*
X184454000Y-67343452D01*
X184454000Y-67180548D01*
X184422218Y-67020773D01*
X184359877Y-66870269D01*
X184325906Y-66819428D01*
X184366250Y-66819000D01*
X184525000Y-66660250D01*
X184525000Y-65611000D01*
X184779000Y-65611000D01*
X184779000Y-66660250D01*
X184937750Y-66819000D01*
X185227000Y-66822072D01*
X185351482Y-66809812D01*
X185471180Y-66773502D01*
X185581494Y-66714537D01*
X185678185Y-66635185D01*
X185757537Y-66538494D01*
X185816502Y-66428180D01*
X185852812Y-66308482D01*
X185865072Y-66184000D01*
X185862000Y-65769750D01*
X185703250Y-65611000D01*
X184779000Y-65611000D01*
X184525000Y-65611000D01*
X184505000Y-65611000D01*
X184505000Y-65357000D01*
X184525000Y-65357000D01*
X184525000Y-64307750D01*
X184779000Y-64307750D01*
X184779000Y-65357000D01*
X185703250Y-65357000D01*
X185862000Y-65198250D01*
X185865072Y-64784000D01*
X185852812Y-64659518D01*
X185816502Y-64539820D01*
X185757537Y-64429506D01*
X185678185Y-64332815D01*
X185581494Y-64253463D01*
X185471180Y-64194498D01*
X185351482Y-64158188D01*
X185227000Y-64145928D01*
X184937750Y-64149000D01*
X184779000Y-64307750D01*
X184525000Y-64307750D01*
X184366250Y-64149000D01*
X184077022Y-64145928D01*
X184154181Y-64094372D01*
X184269372Y-63979181D01*
X184359877Y-63843731D01*
X184422218Y-63693227D01*
X184454000Y-63533452D01*
X184454000Y-63370548D01*
X184422218Y-63210773D01*
X184359877Y-63060269D01*
X184269372Y-62924819D01*
X184154181Y-62809628D01*
X184018731Y-62719123D01*
X183868227Y-62656782D01*
X183708452Y-62625000D01*
X183545548Y-62625000D01*
X183385773Y-62656782D01*
X183235269Y-62719123D01*
X183099819Y-62809628D01*
X183009447Y-62900000D01*
X179591097Y-62900000D01*
X179563999Y-62897331D01*
X179536901Y-62900000D01*
X179536891Y-62900000D01*
X179455789Y-62907988D01*
X179351737Y-62939552D01*
X179255842Y-62990809D01*
X179171789Y-63059789D01*
X179154508Y-63080846D01*
X177877518Y-64357838D01*
X177774520Y-64367982D01*
X177647132Y-64406625D01*
X177529731Y-64469377D01*
X177426828Y-64553828D01*
X177342377Y-64656731D01*
X177279625Y-64774132D01*
X177240982Y-64901520D01*
X177227934Y-65033999D01*
X177227934Y-65530644D01*
X176676578Y-66082000D01*
X173083194Y-66082000D01*
X173019248Y-65962366D01*
X172840923Y-65745077D01*
X172623634Y-65566752D01*
X172375731Y-65434245D01*
X172106741Y-65352648D01*
X171897098Y-65332000D01*
X163756902Y-65332000D01*
X163547259Y-65352648D01*
X163278269Y-65434245D01*
X163030366Y-65566752D01*
X162813077Y-65745077D01*
X162741741Y-65832000D01*
X161015240Y-65832000D01*
X160989167Y-65805927D01*
X160788202Y-65671647D01*
X160601912Y-65594483D01*
X160820881Y-65516070D01*
X161062131Y-65371385D01*
X161270519Y-65182414D01*
X161438037Y-64956420D01*
X161558246Y-64702087D01*
X161598904Y-64568039D01*
X161476915Y-64346000D01*
X160334000Y-64346000D01*
X160334000Y-64366000D01*
X160080000Y-64366000D01*
X160080000Y-64346000D01*
X160060000Y-64346000D01*
X160060000Y-64092000D01*
X160080000Y-64092000D01*
X160080000Y-62948376D01*
X160334000Y-62948376D01*
X160334000Y-64092000D01*
X161476915Y-64092000D01*
X161598904Y-63869961D01*
X161558246Y-63735913D01*
X161438037Y-63481580D01*
X161270519Y-63255586D01*
X161062131Y-63066615D01*
X160820881Y-62921930D01*
X160556040Y-62827091D01*
X160334000Y-62948376D01*
X160080000Y-62948376D01*
X159857960Y-62827091D01*
X159593119Y-62921930D01*
X159351869Y-63066615D01*
X159143481Y-63255586D01*
X158975963Y-63481580D01*
X158874987Y-63695222D01*
X158869372Y-63686819D01*
X158754181Y-63571628D01*
X158618731Y-63481123D01*
X158468227Y-63418782D01*
X158308452Y-63387000D01*
X158145548Y-63387000D01*
X157985773Y-63418782D01*
X157835269Y-63481123D01*
X157744160Y-63542000D01*
X153920245Y-63542000D01*
X153887000Y-63538726D01*
X153853755Y-63542000D01*
X153816066Y-63542000D01*
X153816066Y-63419000D01*
X153807822Y-63335293D01*
X153783405Y-63254804D01*
X153743755Y-63180624D01*
X153690395Y-63115605D01*
X153625376Y-63062245D01*
X153551196Y-63022595D01*
X153470707Y-62998178D01*
X153387000Y-62989934D01*
X151787000Y-62989934D01*
X151703293Y-62998178D01*
X151622804Y-63022595D01*
X151548624Y-63062245D01*
X151483605Y-63115605D01*
X151430245Y-63180624D01*
X151390595Y-63254804D01*
X151366178Y-63335293D01*
X151365688Y-63340266D01*
X149252000Y-61226578D01*
X149252000Y-57274548D01*
X152701000Y-57274548D01*
X152701000Y-57437452D01*
X152732782Y-57597227D01*
X152795123Y-57747731D01*
X152885628Y-57883181D01*
X153000819Y-57998372D01*
X153136269Y-58088877D01*
X153286773Y-58151218D01*
X153446548Y-58183000D01*
X153609452Y-58183000D01*
X153769227Y-58151218D01*
X153919731Y-58088877D01*
X154055181Y-57998372D01*
X154145553Y-57908000D01*
X154175980Y-57908000D01*
X154178982Y-57938480D01*
X154217625Y-58065868D01*
X154280377Y-58183269D01*
X154364828Y-58286172D01*
X154467731Y-58370623D01*
X154585132Y-58433375D01*
X154712520Y-58472018D01*
X154844999Y-58485066D01*
X155495001Y-58485066D01*
X155627480Y-58472018D01*
X155754868Y-58433375D01*
X155872269Y-58370623D01*
X155975172Y-58286172D01*
X156030718Y-58218490D01*
X156055498Y-58300180D01*
X156114463Y-58410494D01*
X156193815Y-58507185D01*
X156290506Y-58586537D01*
X156400820Y-58645502D01*
X156520518Y-58681812D01*
X156645000Y-58694072D01*
X156934250Y-58691000D01*
X157093000Y-58532250D01*
X157093000Y-57483000D01*
X157347000Y-57483000D01*
X157347000Y-58532250D01*
X157505750Y-58691000D01*
X157795000Y-58694072D01*
X157919482Y-58681812D01*
X158039180Y-58645502D01*
X158149494Y-58586537D01*
X158246185Y-58507185D01*
X158325537Y-58410494D01*
X158384502Y-58300180D01*
X158420812Y-58180482D01*
X158433072Y-58056000D01*
X158430000Y-57641750D01*
X158271250Y-57483000D01*
X157347000Y-57483000D01*
X157093000Y-57483000D01*
X157073000Y-57483000D01*
X157073000Y-57229000D01*
X157093000Y-57229000D01*
X157093000Y-56179750D01*
X157347000Y-56179750D01*
X157347000Y-57229000D01*
X158271250Y-57229000D01*
X158430000Y-57070250D01*
X158433072Y-56656000D01*
X158420812Y-56531518D01*
X158384502Y-56411820D01*
X158325537Y-56301506D01*
X158246185Y-56204815D01*
X158149494Y-56125463D01*
X158039180Y-56066498D01*
X157919482Y-56030188D01*
X157795000Y-56017928D01*
X157505750Y-56021000D01*
X157347000Y-56179750D01*
X157093000Y-56179750D01*
X156934250Y-56021000D01*
X156645000Y-56017928D01*
X156520518Y-56030188D01*
X156400820Y-56066498D01*
X156290506Y-56125463D01*
X156193815Y-56204815D01*
X156114463Y-56301506D01*
X156055498Y-56411820D01*
X156030718Y-56493510D01*
X155975172Y-56425828D01*
X155872269Y-56341377D01*
X155754868Y-56278625D01*
X155627480Y-56239982D01*
X155495001Y-56226934D01*
X154844999Y-56226934D01*
X154712520Y-56239982D01*
X154585132Y-56278625D01*
X154467731Y-56341377D01*
X154364828Y-56425828D01*
X154280377Y-56528731D01*
X154217625Y-56646132D01*
X154178982Y-56773520D01*
X154175980Y-56804000D01*
X154145553Y-56804000D01*
X154055181Y-56713628D01*
X153919731Y-56623123D01*
X153769227Y-56560782D01*
X153609452Y-56529000D01*
X153446548Y-56529000D01*
X153286773Y-56560782D01*
X153136269Y-56623123D01*
X153000819Y-56713628D01*
X152885628Y-56828819D01*
X152795123Y-56964269D01*
X152732782Y-57114773D01*
X152701000Y-57274548D01*
X149252000Y-57274548D01*
X149252000Y-55496548D01*
X152828000Y-55496548D01*
X152828000Y-55659452D01*
X152859782Y-55819227D01*
X152922123Y-55969731D01*
X153012628Y-56105181D01*
X153127819Y-56220372D01*
X153263269Y-56310877D01*
X153413773Y-56373218D01*
X153573548Y-56405000D01*
X153736452Y-56405000D01*
X153896227Y-56373218D01*
X154046731Y-56310877D01*
X154182181Y-56220372D01*
X154297372Y-56105181D01*
X154387877Y-55969731D01*
X154450218Y-55819227D01*
X154482000Y-55659452D01*
X154482000Y-55496548D01*
X154450218Y-55336773D01*
X154387877Y-55186269D01*
X154297372Y-55050819D01*
X154207000Y-54960447D01*
X154207000Y-54790644D01*
X155894646Y-53103000D01*
X156022452Y-53103000D01*
X156182227Y-53071218D01*
X156332731Y-53008877D01*
X156468181Y-52918372D01*
X156583372Y-52803181D01*
X156673877Y-52667731D01*
X156736218Y-52517227D01*
X156768000Y-52357452D01*
X156768000Y-52194548D01*
X156736218Y-52034773D01*
X156673877Y-51884269D01*
X156583372Y-51748819D01*
X156468181Y-51633628D01*
X156332731Y-51543123D01*
X156182227Y-51480782D01*
X156022452Y-51449000D01*
X155859548Y-51449000D01*
X155699773Y-51480782D01*
X155549269Y-51543123D01*
X155413819Y-51633628D01*
X155298628Y-51748819D01*
X155208123Y-51884269D01*
X155145782Y-52034773D01*
X155114000Y-52194548D01*
X155114000Y-52322354D01*
X153283856Y-54152500D01*
X153262789Y-54169789D01*
X153193809Y-54253842D01*
X153142552Y-54349738D01*
X153110988Y-54453790D01*
X153104598Y-54518670D01*
X153100330Y-54562000D01*
X153103000Y-54589106D01*
X153103000Y-54960447D01*
X153012628Y-55050819D01*
X152922123Y-55186269D01*
X152859782Y-55336773D01*
X152828000Y-55496548D01*
X149252000Y-55496548D01*
X149252000Y-53325252D01*
X149255275Y-53292000D01*
X149242204Y-53159285D01*
X149203492Y-53031670D01*
X149140628Y-52914059D01*
X149077224Y-52836801D01*
X149077222Y-52836799D01*
X149056027Y-52810973D01*
X149030201Y-52789778D01*
X148315226Y-52074804D01*
X148294027Y-52048973D01*
X148190941Y-51964372D01*
X148073330Y-51901508D01*
X147945715Y-51862796D01*
X147846252Y-51853000D01*
X147846245Y-51853000D01*
X147813000Y-51849726D01*
X147779755Y-51853000D01*
X147344032Y-51853000D01*
X147370000Y-51722452D01*
X147370000Y-51559548D01*
X147338218Y-51399773D01*
X147284077Y-51269066D01*
X147393000Y-51269066D01*
X147476707Y-51260822D01*
X147557196Y-51236405D01*
X147631376Y-51196755D01*
X147696395Y-51143395D01*
X147749755Y-51078376D01*
X147789405Y-51004196D01*
X147813822Y-50923707D01*
X147822066Y-50840000D01*
X147822066Y-49140000D01*
X149581934Y-49140000D01*
X149581934Y-50840000D01*
X149590178Y-50923707D01*
X149614595Y-51004196D01*
X149654245Y-51078376D01*
X149707605Y-51143395D01*
X149772624Y-51196755D01*
X149846804Y-51236405D01*
X149927293Y-51260822D01*
X150011000Y-51269066D01*
X151711000Y-51269066D01*
X151794707Y-51260822D01*
X151875196Y-51236405D01*
X151949376Y-51196755D01*
X152014395Y-51143395D01*
X152067755Y-51078376D01*
X152107405Y-51004196D01*
X152131822Y-50923707D01*
X152140066Y-50840000D01*
X152140066Y-50196544D01*
X152173074Y-50362487D01*
X152269337Y-50594886D01*
X152409089Y-50804040D01*
X152586960Y-50981911D01*
X152796114Y-51121663D01*
X153028513Y-51217926D01*
X153275226Y-51267000D01*
X153526774Y-51267000D01*
X153773487Y-51217926D01*
X154005886Y-51121663D01*
X154215040Y-50981911D01*
X154392911Y-50804040D01*
X154532663Y-50594886D01*
X154628926Y-50362487D01*
X154671000Y-50150966D01*
X154713074Y-50362487D01*
X154809337Y-50594886D01*
X154949089Y-50804040D01*
X155126960Y-50981911D01*
X155336114Y-51121663D01*
X155568513Y-51217926D01*
X155815226Y-51267000D01*
X156066774Y-51267000D01*
X156313487Y-51217926D01*
X156545886Y-51121663D01*
X156755040Y-50981911D01*
X156932911Y-50804040D01*
X157072663Y-50594886D01*
X157168926Y-50362487D01*
X157211000Y-50150966D01*
X157253074Y-50362487D01*
X157349337Y-50594886D01*
X157489089Y-50804040D01*
X157666960Y-50981911D01*
X157876114Y-51121663D01*
X158108513Y-51217926D01*
X158355226Y-51267000D01*
X158606774Y-51267000D01*
X158853487Y-51217926D01*
X159085886Y-51121663D01*
X159295040Y-50981911D01*
X159472911Y-50804040D01*
X159612663Y-50594886D01*
X159642197Y-50523584D01*
X159676843Y-50621252D01*
X159825822Y-50871355D01*
X160020731Y-51087588D01*
X160254080Y-51261641D01*
X160516901Y-51386825D01*
X160664110Y-51431476D01*
X160894000Y-51310155D01*
X160894000Y-50117000D01*
X161148000Y-50117000D01*
X161148000Y-51310155D01*
X161377890Y-51431476D01*
X161525099Y-51386825D01*
X161787920Y-51261641D01*
X162021269Y-51087588D01*
X162216178Y-50871355D01*
X162365157Y-50621252D01*
X162462481Y-50346891D01*
X162341814Y-50117000D01*
X161148000Y-50117000D01*
X160894000Y-50117000D01*
X160874000Y-50117000D01*
X160874000Y-49863000D01*
X160894000Y-49863000D01*
X160894000Y-48669845D01*
X161148000Y-48669845D01*
X161148000Y-49863000D01*
X162341814Y-49863000D01*
X162462481Y-49633109D01*
X162365157Y-49358748D01*
X162216178Y-49108645D01*
X162021269Y-48892412D01*
X161787920Y-48718359D01*
X161525099Y-48593175D01*
X161377890Y-48548524D01*
X161148000Y-48669845D01*
X160894000Y-48669845D01*
X160664110Y-48548524D01*
X160516901Y-48593175D01*
X160254080Y-48718359D01*
X160020731Y-48892412D01*
X159825822Y-49108645D01*
X159676843Y-49358748D01*
X159642197Y-49456416D01*
X159612663Y-49385114D01*
X159472911Y-49175960D01*
X159295040Y-48998089D01*
X159085886Y-48858337D01*
X158853487Y-48762074D01*
X158606774Y-48713000D01*
X158355226Y-48713000D01*
X158108513Y-48762074D01*
X157876114Y-48858337D01*
X157666960Y-48998089D01*
X157489089Y-49175960D01*
X157349337Y-49385114D01*
X157253074Y-49617513D01*
X157211000Y-49829034D01*
X157168926Y-49617513D01*
X157072663Y-49385114D01*
X156932911Y-49175960D01*
X156755040Y-48998089D01*
X156545886Y-48858337D01*
X156313487Y-48762074D01*
X156066774Y-48713000D01*
X155815226Y-48713000D01*
X155568513Y-48762074D01*
X155336114Y-48858337D01*
X155126960Y-48998089D01*
X154949089Y-49175960D01*
X154809337Y-49385114D01*
X154713074Y-49617513D01*
X154671000Y-49829034D01*
X154628926Y-49617513D01*
X154532663Y-49385114D01*
X154392911Y-49175960D01*
X154215040Y-48998089D01*
X154005886Y-48858337D01*
X153773487Y-48762074D01*
X153526774Y-48713000D01*
X153275226Y-48713000D01*
X153028513Y-48762074D01*
X152796114Y-48858337D01*
X152586960Y-48998089D01*
X152409089Y-49175960D01*
X152269337Y-49385114D01*
X152173074Y-49617513D01*
X152140066Y-49783456D01*
X152140066Y-49140000D01*
X152131822Y-49056293D01*
X152107405Y-48975804D01*
X152067755Y-48901624D01*
X152014395Y-48836605D01*
X151949376Y-48783245D01*
X151875196Y-48743595D01*
X151794707Y-48719178D01*
X151711000Y-48710934D01*
X150011000Y-48710934D01*
X149927293Y-48719178D01*
X149846804Y-48743595D01*
X149772624Y-48783245D01*
X149707605Y-48836605D01*
X149654245Y-48901624D01*
X149614595Y-48975804D01*
X149590178Y-49056293D01*
X149581934Y-49140000D01*
X147822066Y-49140000D01*
X147813822Y-49056293D01*
X147789405Y-48975804D01*
X147749755Y-48901624D01*
X147696395Y-48836605D01*
X147631376Y-48783245D01*
X147557196Y-48743595D01*
X147476707Y-48719178D01*
X147393000Y-48710934D01*
X145693000Y-48710934D01*
X145609293Y-48719178D01*
X145528804Y-48743595D01*
X145454624Y-48783245D01*
X145389605Y-48836605D01*
X145336245Y-48901624D01*
X145296595Y-48975804D01*
X145272178Y-49056293D01*
X145263934Y-49140000D01*
X145263934Y-49783456D01*
X145230926Y-49617513D01*
X145134663Y-49385114D01*
X144994911Y-49175960D01*
X144817040Y-48998089D01*
X144607886Y-48858337D01*
X144375487Y-48762074D01*
X144128774Y-48713000D01*
X143877226Y-48713000D01*
X143630513Y-48762074D01*
X143398114Y-48858337D01*
X143188960Y-48998089D01*
X143011089Y-49175960D01*
X142871337Y-49385114D01*
X142775074Y-49617513D01*
X142733000Y-49829034D01*
X142690926Y-49617513D01*
X142594663Y-49385114D01*
X142454911Y-49175960D01*
X142277040Y-48998089D01*
X142067886Y-48858337D01*
X141835487Y-48762074D01*
X141588774Y-48713000D01*
X141337226Y-48713000D01*
X141090513Y-48762074D01*
X140858114Y-48858337D01*
X140648960Y-48998089D01*
X140471089Y-49175960D01*
X140331337Y-49385114D01*
X140235074Y-49617513D01*
X140186000Y-49864226D01*
X140186000Y-50115774D01*
X140235074Y-50362487D01*
X140331337Y-50594886D01*
X140471089Y-50804040D01*
X140648960Y-50981911D01*
X140858114Y-51121663D01*
X141090513Y-51217926D01*
X141337226Y-51267000D01*
X141588774Y-51267000D01*
X141835487Y-51217926D01*
X142067886Y-51121663D01*
X142277040Y-50981911D01*
X142454911Y-50804040D01*
X142594663Y-50594886D01*
X142690926Y-50362487D01*
X142733000Y-50150966D01*
X142775074Y-50362487D01*
X142871337Y-50594886D01*
X143011089Y-50804040D01*
X143188960Y-50981911D01*
X143326000Y-51073478D01*
X143326000Y-51988755D01*
X143322726Y-52022000D01*
X143326000Y-52055245D01*
X143326000Y-52055251D01*
X143332577Y-52122027D01*
X143335796Y-52154714D01*
X143374508Y-52282329D01*
X143437372Y-52399940D01*
X143493228Y-52468000D01*
X143521973Y-52503026D01*
X143547800Y-52524222D01*
X144008774Y-52985196D01*
X144029973Y-53011027D01*
X144112536Y-53078786D01*
X142611000Y-53075928D01*
X142486518Y-53088188D01*
X142366820Y-53124498D01*
X142256506Y-53183463D01*
X142159815Y-53262815D01*
X142080463Y-53359506D01*
X142021498Y-53469820D01*
X141985188Y-53589518D01*
X141972928Y-53714000D01*
X141976000Y-54428250D01*
X142134750Y-54587000D01*
X144384000Y-54587000D01*
X144384000Y-54567000D01*
X144638000Y-54567000D01*
X144638000Y-54587000D01*
X146887250Y-54587000D01*
X147046000Y-54428250D01*
X147049072Y-53714000D01*
X147036812Y-53589518D01*
X147000502Y-53469820D01*
X146941537Y-53359506D01*
X146862185Y-53262815D01*
X146794174Y-53207000D01*
X147532578Y-53207000D01*
X147898001Y-53572424D01*
X147898000Y-59751553D01*
X147864395Y-59710605D01*
X147799376Y-59657245D01*
X147725196Y-59617595D01*
X147644707Y-59593178D01*
X147561000Y-59584934D01*
X147490319Y-59584934D01*
X147529877Y-59525731D01*
X147592218Y-59375227D01*
X147624000Y-59215452D01*
X147624000Y-59052548D01*
X147592218Y-58892773D01*
X147529877Y-58742269D01*
X147439372Y-58606819D01*
X147324181Y-58491628D01*
X147188731Y-58401123D01*
X147038227Y-58338782D01*
X146878452Y-58307000D01*
X146715548Y-58307000D01*
X146555773Y-58338782D01*
X146405269Y-58401123D01*
X146269819Y-58491628D01*
X146154628Y-58606819D01*
X146064123Y-58742269D01*
X146001782Y-58892773D01*
X145970000Y-59052548D01*
X145970000Y-59215452D01*
X146001782Y-59375227D01*
X146064123Y-59525731D01*
X146103681Y-59584934D01*
X146061000Y-59584934D01*
X145977293Y-59593178D01*
X145896804Y-59617595D01*
X145822624Y-59657245D01*
X145800176Y-59675668D01*
X145791537Y-59659506D01*
X145712185Y-59562815D01*
X145615494Y-59483463D01*
X145505180Y-59424498D01*
X145385482Y-59388188D01*
X145261000Y-59375928D01*
X144796750Y-59379000D01*
X144638000Y-59537750D01*
X144638000Y-60887000D01*
X144658000Y-60887000D01*
X144658000Y-61141000D01*
X144638000Y-61141000D01*
X144638000Y-62490250D01*
X144796750Y-62649000D01*
X145261000Y-62652072D01*
X145385482Y-62639812D01*
X145505180Y-62603502D01*
X145615494Y-62544537D01*
X145712185Y-62465185D01*
X145791537Y-62368494D01*
X145800176Y-62352332D01*
X145822624Y-62370755D01*
X145896804Y-62410405D01*
X145977293Y-62434822D01*
X146061000Y-62443066D01*
X147561000Y-62443066D01*
X147644707Y-62434822D01*
X147725196Y-62410405D01*
X147799376Y-62370755D01*
X147864395Y-62317395D01*
X147917755Y-62252376D01*
X147957405Y-62178196D01*
X147981822Y-62097707D01*
X147990066Y-62014000D01*
X147990066Y-61848821D01*
X148009372Y-61884940D01*
X148093973Y-61988026D01*
X148119800Y-62009222D01*
X150784774Y-64674196D01*
X150805973Y-64700027D01*
X150909059Y-64784628D01*
X151026670Y-64847492D01*
X151154285Y-64886204D01*
X151253748Y-64896000D01*
X151253757Y-64896000D01*
X151286999Y-64899274D01*
X151320241Y-64896000D01*
X151357934Y-64896000D01*
X151357934Y-65019000D01*
X151366178Y-65102707D01*
X151390595Y-65183196D01*
X151430245Y-65257376D01*
X151483605Y-65322395D01*
X151548624Y-65375755D01*
X151622804Y-65415405D01*
X151703293Y-65439822D01*
X151787000Y-65448066D01*
X153387000Y-65448066D01*
X153470707Y-65439822D01*
X153486000Y-65435183D01*
X153486000Y-65922760D01*
X153369167Y-65805927D01*
X153168202Y-65671647D01*
X152944903Y-65579153D01*
X152707849Y-65532000D01*
X152466151Y-65532000D01*
X152229097Y-65579153D01*
X152005798Y-65671647D01*
X151804833Y-65805927D01*
X151778760Y-65832000D01*
X150052259Y-65832000D01*
X149980923Y-65745077D01*
X149763634Y-65566752D01*
X149515731Y-65434245D01*
X149246741Y-65352648D01*
X149037098Y-65332000D01*
X140896902Y-65332000D01*
X140687259Y-65352648D01*
X140418269Y-65434245D01*
X140170366Y-65566752D01*
X139953077Y-65745077D01*
X139774752Y-65962366D01*
X139710806Y-66082000D01*
X136117422Y-66082000D01*
X135566066Y-65530644D01*
X135566066Y-65033999D01*
X135553018Y-64901520D01*
X135514375Y-64774132D01*
X135451623Y-64656731D01*
X135367172Y-64553828D01*
X135264269Y-64469377D01*
X135146868Y-64406625D01*
X135019480Y-64367982D01*
X134916484Y-64357838D01*
X133929193Y-63370548D01*
X139438500Y-63370548D01*
X139438500Y-63533452D01*
X139470282Y-63693227D01*
X139532623Y-63843731D01*
X139623128Y-63979181D01*
X139738319Y-64094372D01*
X139873769Y-64184877D01*
X140024273Y-64247218D01*
X140184048Y-64279000D01*
X140346952Y-64279000D01*
X140506727Y-64247218D01*
X140657231Y-64184877D01*
X140792681Y-64094372D01*
X140907872Y-63979181D01*
X140998377Y-63843731D01*
X141060718Y-63693227D01*
X141092500Y-63533452D01*
X141092500Y-63370548D01*
X141060718Y-63210773D01*
X140998377Y-63060269D01*
X140907872Y-62924819D01*
X140792681Y-62809628D01*
X140657231Y-62719123D01*
X140506727Y-62656782D01*
X140346952Y-62625000D01*
X140184048Y-62625000D01*
X140024273Y-62656782D01*
X139873769Y-62719123D01*
X139738319Y-62809628D01*
X139623128Y-62924819D01*
X139532623Y-63060269D01*
X139470282Y-63210773D01*
X139438500Y-63370548D01*
X133929193Y-63370548D01*
X133893500Y-63334856D01*
X133876211Y-63313789D01*
X133792158Y-63244809D01*
X133696263Y-63193552D01*
X133592211Y-63161988D01*
X133511109Y-63154000D01*
X133511106Y-63154000D01*
X133484000Y-63151330D01*
X133456894Y-63154000D01*
X129784553Y-63154000D01*
X129694181Y-63063628D01*
X129558731Y-62973123D01*
X129408227Y-62910782D01*
X129248452Y-62879000D01*
X129085548Y-62879000D01*
X128925773Y-62910782D01*
X128775269Y-62973123D01*
X128639819Y-63063628D01*
X128524628Y-63178819D01*
X128434123Y-63314269D01*
X128371782Y-63464773D01*
X128340000Y-63624548D01*
X128340000Y-63787452D01*
X128371782Y-63947227D01*
X128434123Y-64097731D01*
X128468094Y-64148572D01*
X128427750Y-64149000D01*
X128269000Y-64307750D01*
X128269000Y-65357000D01*
X128289000Y-65357000D01*
X128289000Y-65611000D01*
X128269000Y-65611000D01*
X128269000Y-66660250D01*
X128427750Y-66819000D01*
X128468094Y-66819428D01*
X128434123Y-66870269D01*
X128371782Y-67020773D01*
X128340000Y-67180548D01*
X128340000Y-67343452D01*
X128371782Y-67503227D01*
X128434123Y-67653731D01*
X128524628Y-67789181D01*
X128639819Y-67904372D01*
X128725751Y-67961790D01*
X128717000Y-67960928D01*
X128427750Y-67964000D01*
X128269000Y-68122750D01*
X128269000Y-69172000D01*
X128289000Y-69172000D01*
X128289000Y-69426000D01*
X128269000Y-69426000D01*
X128269000Y-70475250D01*
X128427750Y-70634000D01*
X128464776Y-70634393D01*
X128434123Y-70680269D01*
X128371782Y-70830773D01*
X128340000Y-70990548D01*
X128340000Y-71153452D01*
X128371782Y-71313227D01*
X128434123Y-71463731D01*
X128524628Y-71599181D01*
X128639819Y-71714372D01*
X128716978Y-71765928D01*
X128427750Y-71769000D01*
X128269000Y-71927750D01*
X128269000Y-72977000D01*
X128289000Y-72977000D01*
X128289000Y-73231000D01*
X128269000Y-73231000D01*
X128269000Y-73251000D01*
X128015000Y-73251000D01*
X128015000Y-73231000D01*
X127090750Y-73231000D01*
X126932000Y-73389750D01*
X126928928Y-73804000D01*
X126937152Y-73887500D01*
X126764241Y-73887500D01*
X126730999Y-73884226D01*
X126697757Y-73887500D01*
X126697748Y-73887500D01*
X126598285Y-73897296D01*
X126470670Y-73936008D01*
X126353059Y-73998872D01*
X126249973Y-74083473D01*
X126228776Y-74109302D01*
X124751800Y-75586278D01*
X124725973Y-75607474D01*
X124641372Y-75710560D01*
X124578508Y-75828171D01*
X124539796Y-75955786D01*
X124530000Y-76055249D01*
X124530000Y-76055255D01*
X124526726Y-76088500D01*
X124530000Y-76121745D01*
X124530000Y-77182306D01*
X124410366Y-77246252D01*
X124193077Y-77424578D01*
X124014752Y-77641867D01*
X123882245Y-77889770D01*
X123800648Y-78158760D01*
X123780000Y-78368403D01*
X121849000Y-78368403D01*
X121849000Y-72404000D01*
X126928928Y-72404000D01*
X126932000Y-72818250D01*
X127090750Y-72977000D01*
X128015000Y-72977000D01*
X128015000Y-71927750D01*
X127856250Y-71769000D01*
X127567000Y-71765928D01*
X127442518Y-71778188D01*
X127322820Y-71814498D01*
X127212506Y-71873463D01*
X127115815Y-71952815D01*
X127036463Y-72049506D01*
X126977498Y-72159820D01*
X126941188Y-72279518D01*
X126928928Y-72404000D01*
X121849000Y-72404000D01*
X121849000Y-69999000D01*
X126928928Y-69999000D01*
X126941188Y-70123482D01*
X126977498Y-70243180D01*
X127036463Y-70353494D01*
X127115815Y-70450185D01*
X127212506Y-70529537D01*
X127322820Y-70588502D01*
X127442518Y-70624812D01*
X127567000Y-70637072D01*
X127856250Y-70634000D01*
X128015000Y-70475250D01*
X128015000Y-69426000D01*
X127090750Y-69426000D01*
X126932000Y-69584750D01*
X126928928Y-69999000D01*
X121849000Y-69999000D01*
X121849000Y-68599000D01*
X126928928Y-68599000D01*
X126932000Y-69013250D01*
X127090750Y-69172000D01*
X128015000Y-69172000D01*
X128015000Y-68122750D01*
X127856250Y-67964000D01*
X127567000Y-67960928D01*
X127442518Y-67973188D01*
X127322820Y-68009498D01*
X127212506Y-68068463D01*
X127115815Y-68147815D01*
X127036463Y-68244506D01*
X126977498Y-68354820D01*
X126941188Y-68474518D01*
X126928928Y-68599000D01*
X121849000Y-68599000D01*
X121849000Y-66184000D01*
X126928928Y-66184000D01*
X126941188Y-66308482D01*
X126977498Y-66428180D01*
X127036463Y-66538494D01*
X127115815Y-66635185D01*
X127212506Y-66714537D01*
X127322820Y-66773502D01*
X127442518Y-66809812D01*
X127567000Y-66822072D01*
X127856250Y-66819000D01*
X128015000Y-66660250D01*
X128015000Y-65611000D01*
X127090750Y-65611000D01*
X126932000Y-65769750D01*
X126928928Y-66184000D01*
X121849000Y-66184000D01*
X121849000Y-64784000D01*
X126928928Y-64784000D01*
X126932000Y-65198250D01*
X127090750Y-65357000D01*
X128015000Y-65357000D01*
X128015000Y-64307750D01*
X127856250Y-64149000D01*
X127567000Y-64145928D01*
X127442518Y-64158188D01*
X127322820Y-64194498D01*
X127212506Y-64253463D01*
X127115815Y-64332815D01*
X127036463Y-64429506D01*
X126977498Y-64539820D01*
X126941188Y-64659518D01*
X126928928Y-64784000D01*
X121849000Y-64784000D01*
X121849000Y-55529000D01*
X126738928Y-55529000D01*
X126751188Y-55653482D01*
X126787498Y-55773180D01*
X126846463Y-55883494D01*
X126925815Y-55980185D01*
X127022506Y-56059537D01*
X127132820Y-56118502D01*
X127252518Y-56154812D01*
X127377000Y-56167072D01*
X128091250Y-56164000D01*
X128250000Y-56005250D01*
X128250000Y-54806000D01*
X128504000Y-54806000D01*
X128504000Y-56005250D01*
X128662750Y-56164000D01*
X129377000Y-56167072D01*
X129501482Y-56154812D01*
X129621180Y-56118502D01*
X129731494Y-56059537D01*
X129828185Y-55980185D01*
X129907537Y-55883494D01*
X129966502Y-55773180D01*
X129967068Y-55771312D01*
X130338974Y-55771312D01*
X130349734Y-55895933D01*
X130384599Y-56016059D01*
X130442230Y-56127076D01*
X130520412Y-56224716D01*
X130616140Y-56305228D01*
X130725736Y-56365517D01*
X130844987Y-56403266D01*
X130945250Y-56414000D01*
X131104000Y-56255250D01*
X131104000Y-55771312D01*
X131138974Y-55771312D01*
X131149734Y-55895933D01*
X131184599Y-56016059D01*
X131242230Y-56127076D01*
X131320412Y-56224716D01*
X131350000Y-56249601D01*
X131350000Y-56255250D01*
X131508750Y-56414000D01*
X131609013Y-56403266D01*
X131627000Y-56397572D01*
X131644987Y-56403266D01*
X131745250Y-56414000D01*
X131904000Y-56255250D01*
X131904000Y-56249601D01*
X131933588Y-56224716D01*
X132011770Y-56127076D01*
X132069401Y-56016059D01*
X132104266Y-55895933D01*
X132115026Y-55771312D01*
X132112000Y-55064750D01*
X131953250Y-54906000D01*
X131300750Y-54906000D01*
X131142000Y-55064750D01*
X131138974Y-55771312D01*
X131104000Y-55771312D01*
X131104000Y-54906000D01*
X130500750Y-54906000D01*
X130342000Y-55064750D01*
X130338974Y-55771312D01*
X129967068Y-55771312D01*
X130002812Y-55653482D01*
X130015072Y-55529000D01*
X130012000Y-54964750D01*
X129853250Y-54806000D01*
X128504000Y-54806000D01*
X128250000Y-54806000D01*
X126900750Y-54806000D01*
X126742000Y-54964750D01*
X126738928Y-55529000D01*
X121849000Y-55529000D01*
X121849000Y-53829000D01*
X126738928Y-53829000D01*
X126742000Y-54393250D01*
X126900750Y-54552000D01*
X128250000Y-54552000D01*
X128250000Y-53352750D01*
X128504000Y-53352750D01*
X128504000Y-54552000D01*
X129853250Y-54552000D01*
X130012000Y-54393250D01*
X130015072Y-53829000D01*
X130010905Y-53786688D01*
X130338974Y-53786688D01*
X130342000Y-54493250D01*
X130500750Y-54652000D01*
X131104000Y-54652000D01*
X131104000Y-53786688D01*
X131138974Y-53786688D01*
X131142000Y-54493250D01*
X131300750Y-54652000D01*
X131953250Y-54652000D01*
X132112000Y-54493250D01*
X132115026Y-53786688D01*
X132114363Y-53779000D01*
X132147934Y-53779000D01*
X132147934Y-55779000D01*
X132150000Y-55799978D01*
X132150000Y-56255250D01*
X132308750Y-56414000D01*
X132409013Y-56403266D01*
X132528264Y-56365517D01*
X132637860Y-56305228D01*
X132733588Y-56224716D01*
X132746920Y-56208066D01*
X133077000Y-56208066D01*
X133160707Y-56199822D01*
X133227000Y-56179711D01*
X133293293Y-56199822D01*
X133377000Y-56208066D01*
X133750001Y-56208066D01*
X133750001Y-56245746D01*
X133746726Y-56279000D01*
X133759796Y-56411714D01*
X133798508Y-56539329D01*
X133861372Y-56656940D01*
X133924776Y-56734198D01*
X133924779Y-56734201D01*
X133945974Y-56760027D01*
X133971800Y-56781222D01*
X135255774Y-58065196D01*
X135276973Y-58091027D01*
X135380059Y-58175628D01*
X135497670Y-58238492D01*
X135625285Y-58277204D01*
X135724748Y-58287000D01*
X135724757Y-58287000D01*
X135757999Y-58290274D01*
X135791241Y-58287000D01*
X140420578Y-58287000D01*
X141534000Y-59400422D01*
X141534000Y-59584934D01*
X141461000Y-59584934D01*
X141377293Y-59593178D01*
X141296804Y-59617595D01*
X141222624Y-59657245D01*
X141157605Y-59710605D01*
X141104245Y-59775624D01*
X141064595Y-59849804D01*
X141040178Y-59930293D01*
X141031934Y-60014000D01*
X141031934Y-62014000D01*
X141040178Y-62097707D01*
X141064595Y-62178196D01*
X141104245Y-62252376D01*
X141157605Y-62317395D01*
X141222624Y-62370755D01*
X141296804Y-62410405D01*
X141377293Y-62434822D01*
X141461000Y-62443066D01*
X141534001Y-62443066D01*
X141534001Y-62997595D01*
X141492123Y-63060269D01*
X141429782Y-63210773D01*
X141398000Y-63370548D01*
X141398000Y-63533452D01*
X141429782Y-63693227D01*
X141492123Y-63843731D01*
X141582628Y-63979181D01*
X141697819Y-64094372D01*
X141833269Y-64184877D01*
X141983773Y-64247218D01*
X142143548Y-64279000D01*
X142306452Y-64279000D01*
X142466227Y-64247218D01*
X142616731Y-64184877D01*
X142752181Y-64094372D01*
X142867372Y-63979181D01*
X142957877Y-63843731D01*
X143020218Y-63693227D01*
X143052000Y-63533452D01*
X143052000Y-63370548D01*
X143020218Y-63210773D01*
X142957877Y-63060269D01*
X142888000Y-62955691D01*
X142888000Y-62443066D01*
X142961000Y-62443066D01*
X143044707Y-62434822D01*
X143125196Y-62410405D01*
X143199376Y-62370755D01*
X143221824Y-62352332D01*
X143230463Y-62368494D01*
X143309815Y-62465185D01*
X143406506Y-62544537D01*
X143516820Y-62603502D01*
X143636518Y-62639812D01*
X143761000Y-62652072D01*
X144225250Y-62649000D01*
X144384000Y-62490250D01*
X144384000Y-61141000D01*
X144364000Y-61141000D01*
X144364000Y-60887000D01*
X144384000Y-60887000D01*
X144384000Y-59537750D01*
X144225250Y-59379000D01*
X143761000Y-59375928D01*
X143636518Y-59388188D01*
X143516820Y-59424498D01*
X143406506Y-59483463D01*
X143309815Y-59562815D01*
X143230463Y-59659506D01*
X143221824Y-59675668D01*
X143199376Y-59657245D01*
X143125196Y-59617595D01*
X143044707Y-59593178D01*
X142961000Y-59584934D01*
X142888000Y-59584934D01*
X142888000Y-59153241D01*
X142891274Y-59119999D01*
X142888000Y-59086757D01*
X142888000Y-59086748D01*
X142878204Y-58987285D01*
X142839492Y-58859670D01*
X142776628Y-58742059D01*
X142692026Y-58638973D01*
X142666200Y-58617778D01*
X141203226Y-57154804D01*
X141182027Y-57128973D01*
X141078941Y-57044372D01*
X140961330Y-56981508D01*
X140833715Y-56942796D01*
X140734252Y-56933000D01*
X140734245Y-56933000D01*
X140701000Y-56929726D01*
X140667755Y-56933000D01*
X136038422Y-56933000D01*
X135104000Y-55998578D01*
X135104000Y-55799978D01*
X135106066Y-55779000D01*
X135106066Y-55529000D01*
X135638928Y-55529000D01*
X135651188Y-55653482D01*
X135687498Y-55773180D01*
X135746463Y-55883494D01*
X135825815Y-55980185D01*
X135922506Y-56059537D01*
X136032820Y-56118502D01*
X136152518Y-56154812D01*
X136277000Y-56167072D01*
X136991250Y-56164000D01*
X137150000Y-56005250D01*
X137150000Y-54806000D01*
X137404000Y-54806000D01*
X137404000Y-56005250D01*
X137562750Y-56164000D01*
X138277000Y-56167072D01*
X138401482Y-56154812D01*
X138521180Y-56118502D01*
X138631494Y-56059537D01*
X138728185Y-55980185D01*
X138807537Y-55883494D01*
X138866502Y-55773180D01*
X138884454Y-55714000D01*
X141972928Y-55714000D01*
X141985188Y-55838482D01*
X142021498Y-55958180D01*
X142080463Y-56068494D01*
X142159815Y-56165185D01*
X142256506Y-56244537D01*
X142366820Y-56303502D01*
X142486518Y-56339812D01*
X142611000Y-56352072D01*
X144225250Y-56349000D01*
X144384000Y-56190250D01*
X144384000Y-54841000D01*
X144638000Y-54841000D01*
X144638000Y-56190250D01*
X144796750Y-56349000D01*
X146411000Y-56352072D01*
X146535482Y-56339812D01*
X146655180Y-56303502D01*
X146765494Y-56244537D01*
X146862185Y-56165185D01*
X146941537Y-56068494D01*
X147000502Y-55958180D01*
X147036812Y-55838482D01*
X147049072Y-55714000D01*
X147046000Y-54999750D01*
X146887250Y-54841000D01*
X144638000Y-54841000D01*
X144384000Y-54841000D01*
X142134750Y-54841000D01*
X141976000Y-54999750D01*
X141972928Y-55714000D01*
X138884454Y-55714000D01*
X138902812Y-55653482D01*
X138915072Y-55529000D01*
X138912000Y-54964750D01*
X138753250Y-54806000D01*
X137404000Y-54806000D01*
X137150000Y-54806000D01*
X135800750Y-54806000D01*
X135642000Y-54964750D01*
X135638928Y-55529000D01*
X135106066Y-55529000D01*
X135106066Y-53829000D01*
X135638928Y-53829000D01*
X135642000Y-54393250D01*
X135800750Y-54552000D01*
X137150000Y-54552000D01*
X137150000Y-53352750D01*
X137404000Y-53352750D01*
X137404000Y-54552000D01*
X138753250Y-54552000D01*
X138912000Y-54393250D01*
X138915072Y-53829000D01*
X138902812Y-53704518D01*
X138866502Y-53584820D01*
X138807537Y-53474506D01*
X138728185Y-53377815D01*
X138631494Y-53298463D01*
X138521180Y-53239498D01*
X138401482Y-53203188D01*
X138277000Y-53190928D01*
X137562750Y-53194000D01*
X137404000Y-53352750D01*
X137150000Y-53352750D01*
X136991250Y-53194000D01*
X136277000Y-53190928D01*
X136152518Y-53203188D01*
X136032820Y-53239498D01*
X135922506Y-53298463D01*
X135825815Y-53377815D01*
X135746463Y-53474506D01*
X135687498Y-53584820D01*
X135651188Y-53704518D01*
X135638928Y-53829000D01*
X135106066Y-53829000D01*
X135106066Y-53779000D01*
X135097822Y-53695293D01*
X135073405Y-53614804D01*
X135033755Y-53540624D01*
X134980395Y-53475605D01*
X134915376Y-53422245D01*
X134841196Y-53382595D01*
X134760707Y-53358178D01*
X134677000Y-53349934D01*
X134177000Y-53349934D01*
X134093293Y-53358178D01*
X134027000Y-53378289D01*
X133960707Y-53358178D01*
X133877000Y-53349934D01*
X133377000Y-53349934D01*
X133293293Y-53358178D01*
X133227000Y-53378289D01*
X133160707Y-53358178D01*
X133077000Y-53349934D01*
X132746920Y-53349934D01*
X132733588Y-53333284D01*
X132637860Y-53252772D01*
X132528264Y-53192483D01*
X132409013Y-53154734D01*
X132308750Y-53144000D01*
X132150000Y-53302750D01*
X132150000Y-53758022D01*
X132147934Y-53779000D01*
X132114363Y-53779000D01*
X132104266Y-53662067D01*
X132069401Y-53541941D01*
X132011770Y-53430924D01*
X131933588Y-53333284D01*
X131904000Y-53308399D01*
X131904000Y-53302750D01*
X131745250Y-53144000D01*
X131644987Y-53154734D01*
X131627000Y-53160428D01*
X131609013Y-53154734D01*
X131508750Y-53144000D01*
X131350000Y-53302750D01*
X131350000Y-53308399D01*
X131320412Y-53333284D01*
X131242230Y-53430924D01*
X131184599Y-53541941D01*
X131149734Y-53662067D01*
X131138974Y-53786688D01*
X131104000Y-53786688D01*
X131104000Y-53302750D01*
X130945250Y-53144000D01*
X130844987Y-53154734D01*
X130725736Y-53192483D01*
X130616140Y-53252772D01*
X130520412Y-53333284D01*
X130442230Y-53430924D01*
X130384599Y-53541941D01*
X130349734Y-53662067D01*
X130338974Y-53786688D01*
X130010905Y-53786688D01*
X130002812Y-53704518D01*
X129966502Y-53584820D01*
X129907537Y-53474506D01*
X129828185Y-53377815D01*
X129731494Y-53298463D01*
X129621180Y-53239498D01*
X129501482Y-53203188D01*
X129377000Y-53190928D01*
X128662750Y-53194000D01*
X128504000Y-53352750D01*
X128250000Y-53352750D01*
X128091250Y-53194000D01*
X127377000Y-53190928D01*
X127252518Y-53203188D01*
X127132820Y-53239498D01*
X127022506Y-53298463D01*
X126925815Y-53377815D01*
X126846463Y-53474506D01*
X126787498Y-53584820D01*
X126751188Y-53704518D01*
X126738928Y-53829000D01*
X121849000Y-53829000D01*
X121849000Y-51987699D01*
X129700000Y-51987699D01*
X129700000Y-52170301D01*
X129735624Y-52349396D01*
X129805504Y-52518099D01*
X129906952Y-52669928D01*
X130036072Y-52799048D01*
X130187901Y-52900496D01*
X130356604Y-52970376D01*
X130535699Y-53006000D01*
X130718301Y-53006000D01*
X130897396Y-52970376D01*
X131066099Y-52900496D01*
X131217928Y-52799048D01*
X131347048Y-52669928D01*
X131448496Y-52518099D01*
X131518376Y-52349396D01*
X131554000Y-52170301D01*
X131554000Y-51987699D01*
X134100000Y-51987699D01*
X134100000Y-52170301D01*
X134135624Y-52349396D01*
X134205504Y-52518099D01*
X134306952Y-52669928D01*
X134436072Y-52799048D01*
X134587901Y-52900496D01*
X134756604Y-52970376D01*
X134935699Y-53006000D01*
X135118301Y-53006000D01*
X135297396Y-52970376D01*
X135466099Y-52900496D01*
X135617928Y-52799048D01*
X135747048Y-52669928D01*
X135848496Y-52518099D01*
X135918376Y-52349396D01*
X135954000Y-52170301D01*
X135954000Y-51987699D01*
X135918376Y-51808604D01*
X135848496Y-51639901D01*
X135747048Y-51488072D01*
X135617928Y-51358952D01*
X135466099Y-51257504D01*
X135297396Y-51187624D01*
X135118301Y-51152000D01*
X134935699Y-51152000D01*
X134756604Y-51187624D01*
X134587901Y-51257504D01*
X134436072Y-51358952D01*
X134306952Y-51488072D01*
X134205504Y-51639901D01*
X134135624Y-51808604D01*
X134100000Y-51987699D01*
X131554000Y-51987699D01*
X131518376Y-51808604D01*
X131448496Y-51639901D01*
X131347048Y-51488072D01*
X131217928Y-51358952D01*
X131066099Y-51257504D01*
X130897396Y-51187624D01*
X130718301Y-51152000D01*
X130535699Y-51152000D01*
X130356604Y-51187624D01*
X130187901Y-51257504D01*
X130036072Y-51358952D01*
X129906952Y-51488072D01*
X129805504Y-51639901D01*
X129735624Y-51808604D01*
X129700000Y-51987699D01*
X121849000Y-51987699D01*
X121849000Y-51083135D01*
X121922647Y-50257935D01*
X121971598Y-50079000D01*
X126738928Y-50079000D01*
X126751188Y-50203482D01*
X126787498Y-50323180D01*
X126846463Y-50433494D01*
X126925815Y-50530185D01*
X127022506Y-50609537D01*
X127132820Y-50668502D01*
X127252518Y-50704812D01*
X127377000Y-50717072D01*
X128091250Y-50714000D01*
X128250000Y-50555250D01*
X128250000Y-49356000D01*
X128504000Y-49356000D01*
X128504000Y-50555250D01*
X128662750Y-50714000D01*
X129377000Y-50717072D01*
X129501482Y-50704812D01*
X129621180Y-50668502D01*
X129731494Y-50609537D01*
X129828185Y-50530185D01*
X129907537Y-50433494D01*
X129966502Y-50323180D01*
X130002812Y-50203482D01*
X130015072Y-50079000D01*
X135638928Y-50079000D01*
X135651188Y-50203482D01*
X135687498Y-50323180D01*
X135746463Y-50433494D01*
X135825815Y-50530185D01*
X135922506Y-50609537D01*
X136032820Y-50668502D01*
X136152518Y-50704812D01*
X136277000Y-50717072D01*
X136991250Y-50714000D01*
X137150000Y-50555250D01*
X137150000Y-49356000D01*
X137404000Y-49356000D01*
X137404000Y-50555250D01*
X137562750Y-50714000D01*
X138277000Y-50717072D01*
X138401482Y-50704812D01*
X138521180Y-50668502D01*
X138631494Y-50609537D01*
X138728185Y-50530185D01*
X138807537Y-50433494D01*
X138866502Y-50323180D01*
X138902812Y-50203482D01*
X138915072Y-50079000D01*
X138912000Y-49514750D01*
X138753250Y-49356000D01*
X137404000Y-49356000D01*
X137150000Y-49356000D01*
X135800750Y-49356000D01*
X135642000Y-49514750D01*
X135638928Y-50079000D01*
X130015072Y-50079000D01*
X130012000Y-49514750D01*
X129853250Y-49356000D01*
X128504000Y-49356000D01*
X128250000Y-49356000D01*
X126900750Y-49356000D01*
X126742000Y-49514750D01*
X126738928Y-50079000D01*
X121971598Y-50079000D01*
X122135925Y-49478322D01*
X122483889Y-48748799D01*
X122749616Y-48379000D01*
X126738928Y-48379000D01*
X126742000Y-48943250D01*
X126900750Y-49102000D01*
X128250000Y-49102000D01*
X128250000Y-47902750D01*
X128504000Y-47902750D01*
X128504000Y-49102000D01*
X129853250Y-49102000D01*
X130012000Y-48943250D01*
X130015072Y-48379000D01*
X135638928Y-48379000D01*
X135642000Y-48943250D01*
X135800750Y-49102000D01*
X137150000Y-49102000D01*
X137150000Y-47902750D01*
X137404000Y-47902750D01*
X137404000Y-49102000D01*
X138753250Y-49102000D01*
X138912000Y-48943250D01*
X138915072Y-48379000D01*
X138902812Y-48254518D01*
X138866502Y-48134820D01*
X138807537Y-48024506D01*
X138728185Y-47927815D01*
X138631494Y-47848463D01*
X138521180Y-47789498D01*
X138401482Y-47753188D01*
X138277000Y-47740928D01*
X137562750Y-47744000D01*
X137404000Y-47902750D01*
X137150000Y-47902750D01*
X136991250Y-47744000D01*
X136277000Y-47740928D01*
X136152518Y-47753188D01*
X136032820Y-47789498D01*
X135922506Y-47848463D01*
X135825815Y-47927815D01*
X135746463Y-48024506D01*
X135687498Y-48134820D01*
X135651188Y-48254518D01*
X135638928Y-48379000D01*
X130015072Y-48379000D01*
X130002812Y-48254518D01*
X129966502Y-48134820D01*
X129907537Y-48024506D01*
X129828185Y-47927815D01*
X129731494Y-47848463D01*
X129621180Y-47789498D01*
X129501482Y-47753188D01*
X129377000Y-47740928D01*
X128662750Y-47744000D01*
X128504000Y-47902750D01*
X128250000Y-47902750D01*
X128091250Y-47744000D01*
X127377000Y-47740928D01*
X127252518Y-47753188D01*
X127132820Y-47789498D01*
X127022506Y-47848463D01*
X126925815Y-47927815D01*
X126846463Y-48024506D01*
X126787498Y-48134820D01*
X126751188Y-48254518D01*
X126738928Y-48379000D01*
X122749616Y-48379000D01*
X122955548Y-48092416D01*
X123535983Y-47529935D01*
X124206851Y-47079132D01*
X124946949Y-46754251D01*
X125736355Y-46564731D01*
X126413572Y-46515000D01*
X186376865Y-46515000D01*
X187202065Y-46588647D01*
G37*
X187202065Y-46588647D02*
X187981678Y-46801925D01*
X188711201Y-47149889D01*
X189367584Y-47621548D01*
X189930065Y-48201983D01*
X190380868Y-48872851D01*
X190705749Y-49612949D01*
X190895269Y-50402355D01*
X190945000Y-51079572D01*
X190945001Y-121040786D01*
X190945000Y-121040796D01*
X190945001Y-141042854D01*
X190871353Y-141868066D01*
X190658075Y-142647678D01*
X190310108Y-143377205D01*
X189838452Y-144033584D01*
X189258017Y-144596065D01*
X188587149Y-145046869D01*
X187847054Y-145371748D01*
X187057647Y-145561269D01*
X186380429Y-145611000D01*
X126417135Y-145611000D01*
X125591934Y-145537353D01*
X124812322Y-145324075D01*
X124082795Y-144976108D01*
X123426416Y-144504452D01*
X122863935Y-143924017D01*
X122413131Y-143253149D01*
X122088252Y-142513054D01*
X121898731Y-141723647D01*
X121849000Y-141046429D01*
X121849000Y-140815830D01*
X131334775Y-140815830D01*
X132378590Y-141889270D01*
X134011451Y-142817449D01*
X135794016Y-143409238D01*
X137657782Y-143641894D01*
X139531125Y-143506478D01*
X141342054Y-143008192D01*
X143020976Y-142166186D01*
X143435410Y-141889270D01*
X144479225Y-140815830D01*
X137907000Y-134243605D01*
X131334775Y-140815830D01*
X121849000Y-140815830D01*
X121849000Y-131524000D01*
X125857934Y-131524000D01*
X125857934Y-136604000D01*
X125866178Y-136687707D01*
X125890595Y-136768196D01*
X125930245Y-136842376D01*
X125983605Y-136907395D01*
X126048624Y-136960755D01*
X126122804Y-137000405D01*
X126203293Y-137024822D01*
X126287000Y-137033066D01*
X127557000Y-137033066D01*
X127640707Y-137024822D01*
X127721196Y-137000405D01*
X127795376Y-136960755D01*
X127860395Y-136907395D01*
X127913755Y-136842376D01*
X127953405Y-136768196D01*
X127977822Y-136687707D01*
X127986066Y-136604000D01*
X127986066Y-133814782D01*
X128329106Y-133814782D01*
X128464522Y-135688125D01*
X128962808Y-137499054D01*
X129804814Y-139177976D01*
X130081730Y-139592410D01*
X131155170Y-140636225D01*
X137727395Y-134064000D01*
X138086605Y-134064000D01*
X144658830Y-140636225D01*
X145732270Y-139592410D01*
X146660449Y-137959549D01*
X147252238Y-136176984D01*
X147484894Y-134313218D01*
X147349478Y-132439875D01*
X147097471Y-131524000D01*
X147827934Y-131524000D01*
X147827934Y-136604000D01*
X147836178Y-136687707D01*
X147860595Y-136768196D01*
X147900245Y-136842376D01*
X147953605Y-136907395D01*
X148018624Y-136960755D01*
X148092804Y-137000405D01*
X148173293Y-137024822D01*
X148257000Y-137033066D01*
X149527000Y-137033066D01*
X149610707Y-137024822D01*
X149691196Y-137000405D01*
X149765376Y-136960755D01*
X149830395Y-136907395D01*
X149883755Y-136842376D01*
X149923405Y-136768196D01*
X149947822Y-136687707D01*
X149956066Y-136604000D01*
X149956066Y-131524000D01*
X149947822Y-131440293D01*
X149923405Y-131359804D01*
X149883755Y-131285624D01*
X149830395Y-131220605D01*
X149765376Y-131167245D01*
X149691196Y-131127595D01*
X149610707Y-131103178D01*
X149527000Y-131094934D01*
X148257000Y-131094934D01*
X148173293Y-131103178D01*
X148092804Y-131127595D01*
X148018624Y-131167245D01*
X147953605Y-131220605D01*
X147900245Y-131285624D01*
X147860595Y-131359804D01*
X147836178Y-131440293D01*
X147827934Y-131524000D01*
X147097471Y-131524000D01*
X146851192Y-130628946D01*
X146009186Y-128950024D01*
X145732270Y-128535590D01*
X144658830Y-127491775D01*
X138086605Y-134064000D01*
X137727395Y-134064000D01*
X131155170Y-127491775D01*
X130081730Y-128535590D01*
X129153551Y-130168451D01*
X128561762Y-131951016D01*
X128329106Y-133814782D01*
X127986066Y-133814782D01*
X127986066Y-131524000D01*
X127977822Y-131440293D01*
X127953405Y-131359804D01*
X127913755Y-131285624D01*
X127860395Y-131220605D01*
X127795376Y-131167245D01*
X127721196Y-131127595D01*
X127662000Y-131109637D01*
X127662000Y-130729357D01*
X127717877Y-130645731D01*
X127780218Y-130495227D01*
X127812000Y-130335452D01*
X127812000Y-130172548D01*
X127780218Y-130012773D01*
X127717877Y-129862269D01*
X127627372Y-129726819D01*
X127512181Y-129611628D01*
X127376731Y-129521123D01*
X127226227Y-129458782D01*
X127066452Y-129427000D01*
X126903548Y-129427000D01*
X126743773Y-129458782D01*
X126593269Y-129521123D01*
X126457819Y-129611628D01*
X126342628Y-129726819D01*
X126252123Y-129862269D01*
X126189782Y-130012773D01*
X126158000Y-130172548D01*
X126158000Y-130335452D01*
X126189782Y-130495227D01*
X126252123Y-130645731D01*
X126308000Y-130729357D01*
X126308000Y-131094934D01*
X126287000Y-131094934D01*
X126203293Y-131103178D01*
X126122804Y-131127595D01*
X126048624Y-131167245D01*
X125983605Y-131220605D01*
X125930245Y-131285624D01*
X125890595Y-131359804D01*
X125866178Y-131440293D01*
X125857934Y-131524000D01*
X121849000Y-131524000D01*
X121849000Y-127312170D01*
X131334775Y-127312170D01*
X137907000Y-133884395D01*
X144479225Y-127312170D01*
X143435410Y-126238730D01*
X141802549Y-125310551D01*
X140019984Y-124718762D01*
X138156218Y-124486106D01*
X136282875Y-124621522D01*
X134471946Y-125119808D01*
X132793024Y-125961814D01*
X132378590Y-126238730D01*
X131334775Y-127312170D01*
X121849000Y-127312170D01*
X121849000Y-97805500D01*
X123572000Y-97805500D01*
X123572000Y-101805500D01*
X123628193Y-102122032D01*
X123745058Y-102421520D01*
X123918105Y-102692454D01*
X124140683Y-102924422D01*
X124404239Y-103108510D01*
X124698645Y-103237644D01*
X124826566Y-103268624D01*
X125080000Y-103149277D01*
X125080000Y-97805500D01*
X123572000Y-97805500D01*
X121849000Y-97805500D01*
X121849000Y-93551500D01*
X123572000Y-93551500D01*
X123572000Y-97551500D01*
X125080000Y-97551500D01*
X125080000Y-92207723D01*
X124826566Y-92088376D01*
X124698645Y-92119356D01*
X124404239Y-92248490D01*
X124140683Y-92432578D01*
X123918105Y-92664546D01*
X123745058Y-92935480D01*
X123628193Y-93234968D01*
X123572000Y-93551500D01*
X121849000Y-93551500D01*
X121849000Y-78368403D01*
X123780000Y-78368403D01*
X123780001Y-86508598D01*
X123800649Y-86718241D01*
X123882246Y-86987231D01*
X124014753Y-87235134D01*
X124193078Y-87452423D01*
X124410367Y-87630748D01*
X124658270Y-87763255D01*
X124927260Y-87844852D01*
X125207000Y-87872404D01*
X125486741Y-87844852D01*
X125755731Y-87763255D01*
X126003634Y-87630748D01*
X126080000Y-87568076D01*
X126080000Y-92297550D01*
X126009761Y-92248490D01*
X125715355Y-92119356D01*
X125587434Y-92088376D01*
X125334000Y-92207723D01*
X125334000Y-97551500D01*
X125354000Y-97551500D01*
X125354000Y-97805500D01*
X125334000Y-97805500D01*
X125334000Y-103149277D01*
X125587434Y-103268624D01*
X125715355Y-103237644D01*
X126009761Y-103108510D01*
X126080000Y-103059450D01*
X126080000Y-122283000D01*
X126082440Y-122307776D01*
X126089667Y-122331601D01*
X126101403Y-122353557D01*
X126117197Y-122372803D01*
X126136443Y-122388597D01*
X126158399Y-122400333D01*
X126182224Y-122407560D01*
X126207000Y-122410000D01*
X151480000Y-122410000D01*
X151480000Y-142603000D01*
X151482440Y-142627776D01*
X151489667Y-142651601D01*
X151501403Y-142673557D01*
X151517197Y-142692803D01*
X151536443Y-142708597D01*
X151558399Y-142720333D01*
X151582224Y-142727560D01*
X151607000Y-142730000D01*
X178277000Y-142730000D01*
X178301776Y-142727560D01*
X178325601Y-142720333D01*
X178347557Y-142708597D01*
X178366803Y-142692803D01*
X178382597Y-142673557D01*
X178394333Y-142651601D01*
X178401560Y-142627776D01*
X178404000Y-142603000D01*
X178404000Y-141398413D01*
X181893192Y-141398413D01*
X181988956Y-141662814D01*
X182278571Y-141803704D01*
X182590108Y-141885384D01*
X182911595Y-141904718D01*
X183230675Y-141860961D01*
X183535088Y-141755795D01*
X183709044Y-141662814D01*
X183804808Y-141398413D01*
X182849000Y-140442605D01*
X181893192Y-141398413D01*
X178404000Y-141398413D01*
X178404000Y-140325595D01*
X181207282Y-140325595D01*
X181251039Y-140644675D01*
X181356205Y-140949088D01*
X181449186Y-141123044D01*
X181713587Y-141218808D01*
X182669395Y-140263000D01*
X183028605Y-140263000D01*
X183984413Y-141218808D01*
X184248814Y-141123044D01*
X184389704Y-140833429D01*
X184471384Y-140521892D01*
X184490718Y-140200405D01*
X184480029Y-140122453D01*
X185922000Y-140122453D01*
X185922000Y-140403547D01*
X185976838Y-140679241D01*
X186084409Y-140938938D01*
X186240576Y-141172660D01*
X186439340Y-141371424D01*
X186673062Y-141527591D01*
X186932759Y-141635162D01*
X187208453Y-141690000D01*
X187489547Y-141690000D01*
X187765241Y-141635162D01*
X188024938Y-141527591D01*
X188258660Y-141371424D01*
X188457424Y-141172660D01*
X188613591Y-140938938D01*
X188721162Y-140679241D01*
X188776000Y-140403547D01*
X188776000Y-140122453D01*
X188721162Y-139846759D01*
X188613591Y-139587062D01*
X188457424Y-139353340D01*
X188258660Y-139154576D01*
X188024938Y-138998409D01*
X187765241Y-138890838D01*
X187489547Y-138836000D01*
X187208453Y-138836000D01*
X186932759Y-138890838D01*
X186673062Y-138998409D01*
X186439340Y-139154576D01*
X186240576Y-139353340D01*
X186084409Y-139587062D01*
X185976838Y-139846759D01*
X185922000Y-140122453D01*
X184480029Y-140122453D01*
X184446961Y-139881325D01*
X184341795Y-139576912D01*
X184248814Y-139402956D01*
X183984413Y-139307192D01*
X183028605Y-140263000D01*
X182669395Y-140263000D01*
X181713587Y-139307192D01*
X181449186Y-139402956D01*
X181308296Y-139692571D01*
X181226616Y-140004108D01*
X181207282Y-140325595D01*
X178404000Y-140325595D01*
X178404000Y-139127587D01*
X181893192Y-139127587D01*
X182849000Y-140083395D01*
X183804808Y-139127587D01*
X183709044Y-138863186D01*
X183419429Y-138722296D01*
X183107892Y-138640616D01*
X182786405Y-138621282D01*
X182467325Y-138665039D01*
X182162912Y-138770205D01*
X181988956Y-138863186D01*
X181893192Y-139127587D01*
X178404000Y-139127587D01*
X178404000Y-134898413D01*
X181893192Y-134898413D01*
X181988956Y-135162814D01*
X182278571Y-135303704D01*
X182590108Y-135385384D01*
X182911595Y-135404718D01*
X183230675Y-135360961D01*
X183535088Y-135255795D01*
X183709044Y-135162814D01*
X183804808Y-134898413D01*
X182849000Y-133942605D01*
X181893192Y-134898413D01*
X178404000Y-134898413D01*
X178404000Y-133825595D01*
X181207282Y-133825595D01*
X181251039Y-134144675D01*
X181356205Y-134449088D01*
X181449186Y-134623044D01*
X181713587Y-134718808D01*
X182669395Y-133763000D01*
X183028605Y-133763000D01*
X183984413Y-134718808D01*
X184248814Y-134623044D01*
X184389704Y-134333429D01*
X184471384Y-134021892D01*
X184490718Y-133700405D01*
X184480029Y-133622453D01*
X185922000Y-133622453D01*
X185922000Y-133903547D01*
X185976838Y-134179241D01*
X186084409Y-134438938D01*
X186240576Y-134672660D01*
X186439340Y-134871424D01*
X186673062Y-135027591D01*
X186932759Y-135135162D01*
X187208453Y-135190000D01*
X187489547Y-135190000D01*
X187765241Y-135135162D01*
X188024938Y-135027591D01*
X188258660Y-134871424D01*
X188457424Y-134672660D01*
X188613591Y-134438938D01*
X188721162Y-134179241D01*
X188776000Y-133903547D01*
X188776000Y-133622453D01*
X188721162Y-133346759D01*
X188613591Y-133087062D01*
X188457424Y-132853340D01*
X188258660Y-132654576D01*
X188024938Y-132498409D01*
X187765241Y-132390838D01*
X187489547Y-132336000D01*
X187208453Y-132336000D01*
X186932759Y-132390838D01*
X186673062Y-132498409D01*
X186439340Y-132654576D01*
X186240576Y-132853340D01*
X186084409Y-133087062D01*
X185976838Y-133346759D01*
X185922000Y-133622453D01*
X184480029Y-133622453D01*
X184446961Y-133381325D01*
X184341795Y-133076912D01*
X184248814Y-132902956D01*
X183984413Y-132807192D01*
X183028605Y-133763000D01*
X182669395Y-133763000D01*
X181713587Y-132807192D01*
X181449186Y-132902956D01*
X181308296Y-133192571D01*
X181226616Y-133504108D01*
X181207282Y-133825595D01*
X178404000Y-133825595D01*
X178404000Y-132627587D01*
X181893192Y-132627587D01*
X182849000Y-133583395D01*
X183804808Y-132627587D01*
X183709044Y-132363186D01*
X183419429Y-132222296D01*
X183107892Y-132140616D01*
X182786405Y-132121282D01*
X182467325Y-132165039D01*
X182162912Y-132270205D01*
X181988956Y-132363186D01*
X181893192Y-132627587D01*
X178404000Y-132627587D01*
X178404000Y-130030000D01*
X185897000Y-130030000D01*
X185921776Y-130027560D01*
X185945601Y-130020333D01*
X185967557Y-130008597D01*
X185986803Y-129992803D01*
X186002597Y-129973557D01*
X186014333Y-129951601D01*
X186021560Y-129927776D01*
X186024000Y-129903000D01*
X186024000Y-124810000D01*
X186248000Y-124810000D01*
X186248000Y-128810000D01*
X186304193Y-129126532D01*
X186421058Y-129426020D01*
X186594105Y-129696954D01*
X186816683Y-129928922D01*
X187080239Y-130113010D01*
X187374645Y-130242144D01*
X187502566Y-130273124D01*
X187756000Y-130153777D01*
X187756000Y-124810000D01*
X188010000Y-124810000D01*
X188010000Y-130153777D01*
X188263434Y-130273124D01*
X188391355Y-130242144D01*
X188685761Y-130113010D01*
X188949317Y-129928922D01*
X189171895Y-129696954D01*
X189344942Y-129426020D01*
X189461807Y-129126532D01*
X189518000Y-128810000D01*
X189518000Y-124810000D01*
X188010000Y-124810000D01*
X187756000Y-124810000D01*
X186248000Y-124810000D01*
X186024000Y-124810000D01*
X186024000Y-120556000D01*
X186248000Y-120556000D01*
X186248000Y-124556000D01*
X187756000Y-124556000D01*
X187756000Y-119212223D01*
X188010000Y-119212223D01*
X188010000Y-124556000D01*
X189518000Y-124556000D01*
X189518000Y-120556000D01*
X189461807Y-120239468D01*
X189344942Y-119939980D01*
X189171895Y-119669046D01*
X188949317Y-119437078D01*
X188685761Y-119252990D01*
X188391355Y-119123856D01*
X188263434Y-119092876D01*
X188010000Y-119212223D01*
X187756000Y-119212223D01*
X187502566Y-119092876D01*
X187374645Y-119123856D01*
X187080239Y-119252990D01*
X186816683Y-119437078D01*
X186594105Y-119669046D01*
X186421058Y-119939980D01*
X186304193Y-120239468D01*
X186248000Y-120556000D01*
X186024000Y-120556000D01*
X186024000Y-75293000D01*
X186021560Y-75268224D01*
X186014333Y-75244399D01*
X186002597Y-75222443D01*
X185986803Y-75203197D01*
X185967557Y-75187403D01*
X185945601Y-75175667D01*
X185921776Y-75168440D01*
X185897000Y-75166000D01*
X152695829Y-75166000D01*
X152762941Y-75130128D01*
X152866027Y-75045527D01*
X152887226Y-75019696D01*
X154618201Y-73288722D01*
X154644027Y-73267527D01*
X154728628Y-73164441D01*
X154791492Y-73046830D01*
X154830204Y-72919215D01*
X154840000Y-72819752D01*
X154843275Y-72786500D01*
X154840000Y-72753248D01*
X154840000Y-64896000D01*
X157675000Y-64896000D01*
X157675001Y-69501946D01*
X157584628Y-69592319D01*
X157494123Y-69727769D01*
X157431782Y-69878273D01*
X157400000Y-70038048D01*
X157400000Y-70200952D01*
X157431782Y-70360727D01*
X157494123Y-70511231D01*
X157584628Y-70646681D01*
X157699819Y-70761872D01*
X157835269Y-70852377D01*
X157985773Y-70914718D01*
X158145548Y-70946500D01*
X158308452Y-70946500D01*
X158468227Y-70914718D01*
X158618731Y-70852377D01*
X158754181Y-70761872D01*
X158869372Y-70646681D01*
X158959877Y-70511231D01*
X159022218Y-70360727D01*
X159054000Y-70200952D01*
X159054000Y-70038048D01*
X159022218Y-69878273D01*
X158959877Y-69727769D01*
X158869372Y-69592319D01*
X158779000Y-69501947D01*
X158779000Y-64831553D01*
X158869372Y-64741181D01*
X158872218Y-64736921D01*
X158975963Y-64956420D01*
X159143481Y-65182414D01*
X159351869Y-65371385D01*
X159593119Y-65516070D01*
X159812088Y-65594483D01*
X159625798Y-65671647D01*
X159424833Y-65805927D01*
X159253927Y-65976833D01*
X159119647Y-66177798D01*
X159027153Y-66401097D01*
X158980000Y-66638151D01*
X158980000Y-66879849D01*
X159027153Y-67116903D01*
X159119647Y-67340202D01*
X159253927Y-67541167D01*
X159424833Y-67712073D01*
X159625798Y-67846353D01*
X159849097Y-67938847D01*
X160086151Y-67986000D01*
X160327849Y-67986000D01*
X160564903Y-67938847D01*
X160788202Y-67846353D01*
X160989167Y-67712073D01*
X161015240Y-67686000D01*
X162741741Y-67686000D01*
X162813077Y-67772923D01*
X163030366Y-67951248D01*
X163175830Y-68029000D01*
X163030366Y-68106752D01*
X162813077Y-68285077D01*
X162741741Y-68372000D01*
X161015240Y-68372000D01*
X160989167Y-68345927D01*
X160788202Y-68211647D01*
X160564903Y-68119153D01*
X160327849Y-68072000D01*
X160086151Y-68072000D01*
X159849097Y-68119153D01*
X159625798Y-68211647D01*
X159424833Y-68345927D01*
X159253927Y-68516833D01*
X159119647Y-68717798D01*
X159027153Y-68941097D01*
X158980000Y-69178151D01*
X158980000Y-69419849D01*
X159027153Y-69656903D01*
X159119647Y-69880202D01*
X159253927Y-70081167D01*
X159424833Y-70252073D01*
X159625798Y-70386353D01*
X159849097Y-70478847D01*
X160086151Y-70526000D01*
X160327849Y-70526000D01*
X160564903Y-70478847D01*
X160788202Y-70386353D01*
X160989167Y-70252073D01*
X161015240Y-70226000D01*
X162741741Y-70226000D01*
X162813077Y-70312923D01*
X163030366Y-70491248D01*
X163175830Y-70569000D01*
X163030366Y-70646752D01*
X162813077Y-70825077D01*
X162741741Y-70912000D01*
X161015240Y-70912000D01*
X160989167Y-70885927D01*
X160788202Y-70751647D01*
X160564903Y-70659153D01*
X160327849Y-70612000D01*
X160086151Y-70612000D01*
X159849097Y-70659153D01*
X159625798Y-70751647D01*
X159424833Y-70885927D01*
X159253927Y-71056833D01*
X159119647Y-71257798D01*
X159027153Y-71481097D01*
X158980000Y-71718151D01*
X158980000Y-71959849D01*
X159027153Y-72196903D01*
X159119647Y-72420202D01*
X159253927Y-72621167D01*
X159424833Y-72792073D01*
X159625798Y-72926353D01*
X159849097Y-73018847D01*
X160086151Y-73066000D01*
X160327849Y-73066000D01*
X160564903Y-73018847D01*
X160788202Y-72926353D01*
X160989167Y-72792073D01*
X161015240Y-72766000D01*
X162741741Y-72766000D01*
X162813077Y-72852923D01*
X163030366Y-73031248D01*
X163278269Y-73163755D01*
X163547259Y-73245352D01*
X163756902Y-73266000D01*
X171897098Y-73266000D01*
X172106741Y-73245352D01*
X172375731Y-73163755D01*
X172623634Y-73031248D01*
X172840923Y-72852923D01*
X173019248Y-72635634D01*
X173083194Y-72516000D01*
X176686578Y-72516000D01*
X177227934Y-73057356D01*
X177227934Y-73554001D01*
X177240982Y-73686480D01*
X177279625Y-73813868D01*
X177342377Y-73931269D01*
X177426828Y-74034172D01*
X177529731Y-74118623D01*
X177647132Y-74181375D01*
X177774520Y-74220018D01*
X177906999Y-74233066D01*
X178557001Y-74233066D01*
X178689480Y-74220018D01*
X178816868Y-74181375D01*
X178934269Y-74118623D01*
X179037172Y-74034172D01*
X179121623Y-73931269D01*
X179184375Y-73813868D01*
X179223018Y-73686480D01*
X179236066Y-73554001D01*
X179236066Y-72653999D01*
X179223018Y-72521520D01*
X179184375Y-72394132D01*
X179127994Y-72288651D01*
X179792646Y-71624000D01*
X183009447Y-71624000D01*
X183099819Y-71714372D01*
X183235269Y-71804877D01*
X183385773Y-71867218D01*
X183545548Y-71899000D01*
X183691389Y-71899000D01*
X183625815Y-71952815D01*
X183546463Y-72049506D01*
X183487498Y-72159820D01*
X183462718Y-72241510D01*
X183407172Y-72173828D01*
X183304269Y-72089377D01*
X183186868Y-72026625D01*
X183059480Y-71987982D01*
X182927001Y-71974934D01*
X182276999Y-71974934D01*
X182144520Y-71987982D01*
X182017132Y-72026625D01*
X181899731Y-72089377D01*
X181796828Y-72173828D01*
X181712377Y-72276731D01*
X181649625Y-72394132D01*
X181639655Y-72427000D01*
X181244345Y-72427000D01*
X181234375Y-72394132D01*
X181171623Y-72276731D01*
X181087172Y-72173828D01*
X180984269Y-72089377D01*
X180866868Y-72026625D01*
X180739480Y-71987982D01*
X180607001Y-71974934D01*
X179956999Y-71974934D01*
X179824520Y-71987982D01*
X179697132Y-72026625D01*
X179579731Y-72089377D01*
X179476828Y-72173828D01*
X179392377Y-72276731D01*
X179329625Y-72394132D01*
X179290982Y-72521520D01*
X179277934Y-72653999D01*
X179277934Y-73554001D01*
X179290982Y-73686480D01*
X179329625Y-73813868D01*
X179392377Y-73931269D01*
X179476828Y-74034172D01*
X179579731Y-74118623D01*
X179697132Y-74181375D01*
X179824520Y-74220018D01*
X179956999Y-74233066D01*
X180607001Y-74233066D01*
X180739480Y-74220018D01*
X180866868Y-74181375D01*
X180984269Y-74118623D01*
X181087172Y-74034172D01*
X181171623Y-73931269D01*
X181234375Y-73813868D01*
X181244345Y-73781000D01*
X181639655Y-73781000D01*
X181649625Y-73813868D01*
X181712377Y-73931269D01*
X181796828Y-74034172D01*
X181899731Y-74118623D01*
X182017132Y-74181375D01*
X182144520Y-74220018D01*
X182276999Y-74233066D01*
X182927001Y-74233066D01*
X183059480Y-74220018D01*
X183186868Y-74181375D01*
X183304269Y-74118623D01*
X183407172Y-74034172D01*
X183462718Y-73966490D01*
X183487498Y-74048180D01*
X183546463Y-74158494D01*
X183625815Y-74255185D01*
X183722506Y-74334537D01*
X183832820Y-74393502D01*
X183952518Y-74429812D01*
X184077000Y-74442072D01*
X184366250Y-74439000D01*
X184525000Y-74280250D01*
X184525000Y-73231000D01*
X184779000Y-73231000D01*
X184779000Y-74280250D01*
X184937750Y-74439000D01*
X185227000Y-74442072D01*
X185351482Y-74429812D01*
X185471180Y-74393502D01*
X185581494Y-74334537D01*
X185678185Y-74255185D01*
X185757537Y-74158494D01*
X185816502Y-74048180D01*
X185852812Y-73928482D01*
X185865072Y-73804000D01*
X185862000Y-73389750D01*
X185703250Y-73231000D01*
X184779000Y-73231000D01*
X184525000Y-73231000D01*
X184505000Y-73231000D01*
X184505000Y-72977000D01*
X184525000Y-72977000D01*
X184525000Y-71927750D01*
X184779000Y-71927750D01*
X184779000Y-72977000D01*
X185703250Y-72977000D01*
X185862000Y-72818250D01*
X185865072Y-72404000D01*
X185852812Y-72279518D01*
X185816502Y-72159820D01*
X185757537Y-72049506D01*
X185678185Y-71952815D01*
X185581494Y-71873463D01*
X185471180Y-71814498D01*
X185351482Y-71778188D01*
X185227000Y-71765928D01*
X184937750Y-71769000D01*
X184779000Y-71927750D01*
X184525000Y-71927750D01*
X184366250Y-71769000D01*
X184077022Y-71765928D01*
X184154181Y-71714372D01*
X184269372Y-71599181D01*
X184359877Y-71463731D01*
X184422218Y-71313227D01*
X184454000Y-71153452D01*
X184454000Y-70990548D01*
X184422218Y-70830773D01*
X184359877Y-70680269D01*
X184325906Y-70629428D01*
X184366250Y-70629000D01*
X184525000Y-70470250D01*
X184525000Y-69421000D01*
X184779000Y-69421000D01*
X184779000Y-70470250D01*
X184937750Y-70629000D01*
X185227000Y-70632072D01*
X185351482Y-70619812D01*
X185471180Y-70583502D01*
X185581494Y-70524537D01*
X185678185Y-70445185D01*
X185757537Y-70348494D01*
X185816502Y-70238180D01*
X185852812Y-70118482D01*
X185865072Y-69994000D01*
X185862000Y-69579750D01*
X185703250Y-69421000D01*
X184779000Y-69421000D01*
X184525000Y-69421000D01*
X184505000Y-69421000D01*
X184505000Y-69167000D01*
X184525000Y-69167000D01*
X184525000Y-68117750D01*
X184779000Y-68117750D01*
X184779000Y-69167000D01*
X185703250Y-69167000D01*
X185862000Y-69008250D01*
X185865072Y-68594000D01*
X185852812Y-68469518D01*
X185816502Y-68349820D01*
X185757537Y-68239506D01*
X185678185Y-68142815D01*
X185581494Y-68063463D01*
X185471180Y-68004498D01*
X185351482Y-67968188D01*
X185227000Y-67955928D01*
X184937750Y-67959000D01*
X184779000Y-68117750D01*
X184525000Y-68117750D01*
X184366250Y-67959000D01*
X184077022Y-67955928D01*
X184154181Y-67904372D01*
X184269372Y-67789181D01*
X184359877Y-67653731D01*
X184422218Y-67503227D01*
X184454000Y-67343452D01*
X184454000Y-67180548D01*
X184422218Y-67020773D01*
X184359877Y-66870269D01*
X184325906Y-66819428D01*
X184366250Y-66819000D01*
X184525000Y-66660250D01*
X184525000Y-65611000D01*
X184779000Y-65611000D01*
X184779000Y-66660250D01*
X184937750Y-66819000D01*
X185227000Y-66822072D01*
X185351482Y-66809812D01*
X185471180Y-66773502D01*
X185581494Y-66714537D01*
X185678185Y-66635185D01*
X185757537Y-66538494D01*
X185816502Y-66428180D01*
X185852812Y-66308482D01*
X185865072Y-66184000D01*
X185862000Y-65769750D01*
X185703250Y-65611000D01*
X184779000Y-65611000D01*
X184525000Y-65611000D01*
X184505000Y-65611000D01*
X184505000Y-65357000D01*
X184525000Y-65357000D01*
X184525000Y-64307750D01*
X184779000Y-64307750D01*
X184779000Y-65357000D01*
X185703250Y-65357000D01*
X185862000Y-65198250D01*
X185865072Y-64784000D01*
X185852812Y-64659518D01*
X185816502Y-64539820D01*
X185757537Y-64429506D01*
X185678185Y-64332815D01*
X185581494Y-64253463D01*
X185471180Y-64194498D01*
X185351482Y-64158188D01*
X185227000Y-64145928D01*
X184937750Y-64149000D01*
X184779000Y-64307750D01*
X184525000Y-64307750D01*
X184366250Y-64149000D01*
X184077022Y-64145928D01*
X184154181Y-64094372D01*
X184269372Y-63979181D01*
X184359877Y-63843731D01*
X184422218Y-63693227D01*
X184454000Y-63533452D01*
X184454000Y-63370548D01*
X184422218Y-63210773D01*
X184359877Y-63060269D01*
X184269372Y-62924819D01*
X184154181Y-62809628D01*
X184018731Y-62719123D01*
X183868227Y-62656782D01*
X183708452Y-62625000D01*
X183545548Y-62625000D01*
X183385773Y-62656782D01*
X183235269Y-62719123D01*
X183099819Y-62809628D01*
X183009447Y-62900000D01*
X179591097Y-62900000D01*
X179563999Y-62897331D01*
X179536901Y-62900000D01*
X179536891Y-62900000D01*
X179455789Y-62907988D01*
X179351737Y-62939552D01*
X179255842Y-62990809D01*
X179171789Y-63059789D01*
X179154508Y-63080846D01*
X177877518Y-64357838D01*
X177774520Y-64367982D01*
X177647132Y-64406625D01*
X177529731Y-64469377D01*
X177426828Y-64553828D01*
X177342377Y-64656731D01*
X177279625Y-64774132D01*
X177240982Y-64901520D01*
X177227934Y-65033999D01*
X177227934Y-65530644D01*
X176676578Y-66082000D01*
X173083194Y-66082000D01*
X173019248Y-65962366D01*
X172840923Y-65745077D01*
X172623634Y-65566752D01*
X172375731Y-65434245D01*
X172106741Y-65352648D01*
X171897098Y-65332000D01*
X163756902Y-65332000D01*
X163547259Y-65352648D01*
X163278269Y-65434245D01*
X163030366Y-65566752D01*
X162813077Y-65745077D01*
X162741741Y-65832000D01*
X161015240Y-65832000D01*
X160989167Y-65805927D01*
X160788202Y-65671647D01*
X160601912Y-65594483D01*
X160820881Y-65516070D01*
X161062131Y-65371385D01*
X161270519Y-65182414D01*
X161438037Y-64956420D01*
X161558246Y-64702087D01*
X161598904Y-64568039D01*
X161476915Y-64346000D01*
X160334000Y-64346000D01*
X160334000Y-64366000D01*
X160080000Y-64366000D01*
X160080000Y-64346000D01*
X160060000Y-64346000D01*
X160060000Y-64092000D01*
X160080000Y-64092000D01*
X160080000Y-62948376D01*
X160334000Y-62948376D01*
X160334000Y-64092000D01*
X161476915Y-64092000D01*
X161598904Y-63869961D01*
X161558246Y-63735913D01*
X161438037Y-63481580D01*
X161270519Y-63255586D01*
X161062131Y-63066615D01*
X160820881Y-62921930D01*
X160556040Y-62827091D01*
X160334000Y-62948376D01*
X160080000Y-62948376D01*
X159857960Y-62827091D01*
X159593119Y-62921930D01*
X159351869Y-63066615D01*
X159143481Y-63255586D01*
X158975963Y-63481580D01*
X158874987Y-63695222D01*
X158869372Y-63686819D01*
X158754181Y-63571628D01*
X158618731Y-63481123D01*
X158468227Y-63418782D01*
X158308452Y-63387000D01*
X158145548Y-63387000D01*
X157985773Y-63418782D01*
X157835269Y-63481123D01*
X157744160Y-63542000D01*
X153920245Y-63542000D01*
X153887000Y-63538726D01*
X153853755Y-63542000D01*
X153816066Y-63542000D01*
X153816066Y-63419000D01*
X153807822Y-63335293D01*
X153783405Y-63254804D01*
X153743755Y-63180624D01*
X153690395Y-63115605D01*
X153625376Y-63062245D01*
X153551196Y-63022595D01*
X153470707Y-62998178D01*
X153387000Y-62989934D01*
X151787000Y-62989934D01*
X151703293Y-62998178D01*
X151622804Y-63022595D01*
X151548624Y-63062245D01*
X151483605Y-63115605D01*
X151430245Y-63180624D01*
X151390595Y-63254804D01*
X151366178Y-63335293D01*
X151365688Y-63340266D01*
X149252000Y-61226578D01*
X149252000Y-57274548D01*
X152701000Y-57274548D01*
X152701000Y-57437452D01*
X152732782Y-57597227D01*
X152795123Y-57747731D01*
X152885628Y-57883181D01*
X153000819Y-57998372D01*
X153136269Y-58088877D01*
X153286773Y-58151218D01*
X153446548Y-58183000D01*
X153609452Y-58183000D01*
X153769227Y-58151218D01*
X153919731Y-58088877D01*
X154055181Y-57998372D01*
X154145553Y-57908000D01*
X154175980Y-57908000D01*
X154178982Y-57938480D01*
X154217625Y-58065868D01*
X154280377Y-58183269D01*
X154364828Y-58286172D01*
X154467731Y-58370623D01*
X154585132Y-58433375D01*
X154712520Y-58472018D01*
X154844999Y-58485066D01*
X155495001Y-58485066D01*
X155627480Y-58472018D01*
X155754868Y-58433375D01*
X155872269Y-58370623D01*
X155975172Y-58286172D01*
X156030718Y-58218490D01*
X156055498Y-58300180D01*
X156114463Y-58410494D01*
X156193815Y-58507185D01*
X156290506Y-58586537D01*
X156400820Y-58645502D01*
X156520518Y-58681812D01*
X156645000Y-58694072D01*
X156934250Y-58691000D01*
X157093000Y-58532250D01*
X157093000Y-57483000D01*
X157347000Y-57483000D01*
X157347000Y-58532250D01*
X157505750Y-58691000D01*
X157795000Y-58694072D01*
X157919482Y-58681812D01*
X158039180Y-58645502D01*
X158149494Y-58586537D01*
X158246185Y-58507185D01*
X158325537Y-58410494D01*
X158384502Y-58300180D01*
X158420812Y-58180482D01*
X158433072Y-58056000D01*
X158430000Y-57641750D01*
X158271250Y-57483000D01*
X157347000Y-57483000D01*
X157093000Y-57483000D01*
X157073000Y-57483000D01*
X157073000Y-57229000D01*
X157093000Y-57229000D01*
X157093000Y-56179750D01*
X157347000Y-56179750D01*
X157347000Y-57229000D01*
X158271250Y-57229000D01*
X158430000Y-57070250D01*
X158433072Y-56656000D01*
X158420812Y-56531518D01*
X158384502Y-56411820D01*
X158325537Y-56301506D01*
X158246185Y-56204815D01*
X158149494Y-56125463D01*
X158039180Y-56066498D01*
X157919482Y-56030188D01*
X157795000Y-56017928D01*
X157505750Y-56021000D01*
X157347000Y-56179750D01*
X157093000Y-56179750D01*
X156934250Y-56021000D01*
X156645000Y-56017928D01*
X156520518Y-56030188D01*
X156400820Y-56066498D01*
X156290506Y-56125463D01*
X156193815Y-56204815D01*
X156114463Y-56301506D01*
X156055498Y-56411820D01*
X156030718Y-56493510D01*
X155975172Y-56425828D01*
X155872269Y-56341377D01*
X155754868Y-56278625D01*
X155627480Y-56239982D01*
X155495001Y-56226934D01*
X154844999Y-56226934D01*
X154712520Y-56239982D01*
X154585132Y-56278625D01*
X154467731Y-56341377D01*
X154364828Y-56425828D01*
X154280377Y-56528731D01*
X154217625Y-56646132D01*
X154178982Y-56773520D01*
X154175980Y-56804000D01*
X154145553Y-56804000D01*
X154055181Y-56713628D01*
X153919731Y-56623123D01*
X153769227Y-56560782D01*
X153609452Y-56529000D01*
X153446548Y-56529000D01*
X153286773Y-56560782D01*
X153136269Y-56623123D01*
X153000819Y-56713628D01*
X152885628Y-56828819D01*
X152795123Y-56964269D01*
X152732782Y-57114773D01*
X152701000Y-57274548D01*
X149252000Y-57274548D01*
X149252000Y-55496548D01*
X152828000Y-55496548D01*
X152828000Y-55659452D01*
X152859782Y-55819227D01*
X152922123Y-55969731D01*
X153012628Y-56105181D01*
X153127819Y-56220372D01*
X153263269Y-56310877D01*
X153413773Y-56373218D01*
X153573548Y-56405000D01*
X153736452Y-56405000D01*
X153896227Y-56373218D01*
X154046731Y-56310877D01*
X154182181Y-56220372D01*
X154297372Y-56105181D01*
X154387877Y-55969731D01*
X154450218Y-55819227D01*
X154482000Y-55659452D01*
X154482000Y-55496548D01*
X154450218Y-55336773D01*
X154387877Y-55186269D01*
X154297372Y-55050819D01*
X154207000Y-54960447D01*
X154207000Y-54790644D01*
X155894646Y-53103000D01*
X156022452Y-53103000D01*
X156182227Y-53071218D01*
X156332731Y-53008877D01*
X156468181Y-52918372D01*
X156583372Y-52803181D01*
X156673877Y-52667731D01*
X156736218Y-52517227D01*
X156768000Y-52357452D01*
X156768000Y-52194548D01*
X156736218Y-52034773D01*
X156673877Y-51884269D01*
X156583372Y-51748819D01*
X156468181Y-51633628D01*
X156332731Y-51543123D01*
X156182227Y-51480782D01*
X156022452Y-51449000D01*
X155859548Y-51449000D01*
X155699773Y-51480782D01*
X155549269Y-51543123D01*
X155413819Y-51633628D01*
X155298628Y-51748819D01*
X155208123Y-51884269D01*
X155145782Y-52034773D01*
X155114000Y-52194548D01*
X155114000Y-52322354D01*
X153283856Y-54152500D01*
X153262789Y-54169789D01*
X153193809Y-54253842D01*
X153142552Y-54349738D01*
X153110988Y-54453790D01*
X153104598Y-54518670D01*
X153100330Y-54562000D01*
X153103000Y-54589106D01*
X153103000Y-54960447D01*
X153012628Y-55050819D01*
X152922123Y-55186269D01*
X152859782Y-55336773D01*
X152828000Y-55496548D01*
X149252000Y-55496548D01*
X149252000Y-53325252D01*
X149255275Y-53292000D01*
X149242204Y-53159285D01*
X149203492Y-53031670D01*
X149140628Y-52914059D01*
X149077224Y-52836801D01*
X149077222Y-52836799D01*
X149056027Y-52810973D01*
X149030201Y-52789778D01*
X148315226Y-52074804D01*
X148294027Y-52048973D01*
X148190941Y-51964372D01*
X148073330Y-51901508D01*
X147945715Y-51862796D01*
X147846252Y-51853000D01*
X147846245Y-51853000D01*
X147813000Y-51849726D01*
X147779755Y-51853000D01*
X147344032Y-51853000D01*
X147370000Y-51722452D01*
X147370000Y-51559548D01*
X147338218Y-51399773D01*
X147284077Y-51269066D01*
X147393000Y-51269066D01*
X147476707Y-51260822D01*
X147557196Y-51236405D01*
X147631376Y-51196755D01*
X147696395Y-51143395D01*
X147749755Y-51078376D01*
X147789405Y-51004196D01*
X147813822Y-50923707D01*
X147822066Y-50840000D01*
X147822066Y-49140000D01*
X149581934Y-49140000D01*
X149581934Y-50840000D01*
X149590178Y-50923707D01*
X149614595Y-51004196D01*
X149654245Y-51078376D01*
X149707605Y-51143395D01*
X149772624Y-51196755D01*
X149846804Y-51236405D01*
X149927293Y-51260822D01*
X150011000Y-51269066D01*
X151711000Y-51269066D01*
X151794707Y-51260822D01*
X151875196Y-51236405D01*
X151949376Y-51196755D01*
X152014395Y-51143395D01*
X152067755Y-51078376D01*
X152107405Y-51004196D01*
X152131822Y-50923707D01*
X152140066Y-50840000D01*
X152140066Y-50196544D01*
X152173074Y-50362487D01*
X152269337Y-50594886D01*
X152409089Y-50804040D01*
X152586960Y-50981911D01*
X152796114Y-51121663D01*
X153028513Y-51217926D01*
X153275226Y-51267000D01*
X153526774Y-51267000D01*
X153773487Y-51217926D01*
X154005886Y-51121663D01*
X154215040Y-50981911D01*
X154392911Y-50804040D01*
X154532663Y-50594886D01*
X154628926Y-50362487D01*
X154671000Y-50150966D01*
X154713074Y-50362487D01*
X154809337Y-50594886D01*
X154949089Y-50804040D01*
X155126960Y-50981911D01*
X155336114Y-51121663D01*
X155568513Y-51217926D01*
X155815226Y-51267000D01*
X156066774Y-51267000D01*
X156313487Y-51217926D01*
X156545886Y-51121663D01*
X156755040Y-50981911D01*
X156932911Y-50804040D01*
X157072663Y-50594886D01*
X157168926Y-50362487D01*
X157211000Y-50150966D01*
X157253074Y-50362487D01*
X157349337Y-50594886D01*
X157489089Y-50804040D01*
X157666960Y-50981911D01*
X157876114Y-51121663D01*
X158108513Y-51217926D01*
X158355226Y-51267000D01*
X158606774Y-51267000D01*
X158853487Y-51217926D01*
X159085886Y-51121663D01*
X159295040Y-50981911D01*
X159472911Y-50804040D01*
X159612663Y-50594886D01*
X159642197Y-50523584D01*
X159676843Y-50621252D01*
X159825822Y-50871355D01*
X160020731Y-51087588D01*
X160254080Y-51261641D01*
X160516901Y-51386825D01*
X160664110Y-51431476D01*
X160894000Y-51310155D01*
X160894000Y-50117000D01*
X161148000Y-50117000D01*
X161148000Y-51310155D01*
X161377890Y-51431476D01*
X161525099Y-51386825D01*
X161787920Y-51261641D01*
X162021269Y-51087588D01*
X162216178Y-50871355D01*
X162365157Y-50621252D01*
X162462481Y-50346891D01*
X162341814Y-50117000D01*
X161148000Y-50117000D01*
X160894000Y-50117000D01*
X160874000Y-50117000D01*
X160874000Y-49863000D01*
X160894000Y-49863000D01*
X160894000Y-48669845D01*
X161148000Y-48669845D01*
X161148000Y-49863000D01*
X162341814Y-49863000D01*
X162462481Y-49633109D01*
X162365157Y-49358748D01*
X162216178Y-49108645D01*
X162021269Y-48892412D01*
X161787920Y-48718359D01*
X161525099Y-48593175D01*
X161377890Y-48548524D01*
X161148000Y-48669845D01*
X160894000Y-48669845D01*
X160664110Y-48548524D01*
X160516901Y-48593175D01*
X160254080Y-48718359D01*
X160020731Y-48892412D01*
X159825822Y-49108645D01*
X159676843Y-49358748D01*
X159642197Y-49456416D01*
X159612663Y-49385114D01*
X159472911Y-49175960D01*
X159295040Y-48998089D01*
X159085886Y-48858337D01*
X158853487Y-48762074D01*
X158606774Y-48713000D01*
X158355226Y-48713000D01*
X158108513Y-48762074D01*
X157876114Y-48858337D01*
X157666960Y-48998089D01*
X157489089Y-49175960D01*
X157349337Y-49385114D01*
X157253074Y-49617513D01*
X157211000Y-49829034D01*
X157168926Y-49617513D01*
X157072663Y-49385114D01*
X156932911Y-49175960D01*
X156755040Y-48998089D01*
X156545886Y-48858337D01*
X156313487Y-48762074D01*
X156066774Y-48713000D01*
X155815226Y-48713000D01*
X155568513Y-48762074D01*
X155336114Y-48858337D01*
X155126960Y-48998089D01*
X154949089Y-49175960D01*
X154809337Y-49385114D01*
X154713074Y-49617513D01*
X154671000Y-49829034D01*
X154628926Y-49617513D01*
X154532663Y-49385114D01*
X154392911Y-49175960D01*
X154215040Y-48998089D01*
X154005886Y-48858337D01*
X153773487Y-48762074D01*
X153526774Y-48713000D01*
X153275226Y-48713000D01*
X153028513Y-48762074D01*
X152796114Y-48858337D01*
X152586960Y-48998089D01*
X152409089Y-49175960D01*
X152269337Y-49385114D01*
X152173074Y-49617513D01*
X152140066Y-49783456D01*
X152140066Y-49140000D01*
X152131822Y-49056293D01*
X152107405Y-48975804D01*
X152067755Y-48901624D01*
X152014395Y-48836605D01*
X151949376Y-48783245D01*
X151875196Y-48743595D01*
X151794707Y-48719178D01*
X151711000Y-48710934D01*
X150011000Y-48710934D01*
X149927293Y-48719178D01*
X149846804Y-48743595D01*
X149772624Y-48783245D01*
X149707605Y-48836605D01*
X149654245Y-48901624D01*
X149614595Y-48975804D01*
X149590178Y-49056293D01*
X149581934Y-49140000D01*
X147822066Y-49140000D01*
X147813822Y-49056293D01*
X147789405Y-48975804D01*
X147749755Y-48901624D01*
X147696395Y-48836605D01*
X147631376Y-48783245D01*
X147557196Y-48743595D01*
X147476707Y-48719178D01*
X147393000Y-48710934D01*
X145693000Y-48710934D01*
X145609293Y-48719178D01*
X145528804Y-48743595D01*
X145454624Y-48783245D01*
X145389605Y-48836605D01*
X145336245Y-48901624D01*
X145296595Y-48975804D01*
X145272178Y-49056293D01*
X145263934Y-49140000D01*
X145263934Y-49783456D01*
X145230926Y-49617513D01*
X145134663Y-49385114D01*
X144994911Y-49175960D01*
X144817040Y-48998089D01*
X144607886Y-48858337D01*
X144375487Y-48762074D01*
X144128774Y-48713000D01*
X143877226Y-48713000D01*
X143630513Y-48762074D01*
X143398114Y-48858337D01*
X143188960Y-48998089D01*
X143011089Y-49175960D01*
X142871337Y-49385114D01*
X142775074Y-49617513D01*
X142733000Y-49829034D01*
X142690926Y-49617513D01*
X142594663Y-49385114D01*
X142454911Y-49175960D01*
X142277040Y-48998089D01*
X142067886Y-48858337D01*
X141835487Y-48762074D01*
X141588774Y-48713000D01*
X141337226Y-48713000D01*
X141090513Y-48762074D01*
X140858114Y-48858337D01*
X140648960Y-48998089D01*
X140471089Y-49175960D01*
X140331337Y-49385114D01*
X140235074Y-49617513D01*
X140186000Y-49864226D01*
X140186000Y-50115774D01*
X140235074Y-50362487D01*
X140331337Y-50594886D01*
X140471089Y-50804040D01*
X140648960Y-50981911D01*
X140858114Y-51121663D01*
X141090513Y-51217926D01*
X141337226Y-51267000D01*
X141588774Y-51267000D01*
X141835487Y-51217926D01*
X142067886Y-51121663D01*
X142277040Y-50981911D01*
X142454911Y-50804040D01*
X142594663Y-50594886D01*
X142690926Y-50362487D01*
X142733000Y-50150966D01*
X142775074Y-50362487D01*
X142871337Y-50594886D01*
X143011089Y-50804040D01*
X143188960Y-50981911D01*
X143326000Y-51073478D01*
X143326000Y-51988755D01*
X143322726Y-52022000D01*
X143326000Y-52055245D01*
X143326000Y-52055251D01*
X143332577Y-52122027D01*
X143335796Y-52154714D01*
X143374508Y-52282329D01*
X143437372Y-52399940D01*
X143493228Y-52468000D01*
X143521973Y-52503026D01*
X143547800Y-52524222D01*
X144008774Y-52985196D01*
X144029973Y-53011027D01*
X144112536Y-53078786D01*
X142611000Y-53075928D01*
X142486518Y-53088188D01*
X142366820Y-53124498D01*
X142256506Y-53183463D01*
X142159815Y-53262815D01*
X142080463Y-53359506D01*
X142021498Y-53469820D01*
X141985188Y-53589518D01*
X141972928Y-53714000D01*
X141976000Y-54428250D01*
X142134750Y-54587000D01*
X144384000Y-54587000D01*
X144384000Y-54567000D01*
X144638000Y-54567000D01*
X144638000Y-54587000D01*
X146887250Y-54587000D01*
X147046000Y-54428250D01*
X147049072Y-53714000D01*
X147036812Y-53589518D01*
X147000502Y-53469820D01*
X146941537Y-53359506D01*
X146862185Y-53262815D01*
X146794174Y-53207000D01*
X147532578Y-53207000D01*
X147898001Y-53572424D01*
X147898000Y-59751553D01*
X147864395Y-59710605D01*
X147799376Y-59657245D01*
X147725196Y-59617595D01*
X147644707Y-59593178D01*
X147561000Y-59584934D01*
X147490319Y-59584934D01*
X147529877Y-59525731D01*
X147592218Y-59375227D01*
X147624000Y-59215452D01*
X147624000Y-59052548D01*
X147592218Y-58892773D01*
X147529877Y-58742269D01*
X147439372Y-58606819D01*
X147324181Y-58491628D01*
X147188731Y-58401123D01*
X147038227Y-58338782D01*
X146878452Y-58307000D01*
X146715548Y-58307000D01*
X146555773Y-58338782D01*
X146405269Y-58401123D01*
X146269819Y-58491628D01*
X146154628Y-58606819D01*
X146064123Y-58742269D01*
X146001782Y-58892773D01*
X145970000Y-59052548D01*
X145970000Y-59215452D01*
X146001782Y-59375227D01*
X146064123Y-59525731D01*
X146103681Y-59584934D01*
X146061000Y-59584934D01*
X145977293Y-59593178D01*
X145896804Y-59617595D01*
X145822624Y-59657245D01*
X145800176Y-59675668D01*
X145791537Y-59659506D01*
X145712185Y-59562815D01*
X145615494Y-59483463D01*
X145505180Y-59424498D01*
X145385482Y-59388188D01*
X145261000Y-59375928D01*
X144796750Y-59379000D01*
X144638000Y-59537750D01*
X144638000Y-60887000D01*
X144658000Y-60887000D01*
X144658000Y-61141000D01*
X144638000Y-61141000D01*
X144638000Y-62490250D01*
X144796750Y-62649000D01*
X145261000Y-62652072D01*
X145385482Y-62639812D01*
X145505180Y-62603502D01*
X145615494Y-62544537D01*
X145712185Y-62465185D01*
X145791537Y-62368494D01*
X145800176Y-62352332D01*
X145822624Y-62370755D01*
X145896804Y-62410405D01*
X145977293Y-62434822D01*
X146061000Y-62443066D01*
X147561000Y-62443066D01*
X147644707Y-62434822D01*
X147725196Y-62410405D01*
X147799376Y-62370755D01*
X147864395Y-62317395D01*
X147917755Y-62252376D01*
X147957405Y-62178196D01*
X147981822Y-62097707D01*
X147990066Y-62014000D01*
X147990066Y-61848821D01*
X148009372Y-61884940D01*
X148093973Y-61988026D01*
X148119800Y-62009222D01*
X150784774Y-64674196D01*
X150805973Y-64700027D01*
X150909059Y-64784628D01*
X151026670Y-64847492D01*
X151154285Y-64886204D01*
X151253748Y-64896000D01*
X151253757Y-64896000D01*
X151286999Y-64899274D01*
X151320241Y-64896000D01*
X151357934Y-64896000D01*
X151357934Y-65019000D01*
X151366178Y-65102707D01*
X151390595Y-65183196D01*
X151430245Y-65257376D01*
X151483605Y-65322395D01*
X151548624Y-65375755D01*
X151622804Y-65415405D01*
X151703293Y-65439822D01*
X151787000Y-65448066D01*
X153387000Y-65448066D01*
X153470707Y-65439822D01*
X153486000Y-65435183D01*
X153486000Y-65922760D01*
X153369167Y-65805927D01*
X153168202Y-65671647D01*
X152944903Y-65579153D01*
X152707849Y-65532000D01*
X152466151Y-65532000D01*
X152229097Y-65579153D01*
X152005798Y-65671647D01*
X151804833Y-65805927D01*
X151778760Y-65832000D01*
X150052259Y-65832000D01*
X149980923Y-65745077D01*
X149763634Y-65566752D01*
X149515731Y-65434245D01*
X149246741Y-65352648D01*
X149037098Y-65332000D01*
X140896902Y-65332000D01*
X140687259Y-65352648D01*
X140418269Y-65434245D01*
X140170366Y-65566752D01*
X139953077Y-65745077D01*
X139774752Y-65962366D01*
X139710806Y-66082000D01*
X136117422Y-66082000D01*
X135566066Y-65530644D01*
X135566066Y-65033999D01*
X135553018Y-64901520D01*
X135514375Y-64774132D01*
X135451623Y-64656731D01*
X135367172Y-64553828D01*
X135264269Y-64469377D01*
X135146868Y-64406625D01*
X135019480Y-64367982D01*
X134916484Y-64357838D01*
X133929193Y-63370548D01*
X139438500Y-63370548D01*
X139438500Y-63533452D01*
X139470282Y-63693227D01*
X139532623Y-63843731D01*
X139623128Y-63979181D01*
X139738319Y-64094372D01*
X139873769Y-64184877D01*
X140024273Y-64247218D01*
X140184048Y-64279000D01*
X140346952Y-64279000D01*
X140506727Y-64247218D01*
X140657231Y-64184877D01*
X140792681Y-64094372D01*
X140907872Y-63979181D01*
X140998377Y-63843731D01*
X141060718Y-63693227D01*
X141092500Y-63533452D01*
X141092500Y-63370548D01*
X141060718Y-63210773D01*
X140998377Y-63060269D01*
X140907872Y-62924819D01*
X140792681Y-62809628D01*
X140657231Y-62719123D01*
X140506727Y-62656782D01*
X140346952Y-62625000D01*
X140184048Y-62625000D01*
X140024273Y-62656782D01*
X139873769Y-62719123D01*
X139738319Y-62809628D01*
X139623128Y-62924819D01*
X139532623Y-63060269D01*
X139470282Y-63210773D01*
X139438500Y-63370548D01*
X133929193Y-63370548D01*
X133893500Y-63334856D01*
X133876211Y-63313789D01*
X133792158Y-63244809D01*
X133696263Y-63193552D01*
X133592211Y-63161988D01*
X133511109Y-63154000D01*
X133511106Y-63154000D01*
X133484000Y-63151330D01*
X133456894Y-63154000D01*
X129784553Y-63154000D01*
X129694181Y-63063628D01*
X129558731Y-62973123D01*
X129408227Y-62910782D01*
X129248452Y-62879000D01*
X129085548Y-62879000D01*
X128925773Y-62910782D01*
X128775269Y-62973123D01*
X128639819Y-63063628D01*
X128524628Y-63178819D01*
X128434123Y-63314269D01*
X128371782Y-63464773D01*
X128340000Y-63624548D01*
X128340000Y-63787452D01*
X128371782Y-63947227D01*
X128434123Y-64097731D01*
X128468094Y-64148572D01*
X128427750Y-64149000D01*
X128269000Y-64307750D01*
X128269000Y-65357000D01*
X128289000Y-65357000D01*
X128289000Y-65611000D01*
X128269000Y-65611000D01*
X128269000Y-66660250D01*
X128427750Y-66819000D01*
X128468094Y-66819428D01*
X128434123Y-66870269D01*
X128371782Y-67020773D01*
X128340000Y-67180548D01*
X128340000Y-67343452D01*
X128371782Y-67503227D01*
X128434123Y-67653731D01*
X128524628Y-67789181D01*
X128639819Y-67904372D01*
X128725751Y-67961790D01*
X128717000Y-67960928D01*
X128427750Y-67964000D01*
X128269000Y-68122750D01*
X128269000Y-69172000D01*
X128289000Y-69172000D01*
X128289000Y-69426000D01*
X128269000Y-69426000D01*
X128269000Y-70475250D01*
X128427750Y-70634000D01*
X128464776Y-70634393D01*
X128434123Y-70680269D01*
X128371782Y-70830773D01*
X128340000Y-70990548D01*
X128340000Y-71153452D01*
X128371782Y-71313227D01*
X128434123Y-71463731D01*
X128524628Y-71599181D01*
X128639819Y-71714372D01*
X128716978Y-71765928D01*
X128427750Y-71769000D01*
X128269000Y-71927750D01*
X128269000Y-72977000D01*
X128289000Y-72977000D01*
X128289000Y-73231000D01*
X128269000Y-73231000D01*
X128269000Y-73251000D01*
X128015000Y-73251000D01*
X128015000Y-73231000D01*
X127090750Y-73231000D01*
X126932000Y-73389750D01*
X126928928Y-73804000D01*
X126937152Y-73887500D01*
X126764241Y-73887500D01*
X126730999Y-73884226D01*
X126697757Y-73887500D01*
X126697748Y-73887500D01*
X126598285Y-73897296D01*
X126470670Y-73936008D01*
X126353059Y-73998872D01*
X126249973Y-74083473D01*
X126228776Y-74109302D01*
X124751800Y-75586278D01*
X124725973Y-75607474D01*
X124641372Y-75710560D01*
X124578508Y-75828171D01*
X124539796Y-75955786D01*
X124530000Y-76055249D01*
X124530000Y-76055255D01*
X124526726Y-76088500D01*
X124530000Y-76121745D01*
X124530000Y-77182306D01*
X124410366Y-77246252D01*
X124193077Y-77424578D01*
X124014752Y-77641867D01*
X123882245Y-77889770D01*
X123800648Y-78158760D01*
X123780000Y-78368403D01*
X121849000Y-78368403D01*
X121849000Y-72404000D01*
X126928928Y-72404000D01*
X126932000Y-72818250D01*
X127090750Y-72977000D01*
X128015000Y-72977000D01*
X128015000Y-71927750D01*
X127856250Y-71769000D01*
X127567000Y-71765928D01*
X127442518Y-71778188D01*
X127322820Y-71814498D01*
X127212506Y-71873463D01*
X127115815Y-71952815D01*
X127036463Y-72049506D01*
X126977498Y-72159820D01*
X126941188Y-72279518D01*
X126928928Y-72404000D01*
X121849000Y-72404000D01*
X121849000Y-69999000D01*
X126928928Y-69999000D01*
X126941188Y-70123482D01*
X126977498Y-70243180D01*
X127036463Y-70353494D01*
X127115815Y-70450185D01*
X127212506Y-70529537D01*
X127322820Y-70588502D01*
X127442518Y-70624812D01*
X127567000Y-70637072D01*
X127856250Y-70634000D01*
X128015000Y-70475250D01*
X128015000Y-69426000D01*
X127090750Y-69426000D01*
X126932000Y-69584750D01*
X126928928Y-69999000D01*
X121849000Y-69999000D01*
X121849000Y-68599000D01*
X126928928Y-68599000D01*
X126932000Y-69013250D01*
X127090750Y-69172000D01*
X128015000Y-69172000D01*
X128015000Y-68122750D01*
X127856250Y-67964000D01*
X127567000Y-67960928D01*
X127442518Y-67973188D01*
X127322820Y-68009498D01*
X127212506Y-68068463D01*
X127115815Y-68147815D01*
X127036463Y-68244506D01*
X126977498Y-68354820D01*
X126941188Y-68474518D01*
X126928928Y-68599000D01*
X121849000Y-68599000D01*
X121849000Y-66184000D01*
X126928928Y-66184000D01*
X126941188Y-66308482D01*
X126977498Y-66428180D01*
X127036463Y-66538494D01*
X127115815Y-66635185D01*
X127212506Y-66714537D01*
X127322820Y-66773502D01*
X127442518Y-66809812D01*
X127567000Y-66822072D01*
X127856250Y-66819000D01*
X128015000Y-66660250D01*
X128015000Y-65611000D01*
X127090750Y-65611000D01*
X126932000Y-65769750D01*
X126928928Y-66184000D01*
X121849000Y-66184000D01*
X121849000Y-64784000D01*
X126928928Y-64784000D01*
X126932000Y-65198250D01*
X127090750Y-65357000D01*
X128015000Y-65357000D01*
X128015000Y-64307750D01*
X127856250Y-64149000D01*
X127567000Y-64145928D01*
X127442518Y-64158188D01*
X127322820Y-64194498D01*
X127212506Y-64253463D01*
X127115815Y-64332815D01*
X127036463Y-64429506D01*
X126977498Y-64539820D01*
X126941188Y-64659518D01*
X126928928Y-64784000D01*
X121849000Y-64784000D01*
X121849000Y-55529000D01*
X126738928Y-55529000D01*
X126751188Y-55653482D01*
X126787498Y-55773180D01*
X126846463Y-55883494D01*
X126925815Y-55980185D01*
X127022506Y-56059537D01*
X127132820Y-56118502D01*
X127252518Y-56154812D01*
X127377000Y-56167072D01*
X128091250Y-56164000D01*
X128250000Y-56005250D01*
X128250000Y-54806000D01*
X128504000Y-54806000D01*
X128504000Y-56005250D01*
X128662750Y-56164000D01*
X129377000Y-56167072D01*
X129501482Y-56154812D01*
X129621180Y-56118502D01*
X129731494Y-56059537D01*
X129828185Y-55980185D01*
X129907537Y-55883494D01*
X129966502Y-55773180D01*
X129967068Y-55771312D01*
X130338974Y-55771312D01*
X130349734Y-55895933D01*
X130384599Y-56016059D01*
X130442230Y-56127076D01*
X130520412Y-56224716D01*
X130616140Y-56305228D01*
X130725736Y-56365517D01*
X130844987Y-56403266D01*
X130945250Y-56414000D01*
X131104000Y-56255250D01*
X131104000Y-55771312D01*
X131138974Y-55771312D01*
X131149734Y-55895933D01*
X131184599Y-56016059D01*
X131242230Y-56127076D01*
X131320412Y-56224716D01*
X131350000Y-56249601D01*
X131350000Y-56255250D01*
X131508750Y-56414000D01*
X131609013Y-56403266D01*
X131627000Y-56397572D01*
X131644987Y-56403266D01*
X131745250Y-56414000D01*
X131904000Y-56255250D01*
X131904000Y-56249601D01*
X131933588Y-56224716D01*
X132011770Y-56127076D01*
X132069401Y-56016059D01*
X132104266Y-55895933D01*
X132115026Y-55771312D01*
X132112000Y-55064750D01*
X131953250Y-54906000D01*
X131300750Y-54906000D01*
X131142000Y-55064750D01*
X131138974Y-55771312D01*
X131104000Y-55771312D01*
X131104000Y-54906000D01*
X130500750Y-54906000D01*
X130342000Y-55064750D01*
X130338974Y-55771312D01*
X129967068Y-55771312D01*
X130002812Y-55653482D01*
X130015072Y-55529000D01*
X130012000Y-54964750D01*
X129853250Y-54806000D01*
X128504000Y-54806000D01*
X128250000Y-54806000D01*
X126900750Y-54806000D01*
X126742000Y-54964750D01*
X126738928Y-55529000D01*
X121849000Y-55529000D01*
X121849000Y-53829000D01*
X126738928Y-53829000D01*
X126742000Y-54393250D01*
X126900750Y-54552000D01*
X128250000Y-54552000D01*
X128250000Y-53352750D01*
X128504000Y-53352750D01*
X128504000Y-54552000D01*
X129853250Y-54552000D01*
X130012000Y-54393250D01*
X130015072Y-53829000D01*
X130010905Y-53786688D01*
X130338974Y-53786688D01*
X130342000Y-54493250D01*
X130500750Y-54652000D01*
X131104000Y-54652000D01*
X131104000Y-53786688D01*
X131138974Y-53786688D01*
X131142000Y-54493250D01*
X131300750Y-54652000D01*
X131953250Y-54652000D01*
X132112000Y-54493250D01*
X132115026Y-53786688D01*
X132114363Y-53779000D01*
X132147934Y-53779000D01*
X132147934Y-55779000D01*
X132150000Y-55799978D01*
X132150000Y-56255250D01*
X132308750Y-56414000D01*
X132409013Y-56403266D01*
X132528264Y-56365517D01*
X132637860Y-56305228D01*
X132733588Y-56224716D01*
X132746920Y-56208066D01*
X133077000Y-56208066D01*
X133160707Y-56199822D01*
X133227000Y-56179711D01*
X133293293Y-56199822D01*
X133377000Y-56208066D01*
X133750001Y-56208066D01*
X133750001Y-56245746D01*
X133746726Y-56279000D01*
X133759796Y-56411714D01*
X133798508Y-56539329D01*
X133861372Y-56656940D01*
X133924776Y-56734198D01*
X133924779Y-56734201D01*
X133945974Y-56760027D01*
X133971800Y-56781222D01*
X135255774Y-58065196D01*
X135276973Y-58091027D01*
X135380059Y-58175628D01*
X135497670Y-58238492D01*
X135625285Y-58277204D01*
X135724748Y-58287000D01*
X135724757Y-58287000D01*
X135757999Y-58290274D01*
X135791241Y-58287000D01*
X140420578Y-58287000D01*
X141534000Y-59400422D01*
X141534000Y-59584934D01*
X141461000Y-59584934D01*
X141377293Y-59593178D01*
X141296804Y-59617595D01*
X141222624Y-59657245D01*
X141157605Y-59710605D01*
X141104245Y-59775624D01*
X141064595Y-59849804D01*
X141040178Y-59930293D01*
X141031934Y-60014000D01*
X141031934Y-62014000D01*
X141040178Y-62097707D01*
X141064595Y-62178196D01*
X141104245Y-62252376D01*
X141157605Y-62317395D01*
X141222624Y-62370755D01*
X141296804Y-62410405D01*
X141377293Y-62434822D01*
X141461000Y-62443066D01*
X141534001Y-62443066D01*
X141534001Y-62997595D01*
X141492123Y-63060269D01*
X141429782Y-63210773D01*
X141398000Y-63370548D01*
X141398000Y-63533452D01*
X141429782Y-63693227D01*
X141492123Y-63843731D01*
X141582628Y-63979181D01*
X141697819Y-64094372D01*
X141833269Y-64184877D01*
X141983773Y-64247218D01*
X142143548Y-64279000D01*
X142306452Y-64279000D01*
X142466227Y-64247218D01*
X142616731Y-64184877D01*
X142752181Y-64094372D01*
X142867372Y-63979181D01*
X142957877Y-63843731D01*
X143020218Y-63693227D01*
X143052000Y-63533452D01*
X143052000Y-63370548D01*
X143020218Y-63210773D01*
X142957877Y-63060269D01*
X142888000Y-62955691D01*
X142888000Y-62443066D01*
X142961000Y-62443066D01*
X143044707Y-62434822D01*
X143125196Y-62410405D01*
X143199376Y-62370755D01*
X143221824Y-62352332D01*
X143230463Y-62368494D01*
X143309815Y-62465185D01*
X143406506Y-62544537D01*
X143516820Y-62603502D01*
X143636518Y-62639812D01*
X143761000Y-62652072D01*
X144225250Y-62649000D01*
X144384000Y-62490250D01*
X144384000Y-61141000D01*
X144364000Y-61141000D01*
X144364000Y-60887000D01*
X144384000Y-60887000D01*
X144384000Y-59537750D01*
X144225250Y-59379000D01*
X143761000Y-59375928D01*
X143636518Y-59388188D01*
X143516820Y-59424498D01*
X143406506Y-59483463D01*
X143309815Y-59562815D01*
X143230463Y-59659506D01*
X143221824Y-59675668D01*
X143199376Y-59657245D01*
X143125196Y-59617595D01*
X143044707Y-59593178D01*
X142961000Y-59584934D01*
X142888000Y-59584934D01*
X142888000Y-59153241D01*
X142891274Y-59119999D01*
X142888000Y-59086757D01*
X142888000Y-59086748D01*
X142878204Y-58987285D01*
X142839492Y-58859670D01*
X142776628Y-58742059D01*
X142692026Y-58638973D01*
X142666200Y-58617778D01*
X141203226Y-57154804D01*
X141182027Y-57128973D01*
X141078941Y-57044372D01*
X140961330Y-56981508D01*
X140833715Y-56942796D01*
X140734252Y-56933000D01*
X140734245Y-56933000D01*
X140701000Y-56929726D01*
X140667755Y-56933000D01*
X136038422Y-56933000D01*
X135104000Y-55998578D01*
X135104000Y-55799978D01*
X135106066Y-55779000D01*
X135106066Y-55529000D01*
X135638928Y-55529000D01*
X135651188Y-55653482D01*
X135687498Y-55773180D01*
X135746463Y-55883494D01*
X135825815Y-55980185D01*
X135922506Y-56059537D01*
X136032820Y-56118502D01*
X136152518Y-56154812D01*
X136277000Y-56167072D01*
X136991250Y-56164000D01*
X137150000Y-56005250D01*
X137150000Y-54806000D01*
X137404000Y-54806000D01*
X137404000Y-56005250D01*
X137562750Y-56164000D01*
X138277000Y-56167072D01*
X138401482Y-56154812D01*
X138521180Y-56118502D01*
X138631494Y-56059537D01*
X138728185Y-55980185D01*
X138807537Y-55883494D01*
X138866502Y-55773180D01*
X138884454Y-55714000D01*
X141972928Y-55714000D01*
X141985188Y-55838482D01*
X142021498Y-55958180D01*
X142080463Y-56068494D01*
X142159815Y-56165185D01*
X142256506Y-56244537D01*
X142366820Y-56303502D01*
X142486518Y-56339812D01*
X142611000Y-56352072D01*
X144225250Y-56349000D01*
X144384000Y-56190250D01*
X144384000Y-54841000D01*
X144638000Y-54841000D01*
X144638000Y-56190250D01*
X144796750Y-56349000D01*
X146411000Y-56352072D01*
X146535482Y-56339812D01*
X146655180Y-56303502D01*
X146765494Y-56244537D01*
X146862185Y-56165185D01*
X146941537Y-56068494D01*
X147000502Y-55958180D01*
X147036812Y-55838482D01*
X147049072Y-55714000D01*
X147046000Y-54999750D01*
X146887250Y-54841000D01*
X144638000Y-54841000D01*
X144384000Y-54841000D01*
X142134750Y-54841000D01*
X141976000Y-54999750D01*
X141972928Y-55714000D01*
X138884454Y-55714000D01*
X138902812Y-55653482D01*
X138915072Y-55529000D01*
X138912000Y-54964750D01*
X138753250Y-54806000D01*
X137404000Y-54806000D01*
X137150000Y-54806000D01*
X135800750Y-54806000D01*
X135642000Y-54964750D01*
X135638928Y-55529000D01*
X135106066Y-55529000D01*
X135106066Y-53829000D01*
X135638928Y-53829000D01*
X135642000Y-54393250D01*
X135800750Y-54552000D01*
X137150000Y-54552000D01*
X137150000Y-53352750D01*
X137404000Y-53352750D01*
X137404000Y-54552000D01*
X138753250Y-54552000D01*
X138912000Y-54393250D01*
X138915072Y-53829000D01*
X138902812Y-53704518D01*
X138866502Y-53584820D01*
X138807537Y-53474506D01*
X138728185Y-53377815D01*
X138631494Y-53298463D01*
X138521180Y-53239498D01*
X138401482Y-53203188D01*
X138277000Y-53190928D01*
X137562750Y-53194000D01*
X137404000Y-53352750D01*
X137150000Y-53352750D01*
X136991250Y-53194000D01*
X136277000Y-53190928D01*
X136152518Y-53203188D01*
X136032820Y-53239498D01*
X135922506Y-53298463D01*
X135825815Y-53377815D01*
X135746463Y-53474506D01*
X135687498Y-53584820D01*
X135651188Y-53704518D01*
X135638928Y-53829000D01*
X135106066Y-53829000D01*
X135106066Y-53779000D01*
X135097822Y-53695293D01*
X135073405Y-53614804D01*
X135033755Y-53540624D01*
X134980395Y-53475605D01*
X134915376Y-53422245D01*
X134841196Y-53382595D01*
X134760707Y-53358178D01*
X134677000Y-53349934D01*
X134177000Y-53349934D01*
X134093293Y-53358178D01*
X134027000Y-53378289D01*
X133960707Y-53358178D01*
X133877000Y-53349934D01*
X133377000Y-53349934D01*
X133293293Y-53358178D01*
X133227000Y-53378289D01*
X133160707Y-53358178D01*
X133077000Y-53349934D01*
X132746920Y-53349934D01*
X132733588Y-53333284D01*
X132637860Y-53252772D01*
X132528264Y-53192483D01*
X132409013Y-53154734D01*
X132308750Y-53144000D01*
X132150000Y-53302750D01*
X132150000Y-53758022D01*
X132147934Y-53779000D01*
X132114363Y-53779000D01*
X132104266Y-53662067D01*
X132069401Y-53541941D01*
X132011770Y-53430924D01*
X131933588Y-53333284D01*
X131904000Y-53308399D01*
X131904000Y-53302750D01*
X131745250Y-53144000D01*
X131644987Y-53154734D01*
X131627000Y-53160428D01*
X131609013Y-53154734D01*
X131508750Y-53144000D01*
X131350000Y-53302750D01*
X131350000Y-53308399D01*
X131320412Y-53333284D01*
X131242230Y-53430924D01*
X131184599Y-53541941D01*
X131149734Y-53662067D01*
X131138974Y-53786688D01*
X131104000Y-53786688D01*
X131104000Y-53302750D01*
X130945250Y-53144000D01*
X130844987Y-53154734D01*
X130725736Y-53192483D01*
X130616140Y-53252772D01*
X130520412Y-53333284D01*
X130442230Y-53430924D01*
X130384599Y-53541941D01*
X130349734Y-53662067D01*
X130338974Y-53786688D01*
X130010905Y-53786688D01*
X130002812Y-53704518D01*
X129966502Y-53584820D01*
X129907537Y-53474506D01*
X129828185Y-53377815D01*
X129731494Y-53298463D01*
X129621180Y-53239498D01*
X129501482Y-53203188D01*
X129377000Y-53190928D01*
X128662750Y-53194000D01*
X128504000Y-53352750D01*
X128250000Y-53352750D01*
X128091250Y-53194000D01*
X127377000Y-53190928D01*
X127252518Y-53203188D01*
X127132820Y-53239498D01*
X127022506Y-53298463D01*
X126925815Y-53377815D01*
X126846463Y-53474506D01*
X126787498Y-53584820D01*
X126751188Y-53704518D01*
X126738928Y-53829000D01*
X121849000Y-53829000D01*
X121849000Y-51987699D01*
X129700000Y-51987699D01*
X129700000Y-52170301D01*
X129735624Y-52349396D01*
X129805504Y-52518099D01*
X129906952Y-52669928D01*
X130036072Y-52799048D01*
X130187901Y-52900496D01*
X130356604Y-52970376D01*
X130535699Y-53006000D01*
X130718301Y-53006000D01*
X130897396Y-52970376D01*
X131066099Y-52900496D01*
X131217928Y-52799048D01*
X131347048Y-52669928D01*
X131448496Y-52518099D01*
X131518376Y-52349396D01*
X131554000Y-52170301D01*
X131554000Y-51987699D01*
X134100000Y-51987699D01*
X134100000Y-52170301D01*
X134135624Y-52349396D01*
X134205504Y-52518099D01*
X134306952Y-52669928D01*
X134436072Y-52799048D01*
X134587901Y-52900496D01*
X134756604Y-52970376D01*
X134935699Y-53006000D01*
X135118301Y-53006000D01*
X135297396Y-52970376D01*
X135466099Y-52900496D01*
X135617928Y-52799048D01*
X135747048Y-52669928D01*
X135848496Y-52518099D01*
X135918376Y-52349396D01*
X135954000Y-52170301D01*
X135954000Y-51987699D01*
X135918376Y-51808604D01*
X135848496Y-51639901D01*
X135747048Y-51488072D01*
X135617928Y-51358952D01*
X135466099Y-51257504D01*
X135297396Y-51187624D01*
X135118301Y-51152000D01*
X134935699Y-51152000D01*
X134756604Y-51187624D01*
X134587901Y-51257504D01*
X134436072Y-51358952D01*
X134306952Y-51488072D01*
X134205504Y-51639901D01*
X134135624Y-51808604D01*
X134100000Y-51987699D01*
X131554000Y-51987699D01*
X131518376Y-51808604D01*
X131448496Y-51639901D01*
X131347048Y-51488072D01*
X131217928Y-51358952D01*
X131066099Y-51257504D01*
X130897396Y-51187624D01*
X130718301Y-51152000D01*
X130535699Y-51152000D01*
X130356604Y-51187624D01*
X130187901Y-51257504D01*
X130036072Y-51358952D01*
X129906952Y-51488072D01*
X129805504Y-51639901D01*
X129735624Y-51808604D01*
X129700000Y-51987699D01*
X121849000Y-51987699D01*
X121849000Y-51083135D01*
X121922647Y-50257935D01*
X121971598Y-50079000D01*
X126738928Y-50079000D01*
X126751188Y-50203482D01*
X126787498Y-50323180D01*
X126846463Y-50433494D01*
X126925815Y-50530185D01*
X127022506Y-50609537D01*
X127132820Y-50668502D01*
X127252518Y-50704812D01*
X127377000Y-50717072D01*
X128091250Y-50714000D01*
X128250000Y-50555250D01*
X128250000Y-49356000D01*
X128504000Y-49356000D01*
X128504000Y-50555250D01*
X128662750Y-50714000D01*
X129377000Y-50717072D01*
X129501482Y-50704812D01*
X129621180Y-50668502D01*
X129731494Y-50609537D01*
X129828185Y-50530185D01*
X129907537Y-50433494D01*
X129966502Y-50323180D01*
X130002812Y-50203482D01*
X130015072Y-50079000D01*
X135638928Y-50079000D01*
X135651188Y-50203482D01*
X135687498Y-50323180D01*
X135746463Y-50433494D01*
X135825815Y-50530185D01*
X135922506Y-50609537D01*
X136032820Y-50668502D01*
X136152518Y-50704812D01*
X136277000Y-50717072D01*
X136991250Y-50714000D01*
X137150000Y-50555250D01*
X137150000Y-49356000D01*
X137404000Y-49356000D01*
X137404000Y-50555250D01*
X137562750Y-50714000D01*
X138277000Y-50717072D01*
X138401482Y-50704812D01*
X138521180Y-50668502D01*
X138631494Y-50609537D01*
X138728185Y-50530185D01*
X138807537Y-50433494D01*
X138866502Y-50323180D01*
X138902812Y-50203482D01*
X138915072Y-50079000D01*
X138912000Y-49514750D01*
X138753250Y-49356000D01*
X137404000Y-49356000D01*
X137150000Y-49356000D01*
X135800750Y-49356000D01*
X135642000Y-49514750D01*
X135638928Y-50079000D01*
X130015072Y-50079000D01*
X130012000Y-49514750D01*
X129853250Y-49356000D01*
X128504000Y-49356000D01*
X128250000Y-49356000D01*
X126900750Y-49356000D01*
X126742000Y-49514750D01*
X126738928Y-50079000D01*
X121971598Y-50079000D01*
X122135925Y-49478322D01*
X122483889Y-48748799D01*
X122749616Y-48379000D01*
X126738928Y-48379000D01*
X126742000Y-48943250D01*
X126900750Y-49102000D01*
X128250000Y-49102000D01*
X128250000Y-47902750D01*
X128504000Y-47902750D01*
X128504000Y-49102000D01*
X129853250Y-49102000D01*
X130012000Y-48943250D01*
X130015072Y-48379000D01*
X135638928Y-48379000D01*
X135642000Y-48943250D01*
X135800750Y-49102000D01*
X137150000Y-49102000D01*
X137150000Y-47902750D01*
X137404000Y-47902750D01*
X137404000Y-49102000D01*
X138753250Y-49102000D01*
X138912000Y-48943250D01*
X138915072Y-48379000D01*
X138902812Y-48254518D01*
X138866502Y-48134820D01*
X138807537Y-48024506D01*
X138728185Y-47927815D01*
X138631494Y-47848463D01*
X138521180Y-47789498D01*
X138401482Y-47753188D01*
X138277000Y-47740928D01*
X137562750Y-47744000D01*
X137404000Y-47902750D01*
X137150000Y-47902750D01*
X136991250Y-47744000D01*
X136277000Y-47740928D01*
X136152518Y-47753188D01*
X136032820Y-47789498D01*
X135922506Y-47848463D01*
X135825815Y-47927815D01*
X135746463Y-48024506D01*
X135687498Y-48134820D01*
X135651188Y-48254518D01*
X135638928Y-48379000D01*
X130015072Y-48379000D01*
X130002812Y-48254518D01*
X129966502Y-48134820D01*
X129907537Y-48024506D01*
X129828185Y-47927815D01*
X129731494Y-47848463D01*
X129621180Y-47789498D01*
X129501482Y-47753188D01*
X129377000Y-47740928D01*
X128662750Y-47744000D01*
X128504000Y-47902750D01*
X128250000Y-47902750D01*
X128091250Y-47744000D01*
X127377000Y-47740928D01*
X127252518Y-47753188D01*
X127132820Y-47789498D01*
X127022506Y-47848463D01*
X126925815Y-47927815D01*
X126846463Y-48024506D01*
X126787498Y-48134820D01*
X126751188Y-48254518D01*
X126738928Y-48379000D01*
X122749616Y-48379000D01*
X122955548Y-48092416D01*
X123535983Y-47529935D01*
X124206851Y-47079132D01*
X124946949Y-46754251D01*
X125736355Y-46564731D01*
X126413572Y-46515000D01*
X186376865Y-46515000D01*
X187202065Y-46588647D01*
M02*
