G04 #@! TF.GenerationSoftware,KiCad,Pcbnew,(5.1.5)-2*
G04 #@! TF.CreationDate,2021-11-26T12:09:46+01:00*
G04 #@! TF.ProjectId,PIC12_BOARD_REV2,50494331-325f-4424-9f41-52445f524556,rev?*
G04 #@! TF.SameCoordinates,Original*
G04 #@! TF.FileFunction,Legend,Top*
G04 #@! TF.FilePolarity,Positive*
%FSLAX46Y46*%
G04 Gerber Fmt 4.6, Leading zero omitted, Abs format (unit mm)*
G04 Created by KiCad (PCBNEW (5.1.5)-2) date 2021-11-26 12:09:46*
%MOMM*%
%LPD*%
G04 APERTURE LIST*
%ADD10C,0.250000*%
%ADD11C,0.500000*%
%ADD12C,0.300000*%
%ADD13C,0.150000*%
%ADD14C,0.120000*%
%ADD15C,0.100000*%
%ADD16C,0.350000*%
%ADD17C,0.010000*%
G04 APERTURE END LIST*
D10*
X155576842Y-54806380D02*
X155767318Y-54806380D01*
X155856604Y-54854000D01*
X155939937Y-54949238D01*
X155963747Y-55139714D01*
X155922080Y-55473047D01*
X155850651Y-55663523D01*
X155743508Y-55758761D01*
X155642318Y-55806380D01*
X155451842Y-55806380D01*
X155362556Y-55758761D01*
X155279223Y-55663523D01*
X155255413Y-55473047D01*
X155297080Y-55139714D01*
X155368508Y-54949238D01*
X155475651Y-54854000D01*
X155576842Y-54806380D01*
X156308985Y-55806380D02*
X156433985Y-54806380D01*
X156880413Y-55806380D01*
X157005413Y-54806380D01*
D11*
X122397000Y-140063000D02*
X127397000Y-145063000D01*
D10*
X123873666Y-75540880D02*
X124207000Y-76540880D01*
X124540333Y-75540880D01*
X125445095Y-76445642D02*
X125397476Y-76493261D01*
X125254619Y-76540880D01*
X125159380Y-76540880D01*
X125016523Y-76493261D01*
X124921285Y-76398023D01*
X124873666Y-76302785D01*
X124826047Y-76112309D01*
X124826047Y-75969452D01*
X124873666Y-75778976D01*
X124921285Y-75683738D01*
X125016523Y-75588500D01*
X125159380Y-75540880D01*
X125254619Y-75540880D01*
X125397476Y-75588500D01*
X125445095Y-75636119D01*
X126445095Y-76445642D02*
X126397476Y-76493261D01*
X126254619Y-76540880D01*
X126159380Y-76540880D01*
X126016523Y-76493261D01*
X125921285Y-76398023D01*
X125873666Y-76302785D01*
X125826047Y-76112309D01*
X125826047Y-75969452D01*
X125873666Y-75778976D01*
X125921285Y-75683738D01*
X126016523Y-75588500D01*
X126159380Y-75540880D01*
X126254619Y-75540880D01*
X126397476Y-75588500D01*
X126445095Y-75636119D01*
X125707000Y-89804595D02*
X125754619Y-89709357D01*
X125754619Y-89566500D01*
X125707000Y-89423642D01*
X125611761Y-89328404D01*
X125516523Y-89280785D01*
X125326047Y-89233166D01*
X125183190Y-89233166D01*
X124992714Y-89280785D01*
X124897476Y-89328404D01*
X124802238Y-89423642D01*
X124754619Y-89566500D01*
X124754619Y-89661738D01*
X124802238Y-89804595D01*
X124849857Y-89852214D01*
X125183190Y-89852214D01*
X125183190Y-89661738D01*
X124754619Y-90280785D02*
X125754619Y-90280785D01*
X124754619Y-90852214D01*
X125754619Y-90852214D01*
X124754619Y-91328404D02*
X125754619Y-91328404D01*
X125754619Y-91566500D01*
X125707000Y-91709357D01*
X125611761Y-91804595D01*
X125516523Y-91852214D01*
X125326047Y-91899833D01*
X125183190Y-91899833D01*
X124992714Y-91852214D01*
X124897476Y-91804595D01*
X124802238Y-91709357D01*
X124754619Y-91566500D01*
X124754619Y-91328404D01*
X187429000Y-116948904D02*
X187381380Y-117044142D01*
X187381380Y-117187000D01*
X187429000Y-117329857D01*
X187524238Y-117425095D01*
X187619476Y-117472714D01*
X187809952Y-117520333D01*
X187952809Y-117520333D01*
X188143285Y-117472714D01*
X188238523Y-117425095D01*
X188333761Y-117329857D01*
X188381380Y-117187000D01*
X188381380Y-117091761D01*
X188333761Y-116948904D01*
X188286142Y-116901285D01*
X187952809Y-116901285D01*
X187952809Y-117091761D01*
X188381380Y-116472714D02*
X187381380Y-116472714D01*
X188381380Y-115901285D01*
X187381380Y-115901285D01*
X188381380Y-115425095D02*
X187381380Y-115425095D01*
X187381380Y-115187000D01*
X187429000Y-115044142D01*
X187524238Y-114948904D01*
X187619476Y-114901285D01*
X187809952Y-114853666D01*
X187952809Y-114853666D01*
X188143285Y-114901285D01*
X188238523Y-114948904D01*
X188333761Y-115044142D01*
X188381380Y-115187000D01*
X188381380Y-115425095D01*
D12*
X181702428Y-143823071D02*
X181202428Y-143108785D01*
X180845285Y-143823071D02*
X180845285Y-142323071D01*
X181416714Y-142323071D01*
X181559571Y-142394500D01*
X181631000Y-142465928D01*
X181702428Y-142608785D01*
X181702428Y-142823071D01*
X181631000Y-142965928D01*
X181559571Y-143037357D01*
X181416714Y-143108785D01*
X180845285Y-143108785D01*
X182345285Y-143037357D02*
X182845285Y-143037357D01*
X183059571Y-143823071D02*
X182345285Y-143823071D01*
X182345285Y-142323071D01*
X183059571Y-142323071D01*
X183631000Y-143751642D02*
X183845285Y-143823071D01*
X184202428Y-143823071D01*
X184345285Y-143751642D01*
X184416714Y-143680214D01*
X184488142Y-143537357D01*
X184488142Y-143394500D01*
X184416714Y-143251642D01*
X184345285Y-143180214D01*
X184202428Y-143108785D01*
X183916714Y-143037357D01*
X183773857Y-142965928D01*
X183702428Y-142894500D01*
X183631000Y-142751642D01*
X183631000Y-142608785D01*
X183702428Y-142465928D01*
X183773857Y-142394500D01*
X183916714Y-142323071D01*
X184273857Y-142323071D01*
X184488142Y-142394500D01*
X185131000Y-143037357D02*
X185631000Y-143037357D01*
X185845285Y-143823071D02*
X185131000Y-143823071D01*
X185131000Y-142323071D01*
X185845285Y-142323071D01*
X186273857Y-142323071D02*
X187131000Y-142323071D01*
X186702428Y-143823071D02*
X186702428Y-142323071D01*
D13*
X142171142Y-48072142D02*
X142256857Y-48100714D01*
X142285428Y-48129285D01*
X142314000Y-48186428D01*
X142314000Y-48272142D01*
X142285428Y-48329285D01*
X142256857Y-48357857D01*
X142199714Y-48386428D01*
X141971142Y-48386428D01*
X141971142Y-47786428D01*
X142171142Y-47786428D01*
X142228285Y-47815000D01*
X142256857Y-47843571D01*
X142285428Y-47900714D01*
X142285428Y-47957857D01*
X142256857Y-48015000D01*
X142228285Y-48043571D01*
X142171142Y-48072142D01*
X141971142Y-48072142D01*
X142542571Y-48215000D02*
X142828285Y-48215000D01*
X142485428Y-48386428D02*
X142685428Y-47786428D01*
X142885428Y-48386428D01*
X142999714Y-47786428D02*
X143342571Y-47786428D01*
X143171142Y-48386428D02*
X143171142Y-47786428D01*
X143456857Y-47786428D02*
X143799714Y-47786428D01*
X143628285Y-48386428D02*
X143628285Y-47786428D01*
X143999714Y-48157857D02*
X144456857Y-48157857D01*
X144742571Y-47786428D02*
X144742571Y-48272142D01*
X144771142Y-48329285D01*
X144799714Y-48357857D01*
X144856857Y-48386428D01*
X144971142Y-48386428D01*
X145028285Y-48357857D01*
X145056857Y-48329285D01*
X145085428Y-48272142D01*
X145085428Y-47786428D01*
X145342571Y-48357857D02*
X145428285Y-48386428D01*
X145571142Y-48386428D01*
X145628285Y-48357857D01*
X145656857Y-48329285D01*
X145685428Y-48272142D01*
X145685428Y-48215000D01*
X145656857Y-48157857D01*
X145628285Y-48129285D01*
X145571142Y-48100714D01*
X145456857Y-48072142D01*
X145399714Y-48043571D01*
X145371142Y-48015000D01*
X145342571Y-47957857D01*
X145342571Y-47900714D01*
X145371142Y-47843571D01*
X145399714Y-47815000D01*
X145456857Y-47786428D01*
X145599714Y-47786428D01*
X145685428Y-47815000D01*
X146142571Y-48072142D02*
X146228285Y-48100714D01*
X146256857Y-48129285D01*
X146285428Y-48186428D01*
X146285428Y-48272142D01*
X146256857Y-48329285D01*
X146228285Y-48357857D01*
X146171142Y-48386428D01*
X145942571Y-48386428D01*
X145942571Y-47786428D01*
X146142571Y-47786428D01*
X146199714Y-47815000D01*
X146228285Y-47843571D01*
X146256857Y-47900714D01*
X146256857Y-47957857D01*
X146228285Y-48015000D01*
X146199714Y-48043571D01*
X146142571Y-48072142D01*
X145942571Y-48072142D01*
D14*
X150353000Y-52403000D02*
X151369000Y-52403000D01*
X151369000Y-52403000D02*
X150861000Y-51641000D01*
D15*
G36*
X151369000Y-52403000D02*
G01*
X150353000Y-52403000D01*
X150861000Y-51641000D01*
X151369000Y-52403000D01*
G37*
X151369000Y-52403000D02*
X150353000Y-52403000D01*
X150861000Y-51641000D01*
X151369000Y-52403000D01*
D14*
X150861000Y-51641000D02*
X150353000Y-52403000D01*
D11*
X187397000Y-145063000D02*
X190397000Y-141063000D01*
X127397000Y-145063000D02*
X187397000Y-145063000D01*
X122397000Y-120063000D02*
X122397000Y-140063000D01*
X190397000Y-121063000D02*
X190397000Y-141063000D01*
D16*
X124194428Y-106278723D02*
X125694428Y-106466223D01*
X125694428Y-107037651D01*
X125623000Y-107171580D01*
X125551571Y-107234080D01*
X125408714Y-107287651D01*
X125194428Y-107260866D01*
X125051571Y-107171580D01*
X124980142Y-107091223D01*
X124908714Y-106939437D01*
X124908714Y-106368008D01*
X124194428Y-107778723D02*
X125694428Y-107966223D01*
X124337285Y-109368008D02*
X124265857Y-109287651D01*
X124194428Y-109064437D01*
X124194428Y-108921580D01*
X124265857Y-108716223D01*
X124408714Y-108591223D01*
X124551571Y-108537651D01*
X124837285Y-108501937D01*
X125051571Y-108528723D01*
X125337285Y-108635866D01*
X125480142Y-108725151D01*
X125623000Y-108885866D01*
X125694428Y-109109080D01*
X125694428Y-109251937D01*
X125623000Y-109457294D01*
X125551571Y-109519794D01*
X124194428Y-110778723D02*
X124194428Y-109921580D01*
X124194428Y-110350151D02*
X125694428Y-110537651D01*
X125480142Y-110368008D01*
X125337285Y-110207294D01*
X125265857Y-110055508D01*
X125551571Y-111519794D02*
X125623000Y-111600151D01*
X125694428Y-111751937D01*
X125694428Y-112109080D01*
X125623000Y-112243008D01*
X125551571Y-112305508D01*
X125408714Y-112359080D01*
X125265857Y-112341223D01*
X125051571Y-112243008D01*
X124194428Y-111278723D01*
X124194428Y-112207294D01*
X124194428Y-113993008D02*
X125694428Y-114180508D01*
X125694428Y-114537651D01*
X125623000Y-114743008D01*
X125480142Y-114868008D01*
X125337285Y-114921580D01*
X125051571Y-114957294D01*
X124837285Y-114930508D01*
X124551571Y-114823366D01*
X124408714Y-114734080D01*
X124265857Y-114573366D01*
X124194428Y-114350151D01*
X124194428Y-113993008D01*
X124265857Y-116073366D02*
X124194428Y-115921580D01*
X124194428Y-115635866D01*
X124265857Y-115501937D01*
X124408714Y-115448366D01*
X124980142Y-115519794D01*
X125123000Y-115609080D01*
X125194428Y-115760866D01*
X125194428Y-116046580D01*
X125123000Y-116180508D01*
X124980142Y-116234080D01*
X124837285Y-116216223D01*
X124694428Y-115484080D01*
X125194428Y-116760866D02*
X124194428Y-116993008D01*
X125194428Y-117475151D01*
X124265857Y-118501937D02*
X124194428Y-118350151D01*
X124194428Y-118064437D01*
X124265857Y-117930508D01*
X124408714Y-117876937D01*
X124980142Y-117948366D01*
X125123000Y-118037651D01*
X125194428Y-118189437D01*
X125194428Y-118475151D01*
X125123000Y-118609080D01*
X124980142Y-118662651D01*
X124837285Y-118644794D01*
X124694428Y-117912651D01*
X124194428Y-119421580D02*
X124265857Y-119287651D01*
X124408714Y-119234080D01*
X125694428Y-119394794D01*
X124194428Y-120207294D02*
X124265857Y-120073366D01*
X124337285Y-120010866D01*
X124480142Y-119957294D01*
X124908714Y-120010866D01*
X125051571Y-120100151D01*
X125123000Y-120180508D01*
X125194428Y-120332294D01*
X125194428Y-120546580D01*
X125123000Y-120680508D01*
X125051571Y-120743008D01*
X124908714Y-120796580D01*
X124480142Y-120743008D01*
X124337285Y-120653723D01*
X124265857Y-120573366D01*
X124194428Y-120421580D01*
X124194428Y-120207294D01*
X125194428Y-121475151D02*
X123694428Y-121287651D01*
X125123000Y-121466223D02*
X125194428Y-121618008D01*
X125194428Y-121903723D01*
X125123000Y-122037651D01*
X125051571Y-122100151D01*
X124908714Y-122153723D01*
X124480142Y-122100151D01*
X124337285Y-122010866D01*
X124265857Y-121930508D01*
X124194428Y-121778723D01*
X124194428Y-121493008D01*
X124265857Y-121359080D01*
X124194428Y-122707294D02*
X125194428Y-122832294D01*
X125051571Y-122814437D02*
X125123000Y-122894794D01*
X125194428Y-123046580D01*
X125194428Y-123260866D01*
X125123000Y-123394794D01*
X124980142Y-123448366D01*
X124194428Y-123350151D01*
X124980142Y-123448366D02*
X125123000Y-123537651D01*
X125194428Y-123689437D01*
X125194428Y-123903723D01*
X125123000Y-124037651D01*
X124980142Y-124091223D01*
X124194428Y-123993008D01*
X124265857Y-125287651D02*
X124194428Y-125135866D01*
X124194428Y-124850151D01*
X124265857Y-124716223D01*
X124408714Y-124662651D01*
X124980142Y-124734080D01*
X125123000Y-124823366D01*
X125194428Y-124975151D01*
X125194428Y-125260866D01*
X125123000Y-125394794D01*
X124980142Y-125448366D01*
X124837285Y-125430508D01*
X124694428Y-124698366D01*
X125194428Y-126118008D02*
X124194428Y-125993008D01*
X125051571Y-126100151D02*
X125123000Y-126180508D01*
X125194428Y-126332294D01*
X125194428Y-126546580D01*
X125123000Y-126680508D01*
X124980142Y-126734080D01*
X124194428Y-126635866D01*
X125194428Y-127260866D02*
X125194428Y-127832294D01*
X125694428Y-127537651D02*
X124408714Y-127376937D01*
X124265857Y-127430508D01*
X124194428Y-127564437D01*
X124194428Y-127707294D01*
X188543571Y-101931419D02*
X187043571Y-101743919D01*
X187043571Y-101386776D01*
X187115000Y-101181419D01*
X187257857Y-101056419D01*
X187400714Y-101002848D01*
X187686428Y-100967133D01*
X187900714Y-100993919D01*
X188186428Y-101101062D01*
X188329285Y-101190348D01*
X188472142Y-101351062D01*
X188543571Y-101574276D01*
X188543571Y-101931419D01*
X188472142Y-99851062D02*
X188543571Y-100002848D01*
X188543571Y-100288562D01*
X188472142Y-100422491D01*
X188329285Y-100476062D01*
X187757857Y-100404633D01*
X187615000Y-100315348D01*
X187543571Y-100163562D01*
X187543571Y-99877848D01*
X187615000Y-99743919D01*
X187757857Y-99690348D01*
X187900714Y-99708205D01*
X188043571Y-100440348D01*
X188472142Y-99208205D02*
X188543571Y-99074276D01*
X188543571Y-98788562D01*
X188472142Y-98636776D01*
X188329285Y-98547491D01*
X188257857Y-98538562D01*
X188115000Y-98592133D01*
X188043571Y-98726062D01*
X188043571Y-98940348D01*
X187972142Y-99074276D01*
X187829285Y-99127848D01*
X187757857Y-99118919D01*
X187615000Y-99029633D01*
X187543571Y-98877848D01*
X187543571Y-98663562D01*
X187615000Y-98529633D01*
X188543571Y-97931419D02*
X187543571Y-97806419D01*
X187043571Y-97743919D02*
X187115000Y-97824276D01*
X187186428Y-97761776D01*
X187115000Y-97681419D01*
X187043571Y-97743919D01*
X187186428Y-97761776D01*
X187543571Y-96449276D02*
X188757857Y-96601062D01*
X188900714Y-96690348D01*
X188972142Y-96770705D01*
X189043571Y-96922491D01*
X189043571Y-97136776D01*
X188972142Y-97270705D01*
X188472142Y-96565348D02*
X188543571Y-96717133D01*
X188543571Y-97002848D01*
X188472142Y-97136776D01*
X188400714Y-97199276D01*
X188257857Y-97252848D01*
X187829285Y-97199276D01*
X187686428Y-97109991D01*
X187615000Y-97029633D01*
X187543571Y-96877848D01*
X187543571Y-96592133D01*
X187615000Y-96458205D01*
X187543571Y-95734991D02*
X188543571Y-95859991D01*
X187686428Y-95752848D02*
X187615000Y-95672491D01*
X187543571Y-95520705D01*
X187543571Y-95306419D01*
X187615000Y-95172491D01*
X187757857Y-95118919D01*
X188543571Y-95217133D01*
X188472142Y-93922491D02*
X188543571Y-94074276D01*
X188543571Y-94359991D01*
X188472142Y-94493919D01*
X188329285Y-94547491D01*
X187757857Y-94476062D01*
X187615000Y-94386776D01*
X187543571Y-94234991D01*
X187543571Y-93949276D01*
X187615000Y-93815348D01*
X187757857Y-93761776D01*
X187900714Y-93779633D01*
X188043571Y-94511776D01*
X188543571Y-92574276D02*
X187043571Y-92386776D01*
X188472142Y-92565348D02*
X188543571Y-92717133D01*
X188543571Y-93002848D01*
X188472142Y-93136776D01*
X188400714Y-93199276D01*
X188257857Y-93252848D01*
X187829285Y-93199276D01*
X187686428Y-93109991D01*
X187615000Y-93029633D01*
X187543571Y-92877848D01*
X187543571Y-92592133D01*
X187615000Y-92458205D01*
X188543571Y-90717133D02*
X187043571Y-90529633D01*
X187615000Y-90601062D02*
X187543571Y-90449276D01*
X187543571Y-90163562D01*
X187615000Y-90029633D01*
X187686428Y-89967133D01*
X187829285Y-89913562D01*
X188257857Y-89967133D01*
X188400714Y-90056419D01*
X188472142Y-90136776D01*
X188543571Y-90288562D01*
X188543571Y-90574276D01*
X188472142Y-90708205D01*
X187543571Y-89377848D02*
X188543571Y-89145705D01*
X187543571Y-88663562D02*
X188543571Y-89145705D01*
X188900714Y-89333205D01*
X188972142Y-89413562D01*
X189043571Y-89565348D01*
X187757857Y-86976062D02*
X187757857Y-86476062D01*
X188543571Y-86359991D02*
X188543571Y-87074276D01*
X187043571Y-86886776D01*
X187043571Y-86172491D01*
X188472142Y-85779633D02*
X188543571Y-85574276D01*
X188543571Y-85217133D01*
X188472142Y-85065348D01*
X188400714Y-84984991D01*
X188257857Y-84895705D01*
X188115000Y-84877848D01*
X187972142Y-84931419D01*
X187900714Y-84993919D01*
X187829285Y-85127848D01*
X187757857Y-85404633D01*
X187686428Y-85538562D01*
X187615000Y-85601062D01*
X187472142Y-85654633D01*
X187329285Y-85636776D01*
X187186428Y-85547491D01*
X187115000Y-85467133D01*
X187043571Y-85315348D01*
X187043571Y-84958205D01*
X187115000Y-84752848D01*
D10*
X152528428Y-143850880D02*
X152528428Y-142850880D01*
X152528428Y-143327071D02*
X153099857Y-143327071D01*
X153099857Y-143850880D02*
X153099857Y-142850880D01*
X153480809Y-142850880D02*
X153718904Y-143850880D01*
X153909380Y-143136595D01*
X154099857Y-143850880D01*
X154337952Y-142850880D01*
X156052238Y-143850880D02*
X155718904Y-143374690D01*
X155480809Y-143850880D02*
X155480809Y-142850880D01*
X155861761Y-142850880D01*
X155957000Y-142898500D01*
X156004619Y-142946119D01*
X156052238Y-143041357D01*
X156052238Y-143184214D01*
X156004619Y-143279452D01*
X155957000Y-143327071D01*
X155861761Y-143374690D01*
X155480809Y-143374690D01*
X156480809Y-143327071D02*
X156814142Y-143327071D01*
X156957000Y-143850880D02*
X156480809Y-143850880D01*
X156480809Y-142850880D01*
X156957000Y-142850880D01*
X157242714Y-142850880D02*
X157576047Y-143850880D01*
X157909380Y-142850880D01*
X158242714Y-143755642D02*
X158290333Y-143803261D01*
X158242714Y-143850880D01*
X158195095Y-143803261D01*
X158242714Y-143755642D01*
X158242714Y-143850880D01*
X159433190Y-142946119D02*
X159480809Y-142898500D01*
X159576047Y-142850880D01*
X159814142Y-142850880D01*
X159909380Y-142898500D01*
X159957000Y-142946119D01*
X160004619Y-143041357D01*
X160004619Y-143136595D01*
X159957000Y-143279452D01*
X159385571Y-143850880D01*
X160004619Y-143850880D01*
X160433190Y-143755642D02*
X160480809Y-143803261D01*
X160433190Y-143850880D01*
X160385571Y-143803261D01*
X160433190Y-143755642D01*
X160433190Y-143850880D01*
X161099857Y-142850880D02*
X161195095Y-142850880D01*
X161290333Y-142898500D01*
X161337952Y-142946119D01*
X161385571Y-143041357D01*
X161433190Y-143231833D01*
X161433190Y-143469928D01*
X161385571Y-143660404D01*
X161337952Y-143755642D01*
X161290333Y-143803261D01*
X161195095Y-143850880D01*
X161099857Y-143850880D01*
X161004619Y-143803261D01*
X160957000Y-143755642D01*
X160909380Y-143660404D01*
X160861761Y-143469928D01*
X160861761Y-143231833D01*
X160909380Y-143041357D01*
X160957000Y-142946119D01*
X161004619Y-142898500D01*
X161099857Y-142850880D01*
D11*
X167397000Y-47063000D02*
X180397000Y-47063000D01*
X126397000Y-47063000D02*
X167397000Y-47063000D01*
X186397000Y-47063000D02*
X180397000Y-47063000D01*
X190397000Y-51063000D02*
X186397000Y-47063000D01*
X190397000Y-121063000D02*
X190397000Y-51063000D01*
X122397000Y-51063000D02*
X126397000Y-47063000D01*
X122397000Y-120063000D02*
X122397000Y-51063000D01*
D17*
G36*
X176516803Y-49963640D02*
G01*
X176685676Y-50859427D01*
X177308796Y-51116298D01*
X177931916Y-51373168D01*
X178679453Y-50864849D01*
X178888802Y-50723316D01*
X179078043Y-50596945D01*
X179238343Y-50491507D01*
X179360874Y-50412770D01*
X179436802Y-50366505D01*
X179457480Y-50356529D01*
X179494731Y-50382186D01*
X179574332Y-50453115D01*
X179687361Y-50560257D01*
X179824895Y-50694550D01*
X179978012Y-50846934D01*
X180137789Y-51008347D01*
X180295305Y-51169730D01*
X180441637Y-51322022D01*
X180567863Y-51456162D01*
X180665060Y-51563089D01*
X180724307Y-51633742D01*
X180738471Y-51657388D01*
X180718087Y-51700979D01*
X180660941Y-51796481D01*
X180573041Y-51934550D01*
X180460396Y-52105845D01*
X180329013Y-52301025D01*
X180252882Y-52412352D01*
X180114118Y-52615633D01*
X179990811Y-52799073D01*
X179888945Y-52953542D01*
X179814501Y-53069909D01*
X179773461Y-53139042D01*
X179767294Y-53153570D01*
X179781274Y-53194860D01*
X179819382Y-53291092D01*
X179875867Y-53428734D01*
X179944980Y-53594258D01*
X180020970Y-53774132D01*
X180098089Y-53954828D01*
X180170585Y-54122814D01*
X180232709Y-54264560D01*
X180278712Y-54366537D01*
X180302843Y-54415214D01*
X180304267Y-54417130D01*
X180342158Y-54426425D01*
X180443069Y-54447160D01*
X180596540Y-54477298D01*
X180792112Y-54514801D01*
X181019325Y-54557629D01*
X181151891Y-54582326D01*
X181394679Y-54628553D01*
X181613974Y-54672540D01*
X181798681Y-54711881D01*
X181937705Y-54744169D01*
X182019952Y-54766997D01*
X182036485Y-54774240D01*
X182052678Y-54823261D01*
X182065744Y-54933977D01*
X182075691Y-55093438D01*
X182082528Y-55288700D01*
X182086264Y-55506814D01*
X182086907Y-55734835D01*
X182084468Y-55959815D01*
X182078953Y-56168809D01*
X182070374Y-56348868D01*
X182058737Y-56487047D01*
X182044052Y-56570398D01*
X182035245Y-56587750D01*
X181982599Y-56608548D01*
X181871043Y-56638282D01*
X181715335Y-56673459D01*
X181530229Y-56710586D01*
X181465613Y-56722597D01*
X181154071Y-56779662D01*
X180907976Y-56825618D01*
X180719195Y-56862293D01*
X180579598Y-56891513D01*
X180481052Y-56915104D01*
X180415426Y-56934892D01*
X180374589Y-56952706D01*
X180350409Y-56970370D01*
X180347026Y-56973861D01*
X180313255Y-57030100D01*
X180261737Y-57139547D01*
X180197617Y-57288800D01*
X180126039Y-57464459D01*
X180052146Y-57653121D01*
X179981083Y-57841385D01*
X179917993Y-58015848D01*
X179868021Y-58163108D01*
X179836312Y-58269764D01*
X179828008Y-58322413D01*
X179828700Y-58324257D01*
X179856836Y-58367292D01*
X179920665Y-58461978D01*
X180013480Y-58598460D01*
X180128573Y-58766882D01*
X180259237Y-58957390D01*
X180296448Y-59011529D01*
X180429129Y-59207804D01*
X180545883Y-59386886D01*
X180640349Y-59538492D01*
X180706168Y-59652338D01*
X180736978Y-59718141D01*
X180738471Y-59726225D01*
X180712584Y-59768715D01*
X180641054Y-59852891D01*
X180533076Y-59969705D01*
X180397846Y-60110110D01*
X180244558Y-60265061D01*
X180082409Y-60425509D01*
X179920593Y-60582409D01*
X179768306Y-60726713D01*
X179634743Y-60849376D01*
X179529100Y-60941350D01*
X179460572Y-60993589D01*
X179441614Y-61002118D01*
X179397487Y-60982029D01*
X179307142Y-60927849D01*
X179185295Y-60848704D01*
X179091546Y-60785001D01*
X178921678Y-60668110D01*
X178720512Y-60530476D01*
X178518733Y-60393063D01*
X178410250Y-60319519D01*
X178043058Y-60071155D01*
X177734826Y-60237813D01*
X177594404Y-60310822D01*
X177474996Y-60367571D01*
X177394202Y-60399937D01*
X177373636Y-60404441D01*
X177348906Y-60371189D01*
X177300118Y-60277224D01*
X177230913Y-60131213D01*
X177144935Y-59941824D01*
X177045824Y-59717724D01*
X176937224Y-59467581D01*
X176822775Y-59200063D01*
X176706120Y-58923836D01*
X176590901Y-58647568D01*
X176480760Y-58379927D01*
X176379339Y-58129580D01*
X176290280Y-57905195D01*
X176217225Y-57715439D01*
X176163816Y-57568980D01*
X176133695Y-57474485D01*
X176128851Y-57442031D01*
X176167245Y-57400636D01*
X176251308Y-57333438D01*
X176363467Y-57254400D01*
X176372881Y-57248147D01*
X176662768Y-57016103D01*
X176896512Y-56745386D01*
X177072087Y-56444653D01*
X177187469Y-56122561D01*
X177240630Y-55787765D01*
X177229547Y-55448922D01*
X177152192Y-55114688D01*
X177006540Y-54793719D01*
X176963688Y-54723495D01*
X176740802Y-54439927D01*
X176477491Y-54212218D01*
X176182865Y-54041551D01*
X175866041Y-53929112D01*
X175536130Y-53876083D01*
X175202246Y-53883651D01*
X174873503Y-53952998D01*
X174559014Y-54085309D01*
X174267893Y-54281768D01*
X174177840Y-54361506D01*
X173948653Y-54611108D01*
X173781646Y-54873868D01*
X173667085Y-55168399D01*
X173603281Y-55460075D01*
X173587530Y-55788012D01*
X173640051Y-56117577D01*
X173755510Y-56437630D01*
X173928571Y-56737032D01*
X174153899Y-57004643D01*
X174426160Y-57229325D01*
X174461942Y-57253008D01*
X174575302Y-57330568D01*
X174661478Y-57397768D01*
X174702677Y-57440675D01*
X174703276Y-57442031D01*
X174694431Y-57488446D01*
X174659369Y-57593786D01*
X174601733Y-57749388D01*
X174525166Y-57946584D01*
X174433314Y-58176710D01*
X174329817Y-58431101D01*
X174218321Y-58701090D01*
X174102468Y-58978012D01*
X173985903Y-59253201D01*
X173872267Y-59517993D01*
X173765206Y-59763721D01*
X173668362Y-59981721D01*
X173585379Y-60163326D01*
X173519901Y-60299871D01*
X173475569Y-60382690D01*
X173457717Y-60404441D01*
X173403166Y-60387504D01*
X173301095Y-60342077D01*
X173169105Y-60276280D01*
X173096526Y-60237813D01*
X172788295Y-60071155D01*
X172421103Y-60319519D01*
X172233660Y-60446754D01*
X172028443Y-60586773D01*
X171836133Y-60718612D01*
X171739807Y-60785001D01*
X171604327Y-60875976D01*
X171489607Y-60948071D01*
X171410612Y-60992154D01*
X171384954Y-61001473D01*
X171347609Y-60976334D01*
X171264958Y-60906154D01*
X171145015Y-60798220D01*
X170995791Y-60659818D01*
X170825301Y-60498235D01*
X170717474Y-60394488D01*
X170528828Y-60209135D01*
X170365795Y-60043351D01*
X170234968Y-59904227D01*
X170142935Y-59798856D01*
X170096287Y-59734329D01*
X170091812Y-59721234D01*
X170112580Y-59671425D01*
X170169969Y-59570713D01*
X170257613Y-59429295D01*
X170369146Y-59257367D01*
X170498203Y-59065124D01*
X170534904Y-59011529D01*
X170668632Y-58816733D01*
X170788607Y-58641353D01*
X170888121Y-58495243D01*
X170960467Y-58388258D01*
X170998936Y-58330255D01*
X171002653Y-58324257D01*
X170997095Y-58278032D01*
X170967593Y-58176398D01*
X170919291Y-58032758D01*
X170857333Y-57860514D01*
X170786863Y-57673066D01*
X170713025Y-57483818D01*
X170640963Y-57306171D01*
X170575822Y-57153527D01*
X170522745Y-57039288D01*
X170486877Y-56976856D01*
X170484327Y-56973861D01*
X170462394Y-56956019D01*
X170425348Y-56938374D01*
X170365059Y-56919101D01*
X170273396Y-56896374D01*
X170142226Y-56868364D01*
X169963418Y-56833247D01*
X169728842Y-56789195D01*
X169430365Y-56734382D01*
X169365740Y-56722597D01*
X169174206Y-56685591D01*
X169007231Y-56649389D01*
X168879568Y-56617485D01*
X168805976Y-56593372D01*
X168796108Y-56587750D01*
X168779847Y-56537910D01*
X168766630Y-56426532D01*
X168756464Y-56266563D01*
X168749360Y-56070950D01*
X168745326Y-55852640D01*
X168744370Y-55624579D01*
X168746502Y-55399714D01*
X168751731Y-55190991D01*
X168760065Y-55011358D01*
X168771513Y-54873762D01*
X168786084Y-54791148D01*
X168794868Y-54774240D01*
X168843770Y-54757184D01*
X168955127Y-54729436D01*
X169117844Y-54693403D01*
X169320826Y-54651493D01*
X169552979Y-54606111D01*
X169679462Y-54582326D01*
X169919445Y-54537465D01*
X170133451Y-54496825D01*
X170311022Y-54462446D01*
X170441698Y-54436365D01*
X170515018Y-54420621D01*
X170527085Y-54417130D01*
X170547481Y-54377779D01*
X170590594Y-54282993D01*
X170650679Y-54146315D01*
X170721987Y-53981286D01*
X170798773Y-53801447D01*
X170875290Y-53620340D01*
X170945790Y-53451507D01*
X171004527Y-53308488D01*
X171045754Y-53204826D01*
X171063724Y-53154061D01*
X171064059Y-53151842D01*
X171043687Y-53111796D01*
X170986573Y-53019639D01*
X170898721Y-52884533D01*
X170786133Y-52715635D01*
X170654811Y-52522105D01*
X170578471Y-52410941D01*
X170439364Y-52207116D01*
X170315812Y-52022063D01*
X170213842Y-51865146D01*
X170139483Y-51745724D01*
X170098763Y-51673160D01*
X170092882Y-51656893D01*
X170118163Y-51619030D01*
X170188052Y-51538186D01*
X170293623Y-51423419D01*
X170425948Y-51283785D01*
X170576099Y-51128342D01*
X170735148Y-50966146D01*
X170894167Y-50806254D01*
X171044229Y-50657724D01*
X171176406Y-50529613D01*
X171281770Y-50430977D01*
X171351393Y-50370873D01*
X171374685Y-50356529D01*
X171412610Y-50376699D01*
X171503317Y-50433363D01*
X171637989Y-50520753D01*
X171807805Y-50633100D01*
X172003946Y-50764638D01*
X172151900Y-50864849D01*
X172899436Y-51373168D01*
X173522556Y-51116298D01*
X174145676Y-50859427D01*
X174483424Y-49067853D01*
X176347929Y-49067853D01*
X176516803Y-49963640D01*
G37*
X176516803Y-49963640D02*
X176685676Y-50859427D01*
X177308796Y-51116298D01*
X177931916Y-51373168D01*
X178679453Y-50864849D01*
X178888802Y-50723316D01*
X179078043Y-50596945D01*
X179238343Y-50491507D01*
X179360874Y-50412770D01*
X179436802Y-50366505D01*
X179457480Y-50356529D01*
X179494731Y-50382186D01*
X179574332Y-50453115D01*
X179687361Y-50560257D01*
X179824895Y-50694550D01*
X179978012Y-50846934D01*
X180137789Y-51008347D01*
X180295305Y-51169730D01*
X180441637Y-51322022D01*
X180567863Y-51456162D01*
X180665060Y-51563089D01*
X180724307Y-51633742D01*
X180738471Y-51657388D01*
X180718087Y-51700979D01*
X180660941Y-51796481D01*
X180573041Y-51934550D01*
X180460396Y-52105845D01*
X180329013Y-52301025D01*
X180252882Y-52412352D01*
X180114118Y-52615633D01*
X179990811Y-52799073D01*
X179888945Y-52953542D01*
X179814501Y-53069909D01*
X179773461Y-53139042D01*
X179767294Y-53153570D01*
X179781274Y-53194860D01*
X179819382Y-53291092D01*
X179875867Y-53428734D01*
X179944980Y-53594258D01*
X180020970Y-53774132D01*
X180098089Y-53954828D01*
X180170585Y-54122814D01*
X180232709Y-54264560D01*
X180278712Y-54366537D01*
X180302843Y-54415214D01*
X180304267Y-54417130D01*
X180342158Y-54426425D01*
X180443069Y-54447160D01*
X180596540Y-54477298D01*
X180792112Y-54514801D01*
X181019325Y-54557629D01*
X181151891Y-54582326D01*
X181394679Y-54628553D01*
X181613974Y-54672540D01*
X181798681Y-54711881D01*
X181937705Y-54744169D01*
X182019952Y-54766997D01*
X182036485Y-54774240D01*
X182052678Y-54823261D01*
X182065744Y-54933977D01*
X182075691Y-55093438D01*
X182082528Y-55288700D01*
X182086264Y-55506814D01*
X182086907Y-55734835D01*
X182084468Y-55959815D01*
X182078953Y-56168809D01*
X182070374Y-56348868D01*
X182058737Y-56487047D01*
X182044052Y-56570398D01*
X182035245Y-56587750D01*
X181982599Y-56608548D01*
X181871043Y-56638282D01*
X181715335Y-56673459D01*
X181530229Y-56710586D01*
X181465613Y-56722597D01*
X181154071Y-56779662D01*
X180907976Y-56825618D01*
X180719195Y-56862293D01*
X180579598Y-56891513D01*
X180481052Y-56915104D01*
X180415426Y-56934892D01*
X180374589Y-56952706D01*
X180350409Y-56970370D01*
X180347026Y-56973861D01*
X180313255Y-57030100D01*
X180261737Y-57139547D01*
X180197617Y-57288800D01*
X180126039Y-57464459D01*
X180052146Y-57653121D01*
X179981083Y-57841385D01*
X179917993Y-58015848D01*
X179868021Y-58163108D01*
X179836312Y-58269764D01*
X179828008Y-58322413D01*
X179828700Y-58324257D01*
X179856836Y-58367292D01*
X179920665Y-58461978D01*
X180013480Y-58598460D01*
X180128573Y-58766882D01*
X180259237Y-58957390D01*
X180296448Y-59011529D01*
X180429129Y-59207804D01*
X180545883Y-59386886D01*
X180640349Y-59538492D01*
X180706168Y-59652338D01*
X180736978Y-59718141D01*
X180738471Y-59726225D01*
X180712584Y-59768715D01*
X180641054Y-59852891D01*
X180533076Y-59969705D01*
X180397846Y-60110110D01*
X180244558Y-60265061D01*
X180082409Y-60425509D01*
X179920593Y-60582409D01*
X179768306Y-60726713D01*
X179634743Y-60849376D01*
X179529100Y-60941350D01*
X179460572Y-60993589D01*
X179441614Y-61002118D01*
X179397487Y-60982029D01*
X179307142Y-60927849D01*
X179185295Y-60848704D01*
X179091546Y-60785001D01*
X178921678Y-60668110D01*
X178720512Y-60530476D01*
X178518733Y-60393063D01*
X178410250Y-60319519D01*
X178043058Y-60071155D01*
X177734826Y-60237813D01*
X177594404Y-60310822D01*
X177474996Y-60367571D01*
X177394202Y-60399937D01*
X177373636Y-60404441D01*
X177348906Y-60371189D01*
X177300118Y-60277224D01*
X177230913Y-60131213D01*
X177144935Y-59941824D01*
X177045824Y-59717724D01*
X176937224Y-59467581D01*
X176822775Y-59200063D01*
X176706120Y-58923836D01*
X176590901Y-58647568D01*
X176480760Y-58379927D01*
X176379339Y-58129580D01*
X176290280Y-57905195D01*
X176217225Y-57715439D01*
X176163816Y-57568980D01*
X176133695Y-57474485D01*
X176128851Y-57442031D01*
X176167245Y-57400636D01*
X176251308Y-57333438D01*
X176363467Y-57254400D01*
X176372881Y-57248147D01*
X176662768Y-57016103D01*
X176896512Y-56745386D01*
X177072087Y-56444653D01*
X177187469Y-56122561D01*
X177240630Y-55787765D01*
X177229547Y-55448922D01*
X177152192Y-55114688D01*
X177006540Y-54793719D01*
X176963688Y-54723495D01*
X176740802Y-54439927D01*
X176477491Y-54212218D01*
X176182865Y-54041551D01*
X175866041Y-53929112D01*
X175536130Y-53876083D01*
X175202246Y-53883651D01*
X174873503Y-53952998D01*
X174559014Y-54085309D01*
X174267893Y-54281768D01*
X174177840Y-54361506D01*
X173948653Y-54611108D01*
X173781646Y-54873868D01*
X173667085Y-55168399D01*
X173603281Y-55460075D01*
X173587530Y-55788012D01*
X173640051Y-56117577D01*
X173755510Y-56437630D01*
X173928571Y-56737032D01*
X174153899Y-57004643D01*
X174426160Y-57229325D01*
X174461942Y-57253008D01*
X174575302Y-57330568D01*
X174661478Y-57397768D01*
X174702677Y-57440675D01*
X174703276Y-57442031D01*
X174694431Y-57488446D01*
X174659369Y-57593786D01*
X174601733Y-57749388D01*
X174525166Y-57946584D01*
X174433314Y-58176710D01*
X174329817Y-58431101D01*
X174218321Y-58701090D01*
X174102468Y-58978012D01*
X173985903Y-59253201D01*
X173872267Y-59517993D01*
X173765206Y-59763721D01*
X173668362Y-59981721D01*
X173585379Y-60163326D01*
X173519901Y-60299871D01*
X173475569Y-60382690D01*
X173457717Y-60404441D01*
X173403166Y-60387504D01*
X173301095Y-60342077D01*
X173169105Y-60276280D01*
X173096526Y-60237813D01*
X172788295Y-60071155D01*
X172421103Y-60319519D01*
X172233660Y-60446754D01*
X172028443Y-60586773D01*
X171836133Y-60718612D01*
X171739807Y-60785001D01*
X171604327Y-60875976D01*
X171489607Y-60948071D01*
X171410612Y-60992154D01*
X171384954Y-61001473D01*
X171347609Y-60976334D01*
X171264958Y-60906154D01*
X171145015Y-60798220D01*
X170995791Y-60659818D01*
X170825301Y-60498235D01*
X170717474Y-60394488D01*
X170528828Y-60209135D01*
X170365795Y-60043351D01*
X170234968Y-59904227D01*
X170142935Y-59798856D01*
X170096287Y-59734329D01*
X170091812Y-59721234D01*
X170112580Y-59671425D01*
X170169969Y-59570713D01*
X170257613Y-59429295D01*
X170369146Y-59257367D01*
X170498203Y-59065124D01*
X170534904Y-59011529D01*
X170668632Y-58816733D01*
X170788607Y-58641353D01*
X170888121Y-58495243D01*
X170960467Y-58388258D01*
X170998936Y-58330255D01*
X171002653Y-58324257D01*
X170997095Y-58278032D01*
X170967593Y-58176398D01*
X170919291Y-58032758D01*
X170857333Y-57860514D01*
X170786863Y-57673066D01*
X170713025Y-57483818D01*
X170640963Y-57306171D01*
X170575822Y-57153527D01*
X170522745Y-57039288D01*
X170486877Y-56976856D01*
X170484327Y-56973861D01*
X170462394Y-56956019D01*
X170425348Y-56938374D01*
X170365059Y-56919101D01*
X170273396Y-56896374D01*
X170142226Y-56868364D01*
X169963418Y-56833247D01*
X169728842Y-56789195D01*
X169430365Y-56734382D01*
X169365740Y-56722597D01*
X169174206Y-56685591D01*
X169007231Y-56649389D01*
X168879568Y-56617485D01*
X168805976Y-56593372D01*
X168796108Y-56587750D01*
X168779847Y-56537910D01*
X168766630Y-56426532D01*
X168756464Y-56266563D01*
X168749360Y-56070950D01*
X168745326Y-55852640D01*
X168744370Y-55624579D01*
X168746502Y-55399714D01*
X168751731Y-55190991D01*
X168760065Y-55011358D01*
X168771513Y-54873762D01*
X168786084Y-54791148D01*
X168794868Y-54774240D01*
X168843770Y-54757184D01*
X168955127Y-54729436D01*
X169117844Y-54693403D01*
X169320826Y-54651493D01*
X169552979Y-54606111D01*
X169679462Y-54582326D01*
X169919445Y-54537465D01*
X170133451Y-54496825D01*
X170311022Y-54462446D01*
X170441698Y-54436365D01*
X170515018Y-54420621D01*
X170527085Y-54417130D01*
X170547481Y-54377779D01*
X170590594Y-54282993D01*
X170650679Y-54146315D01*
X170721987Y-53981286D01*
X170798773Y-53801447D01*
X170875290Y-53620340D01*
X170945790Y-53451507D01*
X171004527Y-53308488D01*
X171045754Y-53204826D01*
X171063724Y-53154061D01*
X171064059Y-53151842D01*
X171043687Y-53111796D01*
X170986573Y-53019639D01*
X170898721Y-52884533D01*
X170786133Y-52715635D01*
X170654811Y-52522105D01*
X170578471Y-52410941D01*
X170439364Y-52207116D01*
X170315812Y-52022063D01*
X170213842Y-51865146D01*
X170139483Y-51745724D01*
X170098763Y-51673160D01*
X170092882Y-51656893D01*
X170118163Y-51619030D01*
X170188052Y-51538186D01*
X170293623Y-51423419D01*
X170425948Y-51283785D01*
X170576099Y-51128342D01*
X170735148Y-50966146D01*
X170894167Y-50806254D01*
X171044229Y-50657724D01*
X171176406Y-50529613D01*
X171281770Y-50430977D01*
X171351393Y-50370873D01*
X171374685Y-50356529D01*
X171412610Y-50376699D01*
X171503317Y-50433363D01*
X171637989Y-50520753D01*
X171807805Y-50633100D01*
X172003946Y-50764638D01*
X172151900Y-50864849D01*
X172899436Y-51373168D01*
X173522556Y-51116298D01*
X174145676Y-50859427D01*
X174483424Y-49067853D01*
X176347929Y-49067853D01*
X176516803Y-49963640D01*
D14*
X149531000Y-49990000D02*
X149531000Y-48660000D01*
X149531000Y-48660000D02*
X150861000Y-48660000D01*
X129207000Y-141604000D02*
X132707000Y-141604000D01*
X127127000Y-131064000D02*
X127127000Y-130434000D01*
X127127000Y-139524000D02*
X127127000Y-137064000D01*
X148687000Y-131064000D02*
X148687000Y-130434000D01*
X148687000Y-139524000D02*
X148687000Y-137064000D01*
X128581756Y-126475831D02*
G75*
G02X131907000Y-125514000I2015244J-738169D01*
G01*
X127127000Y-130434000D02*
X128567000Y-126484000D01*
X129207000Y-141604000D02*
X127127000Y-139524000D01*
X143107000Y-141604000D02*
X146607000Y-141604000D01*
X146607000Y-141604000D02*
X148687000Y-139524000D01*
X148687000Y-130434000D02*
X147247000Y-126484000D01*
X143910354Y-125497470D02*
G75*
G02X147247000Y-126484000I1306646J-1716530D01*
G01*
X147873000Y-48660000D02*
X147873000Y-49990000D01*
X146543000Y-48660000D02*
X147873000Y-48660000D01*
X128905748Y-66194000D02*
X129428252Y-66194000D01*
X128905748Y-64774000D02*
X129428252Y-64774000D01*
X128905748Y-70009000D02*
X129428252Y-70009000D01*
X128905748Y-68589000D02*
X129428252Y-68589000D01*
X128905748Y-73814000D02*
X129428252Y-73814000D01*
X128905748Y-72394000D02*
X129428252Y-72394000D01*
X183888252Y-72394000D02*
X183365748Y-72394000D01*
X183888252Y-73814000D02*
X183365748Y-73814000D01*
X183888252Y-68584000D02*
X183365748Y-68584000D01*
X183888252Y-70004000D02*
X183365748Y-70004000D01*
X183888252Y-64774000D02*
X183365748Y-64774000D01*
X183888252Y-66194000D02*
X183365748Y-66194000D01*
X133275748Y-66194000D02*
X133798252Y-66194000D01*
X133275748Y-64774000D02*
X133798252Y-64774000D01*
X133275748Y-70009000D02*
X133798252Y-70009000D01*
X133275748Y-68589000D02*
X133798252Y-68589000D01*
X133275748Y-73814000D02*
X133798252Y-73814000D01*
X133275748Y-72394000D02*
X133798252Y-72394000D01*
X179518252Y-72394000D02*
X178995748Y-72394000D01*
X179518252Y-73814000D02*
X178995748Y-73814000D01*
X179518252Y-68584000D02*
X178995748Y-68584000D01*
X179518252Y-70004000D02*
X178995748Y-70004000D01*
X179518252Y-64774000D02*
X178995748Y-64774000D01*
X179518252Y-66194000D02*
X178995748Y-66194000D01*
X156456252Y-56646000D02*
X155933748Y-56646000D01*
X156456252Y-58066000D02*
X155933748Y-58066000D01*
M02*
